  0
SECTION
  2
HEADER
  9
$ACADVER
  1
AC1014
  9
$HANDSEED
  5
FFFF
  9
$INSUNITS
 70
     4
  9
$MEASUREMENT
 70
     1
  0
ENDSEC
  0
SECTION
  2
TABLES
  0
TABLE
  2
VPORT
  5
8
330
0
100
AcDbSymbolTable
 70
     4
  0
VPORT
  5
2E
330
8
100
AcDbSymbolTableRecord
100
AcDbViewportTableRecord
  2
*ACTIVE
 70
     0
 10
0.0
 20
0.0
 11
1.0
 21
1.0
 12
210.0
 22
148.5
 13
0.0
 23
0.0
 14
10.0
 24
10.0
 15
10.0
 25
10.0
 16
0.0
 26
0.0
 36
1.0
 17
0.0
 27
0.0
 37
0.0
 40
341.0
 41
1.24
 42
50.0
 43
0.0
 44
0.0
 50
0.0
 51
0.0
 71
     0
 72
   100
 73
     1
 74
     3
 75
     0
 76
     0
 77
     0
 78
     0
  0
ENDTAB
  0
TABLE
  2
LTYPE
  5
5
330
0
100
AcDbSymbolTable
 70
     1
  0
LTYPE
  5
14
330
5
100
AcDbSymbolTableRecord
100
AcDbLinetypeTableRecord
  2
BYBLOCK
 70
     0
  3

 72
    65
 73
     0
 40
0.0
  0
LTYPE
  5
15
330
5
100
AcDbSymbolTableRecord
100
AcDbLinetypeTableRecord
  2
BYLAYER
 70
     0
  3

 72
    65
 73
     0
 40
0.0
  0
LTYPE
  5
16
330
5
100
AcDbSymbolTableRecord
100
AcDbLinetypeTableRecord
  2
CONTINUOUS
 70
     0
  3
Solid line
 72
    65
 73
     0
 40
0.0
  0
ENDTAB
  0
TABLE
  2
LAYER
  5
2
100
AcDbSymbolTable
 70
3
  0
LAYER
  5
50
100
AcDbSymbolTableRecord
100
AcDbLayerTableRecord
  2
0
 70
0
  6
CONTINUOUS
  0
LAYER
  5
51
100
AcDbSymbolTableRecord
100
AcDbLayerTableRecord
  2
Texto
 70
0
  6
CONTINUOUS
  0
LAYER
  5
52
100
AcDbSymbolTableRecord
100
AcDbLayerTableRecord
  2
Camada_1
 70
0
  6
CONTINUOUS
  0
ENDTAB
  0
TABLE
  2
STYLE
  5
3
330
0
100
AcDbSymbolTable
 70
     1
  0
STYLE
  5
11
330
3
100
AcDbSymbolTableRecord
100
AcDbTextStyleTableRecord
  2
STANDARD
 70
     0
 40
0.0
 41
1.0
 50
0.0
 71
     0
 42
2.5
  3
txt
  4

  0
ENDTAB
  0
TABLE
  2
VIEW
  5
6
330
0
100
AcDbSymbolTable
 70
     0
  0
ENDTAB
  0
TABLE
  2
UCS
  5
7
330
0
100
AcDbSymbolTable
 70
     0
  0
ENDTAB
  0
TABLE
  2
APPID
  5
9
330
0
100
AcDbSymbolTable
 70
     2
  0
APPID
  5
12
330
9
100
AcDbSymbolTableRecord
100
AcDbRegAppTableRecord
  2
ACAD
 70
     0
  0
ENDTAB
  0
TABLE
  2
DIMSTYLE
  5
A
330
0
100
AcDbSymbolTable
 70
     1
  0
DIMSTYLE
105
27
330
A
100
AcDbSymbolTableRecord
100
AcDbDimStyleTableRecord
  2
ISO-25
 70
     0
  3

  4

  5

  6

  7

 40
1.0
 41
2.5
 42
0.625
 43
3.75
 44
1.25
 45
0.0
 46
0.0
 47
0.0
 48
0.0
140
2.5
141
2.5
142
0.0
143
0.03937007874016
144
1.0
145
0.0
146
1.0
147
0.625
 71
     0
 72
     0
 73
     0
 74
     0
 75
     0
 76
     0
 77
     1
 78
     8
170
     0
171
     3
172
     1
173
     0
174
     0
175
     0
176
     0
177
     0
178
     0
270
     2
271
     2
272
     2
273
     2
274
     3
340
11
275
     0
280
     0
281
     0
282
     0
283
     0
284
     8
285
     0
286
     0
287
     3
288
     0
  0
ENDTAB
  0
TABLE
  2
BLOCK_RECORD
  5
1
330
0
100
AcDbSymbolTable
 70
     1
  0
BLOCK_RECORD
  5
1F
330
1
100
AcDbSymbolTableRecord
100
AcDbBlockTableRecord
  2
*MODEL_SPACE
  0
BLOCK_RECORD
  5
1B
330
1
100
AcDbSymbolTableRecord
100
AcDbBlockTableRecord
  2
*PAPER_SPACE
  0
ENDTAB
  0
ENDSEC
  0
SECTION
  2
BLOCKS
  0
BLOCK
  5
20
330
1F
100
AcDbEntity
  8
0
100
AcDbBlockBegin
  2
*MODEL_SPACE
 70
     0
 10
0.0
 20
0.0
 30
0.0
  3
*MODEL_SPACE
  1

  0
ENDBLK
  5
21
330
1F
100
AcDbEntity
  8
0
100
AcDbBlockEnd
  0
BLOCK
  5
1C
330
1B
100
AcDbEntity
 67
     1
  8
0
100
AcDbBlockBegin
  2
*PAPER_SPACE
  1

  0
ENDBLK
  5
1D
330
1B
100
AcDbEntity
 67
     1
  8
0
100
AcDbBlockEnd
  0
ENDSEC
  0
SECTION
  2
ENTITIES
  0
LINE
  5
100
100
AcDbEntity
  8
Texto
 62
7
100
AcDbLine
 10
58.827036
 20
154.071951
 30
0.0
 11
58.827036
 21
152.990318
 31
0.0
  0
LINE
  5
101
100
AcDbEntity
  8
Texto
 62
7
100
AcDbLine
 10
58.827036
 20
152.990318
 30
0.0
 11
59.251963
 21
152.990318
 31
0.0
  0
LINE
  5
102
100
AcDbEntity
  8
Texto
 62
7
100
AcDbLine
 10
59.251963
 20
152.990318
 30
0.0
 11
58.556627
 21
150.208976
 31
0.0
  0
LINE
  5
103
100
AcDbEntity
  8
Texto
 62
7
100
AcDbLine
 10
58.556627
 20
150.208976
 30
0.0
 11
58.548927
 21
150.208976
 31
0.0
  0
LINE
  5
104
100
AcDbEntity
  8
Texto
 62
7
100
AcDbLine
 10
58.548927
 20
150.208976
 30
0.0
 11
57.784032
 21
152.990318
 31
0.0
  0
LINE
  5
105
100
AcDbEntity
  8
Texto
 62
7
100
AcDbLine
 10
57.784032
 20
152.990318
 30
0.0
 11
58.208960
 21
152.990318
 31
0.0
  0
LINE
  5
106
100
AcDbEntity
  8
Texto
 62
7
100
AcDbLine
 10
58.208960
 20
152.990318
 30
0.0
 11
58.208960
 21
154.071951
 31
0.0
  0
LINE
  5
107
100
AcDbEntity
  8
Texto
 62
7
100
AcDbLine
 10
58.208960
 20
154.071951
 30
0.0
 11
55.891175
 21
154.071951
 31
0.0
  0
LINE
  5
108
100
AcDbEntity
  8
Texto
 62
7
100
AcDbLine
 10
55.891175
 20
154.071951
 30
0.0
 11
55.891175
 21
152.990318
 31
0.0
  0
LINE
  5
109
100
AcDbEntity
  8
Texto
 62
7
100
AcDbLine
 10
55.891175
 20
152.990318
 30
0.0
 11
56.254294
 21
152.990318
 31
0.0
  0
LINE
  5
10a
100
AcDbEntity
  8
Texto
 62
7
100
AcDbLine
 10
56.254294
 20
152.990318
 30
0.0
 11
57.590884
 21
148.779675
 31
0.0
  0
LINE
  5
10b
100
AcDbEntity
  8
Texto
 62
7
100
AcDbLine
 10
57.590884
 20
148.779675
 30
0.0
 11
59.367852
 21
148.779675
 31
0.0
  0
LINE
  5
10c
100
AcDbEntity
  8
Texto
 62
7
100
AcDbLine
 10
59.367852
 20
148.779675
 30
0.0
 11
60.665812
 21
152.990318
 31
0.0
  0
LINE
  5
10d
100
AcDbEntity
  8
Texto
 62
7
100
AcDbLine
 10
60.665812
 20
152.990318
 30
0.0
 11
61.067561
 21
152.990318
 31
0.0
  0
LINE
  5
10e
100
AcDbEntity
  8
Texto
 62
7
100
AcDbLine
 10
61.067561
 20
152.990318
 30
0.0
 11
61.067561
 21
154.071951
 31
0.0
  0
LINE
  5
10f
100
AcDbEntity
  8
Texto
 62
7
100
AcDbLine
 10
61.067561
 20
154.071951
 30
0.0
 11
58.827036
 21
154.071951
 31
0.0
  0
LINE
  5
110
100
AcDbEntity
  8
Texto
 62
7
100
AcDbLine
 10
64.157942
 20
148.934194
 30
0.0
 11
64.003423
 21
149.977197
 31
0.0
  0
SPLINE
  5
111
100
AcDbEntity
  8
Texto
 62
7
100
AcDbSpline
 70
0
 71
3
 72
19
 73
15
 74
13
 40
0.000000
 40
0.000000
 40
0.000000
 40
0.000000
 40
1.167551
 40
2.123370
 40
3.391916
 40
4.643906
 40
5.601214
 40
6.689462
 40
7.777710
 40
8.735018
 40
9.987008
 40
10.490872
 40
11.006421
 40
11.548948
 40
11.548948
 40
11.548948
 40
11.548948
 10
64.297009
 20
150.440754
 30
0.0
 10
64.346029
 20
150.830327
 30
0.0
 10
64.435178
 20
151.538825
 30
0.0
 10
63.870150
 20
152.664033
 30
0.0
 10
62.602477
 20
152.806858
 30
0.0
 10
61.423121
 20
152.682827
 30
0.0
 10
60.593028
 20
151.822218
 30
0.0
 10
60.491032
 20
150.749650
 30
0.0
 10
60.594726
 20
149.677903
 30
0.0
 10
61.416528
 20
148.814912
 30
0.0
 10
62.368034
 20
148.726876
 30
0.0
 10
63.119707
 20
148.750992
 30
0.0
 10
63.639921
 20
148.804679
 30
0.0
 10
63.982358
 20
148.890295
 30
0.0
 10
64.157942
 20
148.934194
 30
0.0
 11
64.297009
 21
150.440754
 31
0.0
 11
64.310171
 21
151.608231
 31
0.0
 11
63.840891
 21
152.440917
 31
0.0
 11
62.612752
 21
152.758539
 31
0.0
 11
61.385185
 21
152.512454
 31
0.0
 11
60.724187
 21
151.819980
 31
0.0
 11
60.526746
 21
150.749793
 31
0.0
 11
60.724187
 21
149.679605
 31
0.0
 11
61.385185
 21
148.987132
 31
0.0
 11
62.612752
 21
148.741046
 31
0.0
 11
63.116370
 21
148.756784
 31
0.0
 11
63.628572
 21
148.815444
 31
0.0
 11
64.157942
 21
148.934194
 31
0.0
  0
LINE
  5
112
100
AcDbEntity
  8
Texto
 62
7
100
AcDbLine
 10
61.917417
 20
150.440754
 30
0.0
 11
64.297009
 21
150.440754
 31
0.0
  0
SPLINE
  5
113
100
AcDbEntity
  8
Texto
 62
7
100
AcDbSpline
 70
0
 71
3
 72
13
 73
9
 74
7
 40
0.000000
 40
0.000000
 40
0.000000
 40
0.000000
 40
0.499291
 40
0.894207
 40
1.211595
 40
1.666117
 40
2.038147
 40
2.396180
 40
2.396180
 40
2.396180
 40
2.396180
 10
64.003423
 20
149.977197
 30
0.0
 10
63.841855
 20
149.936089
 30
0.0
 10
63.552495
 20
149.862467
 30
0.0
 10
63.149114
 20
149.826112
 30
0.0
 10
62.760290
 20
149.815697
 30
0.0
 10
62.378333
 20
149.855951
 30
0.0
 10
62.014655
 20
150.078789
 30
0.0
 10
61.949413
 20
150.321651
 30
0.0
 10
61.917417
 20
150.440754
 30
0.0
 11
64.003423
 21
149.977197
 31
0.0
 11
63.516116
 21
149.868461
 31
0.0
 11
63.123237
 21
149.828401
 31
0.0
 11
62.805901
 21
149.822678
 31
0.0
 11
62.357510
 21
149.897076
 31
0.0
 11
62.051619
 21
150.108825
 31
0.0
 11
61.917417
 21
150.440754
 31
0.0
  0
LINE
  5
114
100
AcDbEntity
  8
Texto
 62
7
100
AcDbLine
 10
62.999050
 20
151.251979
 30
0.0
 11
61.917417
 21
151.251979
 31
0.0
  0
SPLINE
  5
115
100
AcDbEntity
  8
Texto
 62
7
100
AcDbSpline
 70
0
 71
3
 72
10
 73
6
 74
4
 40
0.000000
 40
0.000000
 40
0.000000
 40
0.000000
 40
0.323525
 40
0.544512
 40
0.812196
 40
0.812196
 40
0.812196
 40
0.812196
 10
62.535493
 20
151.754166
 30
0.0
 10
62.648987
 20
151.751938
 30
0.0
 10
62.840005
 20
151.748187
 30
0.0
 10
63.028336
 20
151.510895
 30
0.0
 10
63.009415
 20
151.343613
 30
0.0
 10
62.999050
 20
151.251979
 30
0.0
 11
62.535493
 21
151.754166
 31
0.0
 11
62.853115
 21
151.692644
 31
0.0
 11
62.990465
 21
151.519526
 31
0.0
 11
62.999050
 21
151.251979
 31
0.0
  0
LINE
  5
116
100
AcDbEntity
  8
Texto
 62
7
100
AcDbLine
 10
62.535493
 20
151.754166
 30
0.0
 11
62.535493
 21
151.754166
 31
0.0
  0
LINE
  5
117
100
AcDbEntity
  8
Texto
 62
7
100
AcDbLine
 10
64.466984
 20
153.144837
 30
0.0
 11
64.853282
 21
153.144837
 31
0.0
  0
LINE
  5
118
100
AcDbEntity
  8
Texto
 62
7
100
AcDbLine
 10
64.853282
 20
153.144837
 30
0.0
 11
64.853282
 21
149.899938
 31
0.0
  0
LINE
  5
119
100
AcDbEntity
  8
Texto
 62
7
100
AcDbLine
 10
64.853282
 20
149.899938
 30
0.0
 11
64.466984
 21
149.899938
 31
0.0
  0
LINE
  5
11a
100
AcDbEntity
  8
Texto
 62
7
100
AcDbLine
 10
64.466984
 20
149.899938
 30
0.0
 11
64.466984
 21
148.818305
 31
0.0
  0
LINE
  5
11b
100
AcDbEntity
  8
Texto
 62
7
100
AcDbLine
 10
64.466984
 20
148.818305
 30
0.0
 11
66.552991
 21
148.818305
 31
0.0
  0
LINE
  5
11c
100
AcDbEntity
  8
Texto
 62
7
100
AcDbLine
 10
66.552991
 20
148.818305
 30
0.0
 11
66.552991
 21
149.899938
 31
0.0
  0
LINE
  5
11d
100
AcDbEntity
  8
Texto
 62
7
100
AcDbLine
 10
66.552991
 20
149.899938
 30
0.0
 11
66.166693
 21
149.899938
 31
0.0
  0
LINE
  5
11e
100
AcDbEntity
  8
Texto
 62
7
100
AcDbLine
 10
66.166693
 20
149.899938
 30
0.0
 11
66.166693
 21
154.226470
 31
0.0
  0
LINE
  5
11f
100
AcDbEntity
  8
Texto
 62
7
100
AcDbLine
 10
66.166693
 20
154.226470
 30
0.0
 11
64.466984
 21
154.226470
 31
0.0
  0
LINE
  5
120
100
AcDbEntity
  8
Texto
 62
7
100
AcDbLine
 10
64.466984
 20
154.226470
 30
0.0
 11
64.466984
 21
153.144837
 31
0.0
  0
SPLINE
  5
121
100
AcDbEntity
  8
Texto
 62
7
100
AcDbSpline
 70
0
 71
3
 72
10
 73
6
 74
4
 40
0.000000
 40
0.000000
 40
0.000000
 40
0.000000
 40
0.301817
 40
0.569975
 40
0.880694
 40
0.880694
 40
0.880694
 40
0.880694
 10
61.917417
 20
151.251979
 30
0.0
 10
61.939181
 20
151.353283
 30
0.0
 10
61.980281
 20
151.544592
 30
0.0
 10
62.235885
 20
151.734421
 30
0.0
 10
62.430846
 20
151.747269
 30
0.0
 10
62.535493
 20
151.754166
 30
0.0
 11
61.917417
 21
151.251979
 31
0.0
 11
62.017568
 21
151.536695
 31
0.0
 11
62.229316
 21
151.701229
 31
0.0
 11
62.535493
 21
151.754166
 31
0.0
  0
LINE
  5
122
100
AcDbEntity
  8
Texto
 62
7
100
AcDbLine
 10
68.600371
 20
151.676906
 30
0.0
 11
68.600371
 21
151.676906
 31
0.0
  0
SPLINE
  5
123
100
AcDbEntity
  8
Texto
 62
7
100
AcDbSpline
 70
0
 71
3
 72
19
 73
15
 74
13
 40
0.000000
 40
0.000000
 40
0.000000
 40
0.000000
 40
0.367549
 40
0.724033
 40
1.241415
 40
1.758798
 40
2.115281
 40
2.482831
 40
2.850380
 40
3.206864
 40
3.724246
 40
4.241628
 40
4.598112
 40
4.965661
 40
4.965661
 40
4.965661
 40
4.965661
 10
68.600371
 20
151.676906
 30
0.0
 10
68.730404
 20
151.660929
 30
0.0
 10
68.986557
 20
151.629454
 30
0.0
 10
69.177698
 20
151.209023
 30
0.0
 10
69.181072
 20
150.750679
 30
0.0
 10
69.177698
 20
150.287569
 30
0.0
 10
68.986557
 20
149.877249
 30
0.0
 10
68.600371
 20
149.794975
 30
0.0
 10
68.214185
 20
149.877249
 30
0.0
 10
68.023044
 20
150.287569
 30
0.0
 10
68.019670
 20
150.750679
 30
0.0
 10
68.023044
 20
151.209023
 30
0.0
 10
68.214185
 20
151.629454
 30
0.0
 10
68.470338
 20
151.660929
 30
0.0
 10
68.600371
 20
151.676906
 30
0.0
 11
68.600371
 21
151.676906
 31
0.0
 11
68.953189
 21
151.573894
 31
0.0
 11
69.130886
 21
151.264856
 31
0.0
 11
69.179817
 21
150.749793
 31
0.0
 11
69.130886
 21
150.234729
 31
0.0
 11
68.953189
 21
149.925691
 31
0.0
 11
68.600371
 21
149.822678
 31
0.0
 11
68.247553
 21
149.925691
 31
0.0
 11
68.069856
 21
150.234729
 31
0.0
 11
68.020925
 21
150.749793
 31
0.0
 11
68.069856
 21
151.264856
 31
0.0
 11
68.247553
 21
151.573894
 31
0.0
 11
68.600371
 21
151.676906
 31
0.0
  0
LINE
  5
124
100
AcDbEntity
  8
Texto
 62
7
100
AcDbLine
 10
68.600371
 20
148.741046
 30
0.0
 11
68.600371
 21
148.741046
 31
0.0
  0
LINE
  5
125
100
AcDbEntity
  8
Texto
 62
7
100
AcDbLine
 10
74.356197
 20
151.367868
 30
0.0
 11
74.356197
 21
152.565391
 31
0.0
  0
SPLINE
  5
126
100
AcDbEntity
  8
Texto
 62
7
100
AcDbSpline
 70
0
 71
3
 72
19
 73
15
 74
13
 40
0.000000
 40
0.000000
 40
0.000000
 40
0.000000
 40
1.172139
 40
2.108954
 40
3.196431
 40
4.283908
 40
5.220723
 40
6.392862
 40
7.565001
 40
8.501816
 40
9.589293
 40
10.676770
 40
11.613585
 40
12.785724
 40
12.785724
 40
12.785724
 40
12.785724
 10
68.600371
 20
148.741046
 30
0.0
 10
69.004931
 20
148.768965
 30
0.0
 10
69.732828
 20
148.819197
 30
0.0
 10
70.504076
 20
149.691803
 30
0.0
 10
70.606166
 20
150.748957
 30
0.0
 10
70.504076
 20
151.810890
 30
0.0
 10
69.732828
 20
152.670131
 30
0.0
 10
68.600371
 20
152.807676
 30
0.0
 10
67.467914
 20
152.670131
 30
0.0
 10
66.696666
 20
151.810890
 30
0.0
 10
66.594576
 20
150.748957
 30
0.0
 10
66.696666
 20
149.691803
 30
0.0
 10
67.467914
 20
148.819197
 30
0.0
 10
68.195811
 20
148.768965
 30
0.0
 10
68.600371
 20
148.741046
 30
0.0
 11
68.600371
 21
148.741046
 31
0.0
 11
69.746387
 21
148.987132
 31
0.0
 11
70.377339
 21
149.679605
 31
0.0
 11
70.570488
 21
150.749793
 31
0.0
 11
70.377339
 21
151.819980
 31
0.0
 11
69.746387
 21
152.512454
 31
0.0
 11
68.600371
 21
152.758539
 31
0.0
 11
67.454355
 21
152.512454
 31
0.0
 11
66.823403
 21
151.819980
 31
0.0
 11
66.630254
 21
150.749793
 31
0.0
 11
66.823403
 21
149.679605
 31
0.0
 11
67.454355
 21
148.987132
 31
0.0
 11
68.600371
 21
148.741046
 31
0.0
  0
LINE
  5
127
100
AcDbEntity
  8
Texto
 62
7
100
AcDbLine
 10
74.356197
 20
148.934194
 30
0.0
 11
74.124418
 21
149.977197
 31
0.0
  0
SPLINE
  5
128
100
AcDbEntity
  8
Texto
 62
7
100
AcDbSpline
 70
0
 71
3
 72
19
 73
15
 74
13
 40
0.000000
 40
0.000000
 40
0.000000
 40
0.000000
 40
0.466175
 40
0.926090
 40
1.407431
 40
2.676260
 40
3.627661
 40
4.714384
 40
5.801107
 40
6.752508
 40
8.021337
 40
8.502678
 40
8.962593
 40
9.428768
 40
9.428768
 40
9.428768
 40
9.428768
 10
74.356197
 20
152.565391
 30
0.0
 10
74.205054
 20
152.601395
 30
0.0
 10
73.904799
 20
152.672922
 30
0.0
 10
73.439219
 20
152.743044
 30
0.0
 10
72.707584
 20
152.776843
 30
0.0
 10
71.757106
 20
152.690399
 30
0.0
 10
70.937335
 20
151.819373
 30
0.0
 10
70.848691
 20
150.749792
 30
0.0
 10
70.937335
 20
149.680212
 30
0.0
 10
71.757106
 20
148.809187
 30
0.0
 10
72.707584
 20
148.722743
 30
0.0
 10
73.439219
 20
148.756541
 30
0.0
 10
73.904799
 20
148.826664
 30
0.0
 10
74.205054
 20
148.898190
 30
0.0
 10
74.356197
 20
148.934194
 30
0.0
 11
74.356197
 21
152.565391
 31
0.0
 11
73.901224
 21
152.666973
 31
0.0
 11
73.446252
 21
152.734217
 31
0.0
 11
72.965526
 21
152.758539
 31
0.0
 11
71.720789
 21
152.512454
 31
0.0
 11
71.068376
 21
151.819980
 31
0.0
 11
70.879519
 21
150.749793
 31
0.0
 11
71.068376
 21
149.679605
 31
0.0
 11
71.720789
 21
148.987132
 31
0.0
 11
72.965526
 21
148.741046
 31
0.0
 11
73.446252
 21
148.765369
 31
0.0
 11
73.901224
 21
148.832613
 31
0.0
 11
74.356197
 21
148.934194
 31
0.0
  0
LINE
  5
129
100
AcDbEntity
  8
Texto
 62
7
100
AcDbLine
 10
73.274564
 20
151.669176
 30
0.0
 11
73.274564
 21
151.367864
 31
0.0
  0
LINE
  5
12a
100
AcDbEntity
  8
Texto
 62
7
100
AcDbLine
 10
73.274564
 20
151.367864
 30
0.0
 11
74.356197
 21
151.367868
 31
0.0
  0
LINE
  5
12b
100
AcDbEntity
  8
Texto
 62
7
100
AcDbLine
 10
74.510712
 20
151.599647
 30
0.0
 11
74.897010
 21
151.599647
 31
0.0
  0
LINE
  5
12c
100
AcDbEntity
  8
Texto
 62
7
100
AcDbLine
 10
74.897010
 20
151.599647
 30
0.0
 11
74.897010
 21
149.899938
 31
0.0
  0
LINE
  5
12d
100
AcDbEntity
  8
Texto
 62
7
100
AcDbLine
 10
74.897010
 20
149.899938
 30
0.0
 11
74.510712
 21
149.899938
 31
0.0
  0
LINE
  5
12e
100
AcDbEntity
  8
Texto
 62
7
100
AcDbLine
 10
74.510712
 20
149.899938
 30
0.0
 11
74.510712
 21
148.818305
 31
0.0
  0
LINE
  5
12f
100
AcDbEntity
  8
Texto
 62
7
100
AcDbLine
 10
74.510712
 20
148.818305
 30
0.0
 11
76.596719
 21
148.818305
 31
0.0
  0
LINE
  5
130
100
AcDbEntity
  8
Texto
 62
7
100
AcDbLine
 10
76.596719
 20
148.818305
 30
0.0
 11
76.596719
 21
149.899938
 31
0.0
  0
LINE
  5
131
100
AcDbEntity
  8
Texto
 62
7
100
AcDbLine
 10
76.596719
 20
149.899938
 30
0.0
 11
76.210421
 21
149.899938
 31
0.0
  0
LINE
  5
132
100
AcDbEntity
  8
Texto
 62
7
100
AcDbLine
 10
76.210421
 20
149.899938
 30
0.0
 11
76.210421
 21
152.681280
 31
0.0
  0
LINE
  5
133
100
AcDbEntity
  8
Texto
 62
7
100
AcDbLine
 10
76.210421
 20
152.681280
 30
0.0
 11
74.510712
 21
152.681280
 31
0.0
  0
LINE
  5
134
100
AcDbEntity
  8
Texto
 62
7
100
AcDbLine
 10
74.510712
 20
152.681280
 30
0.0
 11
74.510712
 21
151.599647
 31
0.0
  0
LINE
  5
135
100
AcDbEntity
  8
Texto
 62
7
100
AcDbLine
 10
74.897010
 20
154.226470
 30
0.0
 11
74.897010
 21
153.067577
 31
0.0
  0
LINE
  5
136
100
AcDbEntity
  8
Texto
 62
7
100
AcDbLine
 10
74.897010
 20
153.067577
 30
0.0
 11
76.210421
 21
153.067577
 31
0.0
  0
LINE
  5
137
100
AcDbEntity
  8
Texto
 62
7
100
AcDbLine
 10
76.210421
 20
153.067577
 30
0.0
 11
76.210421
 21
154.226470
 31
0.0
  0
LINE
  5
138
100
AcDbEntity
  8
Texto
 62
7
100
AcDbLine
 10
76.210421
 20
154.226470
 30
0.0
 11
74.897010
 21
154.226470
 31
0.0
  0
LINE
  5
139
100
AcDbEntity
  8
Texto
 62
7
100
AcDbLine
 10
78.682729
 20
153.144837
 30
0.0
 11
79.069026
 21
153.144837
 31
0.0
  0
LINE
  5
13a
100
AcDbEntity
  8
Texto
 62
7
100
AcDbLine
 10
79.069026
 20
153.144837
 30
0.0
 11
79.069026
 21
152.333612
 31
0.0
  0
LINE
  5
13b
100
AcDbEntity
  8
Texto
 62
7
100
AcDbLine
 10
79.069026
 20
152.333612
 30
0.0
 11
79.053576
 21
152.333612
 31
0.0
  0
SPLINE
  5
13c
100
AcDbEntity
  8
Texto
 62
7
100
AcDbSpline
 70
0
 71
3
 72
19
 73
15
 74
13
 40
0.000000
 40
0.000000
 40
0.000000
 40
0.000000
 40
0.534818
 40
0.880522
 40
1.172447
 40
1.534725
 40
1.918343
 40
2.475800
 40
3.033257
 40
3.416874
 40
3.779152
 40
3.883310
 40
3.984053
 40
4.088352
 40
4.088352
 40
4.088352
 40
4.088352
 10
74.124418
 20
149.977197
 30
0.0
 10
73.950695
 20
149.936990
 30
0.0
 10
73.664677
 20
149.870795
 30
0.0
 10
73.274894
 20
149.825545
 30
0.0
 10
72.944502
 20
149.813262
 30
0.0
 10
72.583879
 20
149.868642
 30
0.0
 10
72.295958
 20
150.242024
 30
0.0
 10
72.254876
 20
150.749595
 30
0.0
 10
72.296127
 20
151.258225
 30
0.0
 10
72.583451
 20
151.629419
 30
0.0
 10
72.880327
 20
151.680070
 30
0.0
 10
73.068438
 20
151.676487
 30
0.0
 10
73.171648
 20
151.675438
 30
0.0
 10
73.239865
 20
151.671288
 30
0.0
 10
73.274564
 20
151.669176
 30
0.0
 11
74.124418
 21
149.977197
 31
0.0
 11
73.600771
 21
149.868461
 31
0.0
 11
73.257395
 21
149.828401
 31
0.0
 11
72.965526
 21
149.822678
 31
0.0
 11
72.613566
 21
149.908522
 31
0.0
 11
72.364618
 21
150.200391
 31
0.0
 11
72.270190
 21
150.749793
 31
0.0
 11
72.364618
 21
151.299193
 31
0.0
 11
72.613566
 21
151.591063
 31
0.0
 11
72.965526
 21
151.676906
 31
0.0
 11
73.069683
 21
151.676620
 31
0.0
 11
73.170407
 21
151.674616
 31
0.0
 11
73.274564
 21
151.669176
 31
0.0
  0
LINE
  5
13d
100
AcDbEntity
  8
Texto
 62
7
100
AcDbLine
 10
79.053576
 20
149.204603
 30
0.0
 11
79.069026
 21
149.204603
 31
0.0
  0
LINE
  5
13e
100
AcDbEntity
  8
Texto
 62
7
100
AcDbLine
 10
79.069026
 20
149.204603
 30
0.0
 11
79.069026
 21
148.818305
 31
0.0
  0
LINE
  5
13f
100
AcDbEntity
  8
Texto
 62
7
100
AcDbLine
 10
79.069026
 20
148.818305
 30
0.0
 11
80.768735
 21
148.818305
 31
0.0
  0
LINE
  5
140
100
AcDbEntity
  8
Texto
 62
7
100
AcDbLine
 10
80.768735
 20
148.818305
 30
0.0
 11
80.768735
 21
149.899938
 31
0.0
  0
LINE
  5
141
100
AcDbEntity
  8
Texto
 62
7
100
AcDbLine
 10
80.768735
 20
149.899938
 30
0.0
 11
80.382437
 21
149.899938
 31
0.0
  0
LINE
  5
142
100
AcDbEntity
  8
Texto
 62
7
100
AcDbLine
 10
80.382437
 20
149.899938
 30
0.0
 11
80.382437
 21
154.226470
 31
0.0
  0
LINE
  5
143
100
AcDbEntity
  8
Texto
 62
7
100
AcDbLine
 10
80.382437
 20
154.226470
 30
0.0
 11
78.682729
 21
154.226470
 31
0.0
  0
LINE
  5
144
100
AcDbEntity
  8
Texto
 62
7
100
AcDbLine
 10
78.682729
 20
154.226470
 30
0.0
 11
78.682729
 21
153.144837
 31
0.0
  0
SPLINE
  5
145
100
AcDbEntity
  8
Texto
 62
7
100
AcDbSpline
 70
0
 71
3
 72
19
 73
15
 74
13
 40
0.000000
 40
0.000000
 40
0.000000
 40
0.000000
 40
0.345091
 40
0.691958
 40
1.035002
 40
1.940803
 40
2.804401
 40
3.815680
 40
4.824377
 40
5.668465
 40
6.555241
 40
6.936574
 40
7.317235
 40
7.677534
 40
7.677534
 40
7.677534
 40
7.677534
 10
79.053576
 20
152.333612
 30
0.0
 10
78.972389
 20
152.416317
 30
0.0
 10
78.809597
 20
152.582153
 30
0.0
 10
78.485527
 20
152.723352
 30
0.0
 10
77.958016
 20
152.800044
 30
0.0
 10
77.211743
 20
152.577456
 30
0.0
 10
76.731802
 20
151.715414
 30
0.0
 10
76.646599
 20
150.749763
 30
0.0
 10
76.717320
 20
149.795702
 30
0.0
 10
77.148047
 20
148.920090
 30
0.0
 10
77.901154
 20
148.695184
 30
0.0
 10
78.444581
 20
148.784659
 30
0.0
 10
78.793434
 20
148.942254
 30
0.0
 10
78.968465
 20
149.118770
 30
0.0
 10
79.053576
 20
149.204603
 30
0.0
 11
79.053576
 21
152.333612
 31
0.0
 11
78.796617
 21
152.563960
 31
0.0
 11
78.481284
 21
152.708464
 31
0.0
 11
78.141914
 21
152.758539
 31
0.0
 11
77.280614
 21
152.478116
 31
0.0
 11
76.814196
 21
151.751304
 31
0.0
 11
76.673984
 21
150.749793
 31
0.0
 11
76.794165
 21
149.748280
 31
0.0
 11
77.223385
 21
149.021469
 31
0.0
 11
78.064655
 21
148.741046
 31
0.0
 11
78.441223
 21
148.801137
 31
0.0
 11
78.785171
 21
148.964240
 31
0.0
 11
79.053576
 21
149.204603
 31
0.0
  0
LINE
  5
146
100
AcDbEntity
  8
Texto
 62
7
100
AcDbLine
 10
79.069026
 20
151.522387
 30
0.0
 11
79.069026
 21
149.977197
 31
0.0
  0
SPLINE
  5
147
100
AcDbEntity
  8
Texto
 62
7
100
AcDbSpline
 70
0
 71
3
 72
13
 73
9
 74
7
 40
0.000000
 40
0.000000
 40
0.000000
 40
0.000000
 40
0.482901
 40
0.848900
 40
1.199227
 40
1.405225
 40
1.569628
 40
1.695689
 40
1.695689
 40
1.695689
 40
1.695689
 10
78.064653
 20
150.749793
 30
0.0
 10
78.068740
 20
150.909549
 30
0.0
 10
78.075924
 20
151.190388
 30
0.0
 10
78.232419
 20
151.593480
 30
0.0
 10
78.559616
 20
151.696236
 30
0.0
 10
78.797823
 20
151.660849
 30
0.0
 10
78.954140
 20
151.600828
 30
0.0
 10
79.034256
 20
151.546127
 30
0.0
 10
79.069026
 20
151.522387
 30
0.0
 11
78.064653
 21
150.749793
 31
0.0
 11
78.110436
 21
151.230518
 31
0.0
 11
78.276401
 21
151.556725
 31
0.0
 11
78.605469
 21
151.676906
 31
0.0
 11
78.809778
 21
151.650581
 31
0.0
 11
78.962580
 21
151.589918
 31
0.0
 11
79.069026
 21
151.522387
 31
0.0
  0
LINE
  5
148
100
AcDbEntity
  8
Texto
 62
7
100
AcDbLine
 10
78.064653
 20
150.749793
 30
0.0
 11
78.064653
 21
150.749793
 31
0.0
  0
LINE
  5
149
100
AcDbEntity
  8
Texto
 62
7
100
AcDbLine
 10
82.198031
 20
151.367868
 30
0.0
 11
82.198031
 21
151.661454
 31
0.0
  0
SPLINE
  5
14a
100
AcDbEntity
  8
Texto
 62
7
100
AcDbSpline
 70
0
 71
3
 72
13
 73
9
 74
7
 40
0.000000
 40
0.000000
 40
0.000000
 40
0.000000
 40
0.126059
 40
0.290463
 40
0.496462
 40
0.846789
 40
1.212788
 40
1.695690
 40
1.695690
 40
1.695690
 40
1.695690
 10
79.069026
 20
149.977197
 30
0.0
 10
79.034257
 20
149.953457
 30
0.0
 10
78.954142
 20
149.898755
 30
0.0
 10
78.797824
 20
149.838735
 30
0.0
 10
78.559617
 20
149.803348
 30
0.0
 10
78.232419
 20
149.906104
 30
0.0
 10
78.075924
 20
150.309197
 30
0.0
 10
78.068740
 20
150.590036
 30
0.0
 10
78.064653
 20
150.749793
 30
0.0
 11
79.069026
 21
149.977197
 31
0.0
 11
78.962582
 21
149.909665
 31
0.0
 11
78.809779
 21
149.849003
 31
0.0
 11
78.605469
 21
149.822678
 31
0.0
 11
78.276401
 21
149.942860
 31
0.0
 11
78.110436
 21
150.269067
 31
0.0
 11
78.064653
 21
150.749793
 31
0.0
  0
LINE
  5
14b
100
AcDbEntity
  8
Texto
 62
7
100
AcDbLine
 10
83.125145
 20
151.367868
 30
0.0
 11
83.125145
 21
151.213349
 31
0.0
  0
LINE
  5
14c
100
AcDbEntity
  8
Texto
 62
7
100
AcDbLine
 10
83.125145
 20
151.213349
 30
0.0
 11
82.507069
 21
151.213349
 31
0.0
  0
SPLINE
  5
14d
100
AcDbEntity
  8
Texto
 62
7
100
AcDbSpline
 70
0
 71
3
 72
13
 73
9
 74
7
 40
0.000000
 40
0.000000
 40
0.000000
 40
0.000000
 40
0.106135
 40
0.208735
 40
0.309485
 40
0.638400
 40
0.868266
 40
1.088976
 40
1.088976
 40
1.088976
 40
1.088976
 10
82.198031
 20
151.661454
 30
0.0
 10
82.233325
 20
151.663996
 30
0.0
 10
82.302739
 20
151.668995
 30
0.0
 10
82.405603
 20
151.675354
 30
0.0
 10
82.583826
 20
151.678334
 30
0.0
 10
82.794661
 20
151.677838
 30
0.0
 10
83.081047
 20
151.606983
 30
0.0
 10
83.110646
 20
151.446486
 30
0.0
 10
83.125145
 20
151.367869
 30
0.0
 11
82.198031
 21
151.661454
 31
0.0
 11
82.303905
 21
151.668896
 31
0.0
 11
82.406346
 21
151.674618
 31
0.0
 11
82.507069
 21
151.676907
 31
0.0
 11
82.835565
 21
151.660310
 31
0.0
 11
83.049030
 21
151.575038
 31
0.0
 11
83.125145
 21
151.367868
 31
0.0
  0
LINE
  5
14e
100
AcDbEntity
  8
Texto
 62
7
100
AcDbLine
 10
83.109693
 20
149.204603
 30
0.0
 11
83.125143
 21
149.204603
 31
0.0
  0
LINE
  5
14f
100
AcDbEntity
  8
Texto
 62
7
100
AcDbLine
 10
83.125143
 20
149.204603
 30
0.0
 11
83.125143
 21
148.818305
 31
0.0
  0
LINE
  5
150
100
AcDbEntity
  8
Texto
 62
7
100
AcDbLine
 10
83.125143
 20
148.818305
 30
0.0
 11
84.824852
 21
148.818305
 31
0.0
  0
LINE
  5
151
100
AcDbEntity
  8
Texto
 62
7
100
AcDbLine
 10
84.824852
 20
148.818305
 30
0.0
 11
84.824852
 21
149.899938
 31
0.0
  0
LINE
  5
152
100
AcDbEntity
  8
Texto
 62
7
100
AcDbLine
 10
84.824852
 20
149.899938
 30
0.0
 11
84.438556
 21
149.899938
 31
0.0
  0
LINE
  5
153
100
AcDbEntity
  8
Texto
 62
7
100
AcDbLine
 10
84.438556
 20
149.899938
 30
0.0
 11
84.438556
 21
151.445128
 31
0.0
  0
SPLINE
  5
154
100
AcDbEntity
  8
Texto
 62
7
100
AcDbSpline
 70
0
 71
3
 72
16
 73
12
 74
10
 40
0.000000
 40
0.000000
 40
0.000000
 40
0.000000
 40
0.701641
 40
1.443497
 40
2.267466
 40
2.947921
 40
3.535217
 40
4.155940
 40
4.578012
 40
4.962397
 40
5.354222
 40
5.354222
 40
5.354222
 40
5.354222
 10
82.507069
 20
151.213349
 30
0.0
 10
82.273932
 20
151.197616
 30
0.0
 10
81.794295
 20
151.165246
 30
0.0
 10
81.067977
 20
150.804215
 30
0.0
 10
80.818980
 20
150.022503
 30
0.0
 10
80.965090
 20
149.316071
 30
0.0
 10
81.419602
 20
148.826831
 30
0.0
 10
81.979381
 20
148.714827
 30
0.0
 10
82.453696
 20
148.770760
 30
0.0
 10
82.831373
 20
148.927923
 30
0.0
 10
83.016329
 20
149.111789
 30
0.0
 10
83.109693
 20
149.204603
 30
0.0
 11
82.507069
 21
151.213349
 31
0.0
 11
81.811733
 21
151.119493
 31
0.0
 11
81.167904
 21
150.750937
 31
0.0
 11
80.884619
 21
149.977197
 31
0.0
 11
81.033987
 21
149.313338
 31
0.0
 11
81.440888
 21
148.889842
 31
0.0
 11
82.043512
 21
148.741046
 31
0.0
 11
82.462430
 21
148.792552
 31
0.0
 11
82.814390
 21
148.947071
 31
0.0
 11
83.109693
 21
149.204603
 31
0.0
  0
LINE
  5
155
100
AcDbEntity
  8
Texto
 62
7
100
AcDbLine
 10
81.116398
 20
152.565391
 30
0.0
 11
81.116398
 21
151.367868
 31
0.0
  0
LINE
  5
156
100
AcDbEntity
  8
Texto
 62
7
100
AcDbLine
 10
81.116398
 20
151.367868
 30
0.0
 11
82.198031
 21
151.367868
 31
0.0
  0
SPLINE
  5
157
100
AcDbEntity
  8
Texto
 62
7
100
AcDbSpline
 70
0
 71
3
 72
13
 73
9
 74
7
 40
0.000000
 40
0.000000
 40
0.000000
 40
0.000000
 40
0.842675
 40
1.517598
 40
2.407444
 40
2.943090
 40
3.525004
 40
4.120334
 40
4.120334
 40
4.120334
 40
4.120334
 10
84.438556
 20
151.445128
 30
0.0
 10
84.420699
 20
151.743044
 30
0.0
 10
84.388540
 20
152.279571
 30
0.0
 10
83.641468
 20
152.757622
 30
0.0
 10
82.932936
 20
152.766645
 30
0.0
 10
82.265365
 20
152.740477
 30
0.0
 10
81.697480
 20
152.672358
 30
0.0
 10
81.311558
 20
152.601316
 30
0.0
 10
81.116398
 20
152.565391
 30
0.0
 11
84.438556
 21
151.445128
 31
0.0
 11
84.249700
 21
152.266368
 31
0.0
 11
83.700299
 21
152.658388
 31
0.0
 11
82.816107
 21
152.758539
 31
0.0
 11
82.281013
 21
152.734217
 31
0.0
 11
81.702998
 21
152.666972
 31
0.0
 11
81.116398
 21
152.565391
 31
0.0
  0
LINE
  5
158
100
AcDbEntity
  8
Texto
 62
7
100
AcDbLine
 10
82.715670
 20
150.440754
 30
0.0
 11
83.125145
 21
150.440754
 31
0.0
  0
LINE
  5
159
100
AcDbEntity
  8
Texto
 62
7
100
AcDbLine
 10
83.125145
 20
150.440754
 30
0.0
 11
83.125145
 21
149.899938
 31
0.0
  0
LINE
  5
15a
100
AcDbEntity
  8
Texto
 62
7
100
AcDbLine
 10
86.910855
 20
153.144837
 30
0.0
 11
87.297153
 21
153.144837
 31
0.0
  0
LINE
  5
15b
100
AcDbEntity
  8
Texto
 62
7
100
AcDbLine
 10
87.297153
 20
153.144837
 30
0.0
 11
87.297153
 21
152.333612
 31
0.0
  0
LINE
  5
15c
100
AcDbEntity
  8
Texto
 62
7
100
AcDbLine
 10
87.297153
 20
152.333612
 30
0.0
 11
87.281703
 21
152.333612
 31
0.0
  0
SPLINE
  5
15d
100
AcDbEntity
  8
Texto
 62
7
100
AcDbSpline
 70
0
 71
3
 72
16
 73
12
 74
10
 40
0.000000
 40
0.000000
 40
0.000000
 40
0.000000
 40
0.167924
 40
0.367517
 40
0.568936
 40
0.740414
 40
0.926195
 40
1.146569
 40
1.404822
 40
1.622125
 40
1.859690
 40
1.859690
 40
1.859690
 40
1.859690
 10
83.125145
 20
149.899938
 30
0.0
 10
83.076456
 20
149.871865
 30
0.0
 10
82.969896
 20
149.810425
 30
0.0
 10
82.784698
 20
149.762655
 30
0.0
 10
82.594530
 20
149.736396
 30
0.0
 10
82.407632
 20
149.764156
 30
0.0
 10
82.236045
 20
149.877208
 30
0.0
 10
82.175689
 20
150.103663
 30
0.0
 10
82.242105
 20
150.356874
 30
0.0
 10
82.486674
 20
150.443295
 30
0.0
 10
82.637105
 20
150.441626
 30
0.0
 10
82.715670
 20
150.440754
 30
0.0
 11
83.125145
 21
149.899938
 31
0.0
 11
82.976349
 21
149.822104
 31
0.0
 11
82.784631
 21
149.766593
 31
0.0
 11
82.584328
 21
149.745419
 31
0.0
 11
82.415502
 21
149.775464
 31
0.0
 11
82.263845
 21
149.882769
 31
0.0
 11
82.198031
 21
150.093087
 31
0.0
 11
82.280727
 21
150.337742
 31
0.0
 11
82.478454
 21
150.427878
 31
0.0
 11
82.715670
 21
150.440754
 31
0.0
  0
LINE
  5
15e
100
AcDbEntity
  8
Texto
 62
7
100
AcDbLine
 10
87.281701
 20
149.204603
 30
0.0
 11
87.297151
 21
149.204603
 31
0.0
  0
LINE
  5
15f
100
AcDbEntity
  8
Texto
 62
7
100
AcDbLine
 10
87.297151
 20
149.204603
 30
0.0
 11
87.297151
 21
148.818305
 31
0.0
  0
LINE
  5
160
100
AcDbEntity
  8
Texto
 62
7
100
AcDbLine
 10
87.297151
 20
148.818305
 30
0.0
 11
88.996859
 21
148.818305
 31
0.0
  0
LINE
  5
161
100
AcDbEntity
  8
Texto
 62
7
100
AcDbLine
 10
88.996859
 20
148.818305
 30
0.0
 11
88.996859
 21
149.899938
 31
0.0
  0
LINE
  5
162
100
AcDbEntity
  8
Texto
 62
7
100
AcDbLine
 10
88.996859
 20
149.899938
 30
0.0
 11
88.610564
 21
149.899938
 31
0.0
  0
LINE
  5
163
100
AcDbEntity
  8
Texto
 62
7
100
AcDbLine
 10
88.610564
 20
149.899938
 30
0.0
 11
88.610564
 21
154.226470
 31
0.0
  0
LINE
  5
164
100
AcDbEntity
  8
Texto
 62
7
100
AcDbLine
 10
88.610564
 20
154.226470
 30
0.0
 11
86.910855
 21
154.226470
 31
0.0
  0
LINE
  5
165
100
AcDbEntity
  8
Texto
 62
7
100
AcDbLine
 10
86.910855
 20
154.226470
 30
0.0
 11
86.910855
 21
153.144837
 31
0.0
  0
SPLINE
  5
166
100
AcDbEntity
  8
Texto
 62
7
100
AcDbSpline
 70
0
 71
3
 72
19
 73
15
 74
13
 40
0.000000
 40
0.000000
 40
0.000000
 40
0.000000
 40
0.345093
 40
0.691960
 40
1.035004
 40
1.940805
 40
2.804403
 40
3.815682
 40
4.824379
 40
5.668467
 40
6.555243
 40
6.936576
 40
7.317237
 40
7.677537
 40
7.677537
 40
7.677537
 40
7.677537
 10
87.281703
 20
152.333612
 30
0.0
 10
87.200515
 20
152.416317
 30
0.0
 10
87.037722
 20
152.582152
 30
0.0
 10
86.713652
 20
152.723352
 30
0.0
 10
86.186141
 20
152.800044
 30
0.0
 10
85.439868
 20
152.577456
 30
0.0
 10
84.959927
 20
151.715414
 30
0.0
 10
84.874723
 20
150.749763
 30
0.0
 10
84.945444
 20
149.795702
 30
0.0
 10
85.376171
 20
148.920090
 30
0.0
 10
86.129278
 20
148.695184
 30
0.0
 10
86.672706
 20
148.784659
 30
0.0
 10
87.021559
 20
148.942254
 30
0.0
 10
87.196590
 20
149.118770
 30
0.0
 10
87.281701
 20
149.204603
 30
0.0
 11
87.281703
 21
152.333612
 31
0.0
 11
87.024742
 21
152.563960
 31
0.0
 11
86.709408
 21
152.708464
 31
0.0
 11
86.370039
 21
152.758539
 31
0.0
 11
85.508739
 21
152.478116
 31
0.0
 11
85.042320
 21
151.751304
 31
0.0
 11
84.902108
 21
150.749793
 31
0.0
 11
85.022289
 21
149.748280
 31
0.0
 11
85.451509
 21
149.021469
 31
0.0
 11
86.292779
 21
148.741046
 31
0.0
 11
86.669348
 21
148.801137
 31
0.0
 11
87.013296
 21
148.964240
 31
0.0
 11
87.281701
 21
149.204603
 31
0.0
  0
LINE
  5
167
100
AcDbEntity
  8
Texto
 62
7
100
AcDbLine
 10
87.297153
 20
151.522387
 30
0.0
 11
87.297153
 21
149.977197
 31
0.0
  0
SPLINE
  5
168
100
AcDbEntity
  8
Texto
 62
7
100
AcDbSpline
 70
0
 71
3
 72
13
 73
9
 74
7
 40
0.000000
 40
0.000000
 40
0.000000
 40
0.000000
 40
0.482901
 40
0.848900
 40
1.199228
 40
1.405225
 40
1.569629
 40
1.695689
 40
1.695689
 40
1.695689
 40
1.695689
 10
86.292779
 20
150.749793
 30
0.0
 10
86.296866
 20
150.909549
 30
0.0
 10
86.304050
 20
151.190388
 30
0.0
 10
86.460546
 20
151.593480
 30
0.0
 10
86.787743
 20
151.696236
 30
0.0
 10
87.025950
 20
151.660849
 30
0.0
 10
87.182266
 20
151.600827
 30
0.0
 10
87.262383
 20
151.546127
 30
0.0
 10
87.297153
 20
151.522387
 30
0.0
 11
86.292779
 21
150.749793
 31
0.0
 11
86.338562
 21
151.230518
 31
0.0
 11
86.504527
 21
151.556725
 31
0.0
 11
86.833596
 21
151.676906
 31
0.0
 11
87.037904
 21
151.650581
 31
0.0
 11
87.190706
 21
151.589918
 31
0.0
 11
87.297153
 21
151.522387
 31
0.0
  0
LINE
  5
169
100
AcDbEntity
  8
Texto
 62
7
100
AcDbLine
 10
86.292779
 20
150.749793
 30
0.0
 11
86.292779
 21
150.749793
 31
0.0
  0
SPLINE
  5
16a
100
AcDbEntity
  8
Texto
 62
7
100
AcDbSpline
 70
0
 71
3
 72
13
 73
9
 74
7
 40
0.000000
 40
0.000000
 40
0.000000
 40
0.000000
 40
0.126063
 40
0.290465
 40
0.496461
 40
0.846790
 40
1.212789
 40
1.695690
 40
1.695690
 40
1.695690
 40
1.695690
 10
87.297153
 20
149.977197
 30
0.0
 10
87.262382
 20
149.953457
 30
0.0
 10
87.182265
 20
149.898757
 30
0.0
 10
87.025949
 20
149.838735
 30
0.0
 10
86.787742
 20
149.803349
 30
0.0
 10
86.460546
 20
149.906104
 30
0.0
 10
86.304050
 20
150.309197
 30
0.0
 10
86.296866
 20
150.590036
 30
0.0
 10
86.292779
 20
150.749793
 30
0.0
 11
87.297153
 21
149.977197
 31
0.0
 11
87.190704
 21
149.909665
 31
0.0
 11
87.037903
 21
149.849003
 31
0.0
 11
86.833596
 21
149.822678
 31
0.0
 11
86.504527
 21
149.942860
 31
0.0
 11
86.338562
 21
150.269067
 31
0.0
 11
86.292779
 21
150.749793
 31
0.0
  0
LINE
  5
16b
100
AcDbEntity
  8
Texto
 62
7
100
AcDbLine
 10
92.705309
 20
148.934194
 30
0.0
 11
92.550790
 21
149.977197
 31
0.0
  0
SPLINE
  5
16c
100
AcDbEntity
  8
Texto
 62
7
100
AcDbSpline
 70
0
 71
3
 72
19
 73
15
 74
13
 40
0.000000
 40
0.000000
 40
0.000000
 40
0.000000
 40
1.167551
 40
2.123370
 40
3.391916
 40
4.643906
 40
5.601214
 40
6.689462
 40
7.777710
 40
8.735018
 40
9.987008
 40
10.490872
 40
11.006421
 40
11.548948
 40
11.548948
 40
11.548948
 40
11.548948
 10
92.844376
 20
150.440754
 30
0.0
 10
92.893396
 20
150.830327
 30
0.0
 10
92.982545
 20
151.538825
 30
0.0
 10
92.417517
 20
152.664033
 30
0.0
 10
91.149844
 20
152.806858
 30
0.0
 10
89.970488
 20
152.682827
 30
0.0
 10
89.140395
 20
151.822218
 30
0.0
 10
89.038399
 20
150.749650
 30
0.0
 10
89.142093
 20
149.677903
 30
0.0
 10
89.963895
 20
148.814912
 30
0.0
 10
90.915401
 20
148.726876
 30
0.0
 10
91.667074
 20
148.750992
 30
0.0
 10
92.187288
 20
148.804679
 30
0.0
 10
92.529725
 20
148.890295
 30
0.0
 10
92.705309
 20
148.934194
 30
0.0
 11
92.844376
 21
150.440754
 31
0.0
 11
92.857538
 21
151.608231
 31
0.0
 11
92.388258
 21
152.440917
 31
0.0
 11
91.160119
 21
152.758539
 31
0.0
 11
89.932552
 21
152.512454
 31
0.0
 11
89.271554
 21
151.819980
 31
0.0
 11
89.074113
 21
150.749793
 31
0.0
 11
89.271554
 21
149.679605
 31
0.0
 11
89.932552
 21
148.987132
 31
0.0
 11
91.160119
 21
148.741046
 31
0.0
 11
91.663737
 21
148.756784
 31
0.0
 11
92.175939
 21
148.815444
 31
0.0
 11
92.705309
 21
148.934194
 31
0.0
  0
LINE
  5
16d
100
AcDbEntity
  8
Texto
 62
7
100
AcDbLine
 10
90.464784
 20
150.440754
 30
0.0
 11
92.844376
 21
150.440754
 31
0.0
  0
SPLINE
  5
16e
100
AcDbEntity
  8
Texto
 62
7
100
AcDbSpline
 70
0
 71
3
 72
13
 73
9
 74
7
 40
0.000000
 40
0.000000
 40
0.000000
 40
0.000000
 40
0.499291
 40
0.894207
 40
1.211595
 40
1.666116
 40
2.038146
 40
2.396179
 40
2.396179
 40
2.396179
 40
2.396179
 10
92.550790
 20
149.977197
 30
0.0
 10
92.389222
 20
149.936089
 30
0.0
 10
92.099862
 20
149.862467
 30
0.0
 10
91.696481
 20
149.826112
 30
0.0
 10
91.307657
 20
149.815697
 30
0.0
 10
90.925700
 20
149.855951
 30
0.0
 10
90.562023
 20
150.078789
 30
0.0
 10
90.496780
 20
150.321651
 30
0.0
 10
90.464784
 20
150.440754
 30
0.0
 11
92.550790
 21
149.977197
 31
0.0
 11
92.063483
 21
149.868461
 31
0.0
 11
91.670604
 21
149.828401
 31
0.0
 11
91.353268
 21
149.822678
 31
0.0
 11
90.904877
 21
149.897076
 31
0.0
 11
90.598987
 21
150.108825
 31
0.0
 11
90.464784
 21
150.440754
 31
0.0
  0
LINE
  5
16f
100
AcDbEntity
  8
Texto
 62
7
100
AcDbLine
 10
91.546417
 20
151.251979
 30
0.0
 11
90.464784
 21
151.251979
 31
0.0
  0
SPLINE
  5
170
100
AcDbEntity
  8
Texto
 62
7
100
AcDbSpline
 70
0
 71
3
 72
10
 73
6
 74
4
 40
0.000000
 40
0.000000
 40
0.000000
 40
0.000000
 40
0.323525
 40
0.544512
 40
0.812196
 40
0.812196
 40
0.812196
 40
0.812196
 10
91.082860
 20
151.754166
 30
0.0
 10
91.196354
 20
151.751938
 30
0.0
 10
91.387372
 20
151.748187
 30
0.0
 10
91.575703
 20
151.510895
 30
0.0
 10
91.556782
 20
151.343613
 30
0.0
 10
91.546417
 20
151.251979
 30
0.0
 11
91.082860
 21
151.754166
 31
0.0
 11
91.400482
 21
151.692644
 31
0.0
 11
91.537832
 21
151.519526
 31
0.0
 11
91.546417
 21
151.251979
 31
0.0
  0
LINE
  5
171
100
AcDbEntity
  8
Texto
 62
7
100
AcDbLine
 10
91.082860
 20
151.754166
 30
0.0
 11
91.082860
 21
151.754166
 31
0.0
  0
SPLINE
  5
172
100
AcDbEntity
  8
Texto
 62
7
100
AcDbSpline
 70
0
 71
3
 72
10
 73
6
 74
4
 40
0.000000
 40
0.000000
 40
0.000000
 40
0.000000
 40
0.301817
 40
0.569975
 40
0.880694
 40
0.880694
 40
0.880694
 40
0.880694
 10
90.464784
 20
151.251979
 30
0.0
 10
90.486548
 20
151.353283
 30
0.0
 10
90.527648
 20
151.544592
 30
0.0
 10
90.783252
 20
151.734421
 30
0.0
 10
90.978213
 20
151.747269
 30
0.0
 10
91.082860
 20
151.754166
 30
0.0
 11
90.464784
 21
151.251979
 31
0.0
 11
90.564935
 21
151.536695
 31
0.0
 11
90.776683
 21
151.701229
 31
0.0
 11
91.082860
 21
151.754166
 31
0.0
  0
LINE
  5
173
100
AcDbEntity
  8
Texto
 62
7
100
AcDbLine
 10
96.027475
 20
147.736672
 30
0.0
 11
96.877329
 21
147.736672
 31
0.0
  0
SPLINE
  5
174
100
AcDbEntity
  8
Texto
 62
7
100
AcDbSpline
 70
0
 71
3
 72
10
 73
6
 74
4
 40
0.000000
 40
0.000000
 40
0.000000
 40
0.000000
 40
1.293081
 40
2.637869
 40
4.035931
 40
4.035931
 40
4.035931
 40
4.035931
 10
94.636804
 20
151.445128
 30
0.0
 10
94.667726
 20
151.014048
 30
0.0
 10
94.730806
 20
150.134651
 30
0.0
 10
95.198648
 20
148.846574
 30
0.0
 10
95.747645
 20
148.111399
 30
0.0
 10
96.027475
 20
147.736672
 30
0.0
 11
94.636804
 21
151.445128
 31
0.0
 11
94.787889
 21
150.160903
 31
0.0
 11
95.248012
 21
148.897281
 31
0.0
 11
96.027475
 21
147.736672
 31
0.0
  0
LINE
  5
175
100
AcDbEntity
  8
Texto
 62
7
100
AcDbLine
 10
96.877329
 20
155.153584
 30
0.0
 11
96.027475
 21
155.153584
 31
0.0
  0
SPLINE
  5
176
100
AcDbEntity
  8
Texto
 62
7
100
AcDbSpline
 70
0
 71
3
 72
13
 73
9
 74
7
 40
0.000000
 40
0.000000
 40
0.000000
 40
0.000000
 40
1.382832
 40
2.636671
 40
3.858795
 40
5.108320
 40
6.373846
 40
7.720488
 40
7.720488
 40
7.720488
 40
7.720488
 10
96.877329
 20
147.736672
 30
0.0
 10
96.679250
 20
148.154120
 30
0.0
 10
96.301569
 20
148.950076
 30
0.0
 10
96.005659
 20
150.211512
 30
0.0
 10
95.922682
 20
151.454396
 30
0.0
 10
96.005946
 20
152.700395
 30
0.0
 10
96.292203
 20
153.966270
 30
0.0
 10
96.678291
 20
154.749703
 30
0.0
 10
96.877329
 20
155.153584
 30
0.0
 11
96.877329
 21
147.736672
 31
0.0
 11
96.331362
 21
149.007162
 31
0.0
 11
96.037776
 21
150.226145
 31
0.0
 11
95.950215
 21
151.445128
 31
0.0
 11
96.037776
 21
152.691581
 31
0.0
 11
96.331362
 21
153.922582
 31
0.0
 11
96.877329
 21
155.153584
 31
0.0
  0
LINE
  5
177
100
AcDbEntity
  8
Texto
 62
7
100
AcDbLine
 10
94.636804
 20
151.445128
 30
0.0
 11
94.636804
 21
151.445128
 31
0.0
  0
LINE
  5
178
100
AcDbEntity
  8
Texto
 62
7
100
AcDbLine
 10
99.426894
 20
148.818305
 30
0.0
 11
101.358380
 21
148.818305
 31
0.0
  0
LINE
  5
179
100
AcDbEntity
  8
Texto
 62
7
100
AcDbLine
 10
101.358380
 20
148.818305
 30
0.0
 11
101.358380
 21
149.899938
 31
0.0
  0
LINE
  5
17a
100
AcDbEntity
  8
Texto
 62
7
100
AcDbLine
 10
101.358380
 20
149.899938
 30
0.0
 11
101.049340
 21
149.899938
 31
0.0
  0
LINE
  5
17b
100
AcDbEntity
  8
Texto
 62
7
100
AcDbLine
 10
101.049340
 20
149.899938
 30
0.0
 11
101.049340
 21
151.197898
 31
0.0
  0
LINE
  5
17c
100
AcDbEntity
  8
Texto
 62
7
100
AcDbLine
 10
101.049340
 20
151.197898
 30
0.0
 11
101.049340
 21
151.522387
 31
0.0
  0
SPLINE
  5
17d
100
AcDbEntity
  8
Texto
 62
7
100
AcDbSpline
 70
0
 71
3
 72
10
 73
6
 74
4
 40
0.000000
 40
0.000000
 40
0.000000
 40
0.000000
 40
1.390943
 40
2.727668
 40
4.037802
 40
4.037802
 40
4.037802
 40
4.037802
 10
96.027475
 20
155.153584
 30
0.0
 10
95.747698
 20
154.781788
 30
0.0
 10
95.199049
 20
154.052687
 30
0.0
 10
94.727694
 20
152.764833
 30
0.0
 10
94.666897
 20
151.882074
 30
0.0
 10
94.636804
 20
151.445128
 30
0.0
 11
96.027475
 21
155.153584
 31
0.0
 11
95.248012
 21
154.001559
 31
0.0
 11
94.787889
 21
152.746521
 31
0.0
 11
94.636804
 21
151.445128
 31
0.0
  0
LINE
  5
17e
100
AcDbEntity
  8
Texto
 62
7
100
AcDbLine
 10
102.053720
 20
151.136090
 30
0.0
 11
102.053720
 21
149.899938
 31
0.0
  0
LINE
  5
17f
100
AcDbEntity
  8
Texto
 62
7
100
AcDbLine
 10
102.053720
 20
149.899938
 30
0.0
 11
101.744680
 21
149.899938
 31
0.0
  0
LINE
  5
180
100
AcDbEntity
  8
Texto
 62
7
100
AcDbLine
 10
101.744680
 20
149.899938
 30
0.0
 11
101.744680
 21
148.818305
 31
0.0
  0
LINE
  5
181
100
AcDbEntity
  8
Texto
 62
7
100
AcDbLine
 10
101.744680
 20
148.818305
 30
0.0
 11
103.753430
 21
148.818305
 31
0.0
  0
LINE
  5
182
100
AcDbEntity
  8
Texto
 62
7
100
AcDbLine
 10
103.753430
 20
148.818305
 30
0.0
 11
103.753430
 21
149.899938
 31
0.0
  0
LINE
  5
183
100
AcDbEntity
  8
Texto
 62
7
100
AcDbLine
 10
103.753430
 20
149.899938
 30
0.0
 11
103.367130
 21
149.899938
 31
0.0
  0
LINE
  5
184
100
AcDbEntity
  8
Texto
 62
7
100
AcDbLine
 10
103.367130
 20
149.899938
 30
0.0
 11
103.367130
 21
151.445128
 31
0.0
  0
SPLINE
  5
185
100
AcDbEntity
  8
Texto
 62
7
100
AcDbSpline
 70
0
 71
3
 72
13
 73
9
 74
7
 40
0.000000
 40
0.000000
 40
0.000000
 40
0.000000
 40
0.181879
 40
0.373747
 40
0.566828
 40
0.813265
 40
1.052159
 40
1.369794
 40
1.369794
 40
1.369794
 40
1.369794
 10
101.049340
 20
151.522387
 30
0.0
 10
101.104127
 20
151.548403
 30
0.0
 10
101.216709
 20
151.601862
 30
0.0
 10
101.397738
 20
151.659581
 30
0.0
 10
101.606583
 20
151.687941
 30
0.0
 10
101.840787
 20
151.649324
 30
0.0
 10
102.035428
 20
151.434491
 30
0.0
 10
102.047073
 20
151.244516
 30
0.0
 10
102.053720
 20
151.136090
 30
0.0
 11
101.049340
 21
151.522387
 31
0.0
 11
101.215306
 21
151.596786
 31
0.0
 11
101.398441
 21
151.654015
 31
0.0
 11
101.590160
 21
151.676906
 31
0.0
 11
101.830524
 21
151.622539
 31
0.0
 11
101.993629
 21
151.447989
 31
0.0
 11
102.053720
 21
151.136090
 31
0.0
  0
SPLINE
  5
186
100
AcDbEntity
  8
Texto
 62
7
100
AcDbSpline
 70
0
 71
3
 72
13
 73
9
 74
7
 40
0.000000
 40
0.000000
 40
0.000000
 40
0.000000
 40
0.695906
 40
1.297127
 40
1.962720
 40
2.415390
 40
2.883443
 40
3.448139
 40
3.448139
 40
3.448139
 40
3.448139
 10
103.367130
 20
151.445128
 30
0.0
 10
103.349124
 20
151.680269
 30
0.0
 10
103.315562
 20
152.118556
 30
0.0
 10
102.871824
 20
152.668547
 30
0.0
 10
102.276311
 20
152.784015
 30
0.0
 10
101.749628
 20
152.731279
 30
0.0
 10
101.279103
 20
152.539576
 30
0.0
 10
101.035661
 20
152.291539
 30
0.0
 10
100.902550
 20
152.155915
 30
0.0
 11
103.367130
 21
151.445128
 31
0.0
 11
103.238364
 21
152.129018
 31
0.0
 11
102.852066
 21
152.589713
 31
0.0
 11
102.208240
 21
152.758539
 31
0.0
 11
101.758130
 21
152.710467
 31
0.0
 11
101.326907
 21
152.528478
 31
0.0
 11
100.902550
 21
152.155915
 31
0.0
  0
LINE
  5
187
100
AcDbEntity
  8
Texto
 62
7
100
AcDbLine
 10
98.747010
 20
152.217723
 30
0.0
 11
98.731560
 21
152.217723
 31
0.0
  0
LINE
  5
188
100
AcDbEntity
  8
Texto
 62
7
100
AcDbLine
 10
98.731560
 20
152.217723
 30
0.0
 11
98.731560
 21
152.681280
 31
0.0
  0
LINE
  5
189
100
AcDbEntity
  8
Texto
 62
7
100
AcDbLine
 10
98.731560
 20
152.681280
 30
0.0
 11
97.031851
 21
152.681280
 31
0.0
  0
LINE
  5
18a
100
AcDbEntity
  8
Texto
 62
7
100
AcDbLine
 10
97.031851
 20
152.681280
 30
0.0
 11
97.031851
 21
151.599647
 31
0.0
  0
LINE
  5
18b
100
AcDbEntity
  8
Texto
 62
7
100
AcDbLine
 10
97.031851
 20
151.599647
 30
0.0
 11
97.418149
 21
151.599647
 31
0.0
  0
LINE
  5
18c
100
AcDbEntity
  8
Texto
 62
7
100
AcDbLine
 10
97.418149
 20
151.599647
 30
0.0
 11
97.418149
 21
149.899938
 31
0.0
  0
LINE
  5
18d
100
AcDbEntity
  8
Texto
 62
7
100
AcDbLine
 10
97.418149
 20
149.899938
 30
0.0
 11
97.031851
 21
149.899938
 31
0.0
  0
LINE
  5
18e
100
AcDbEntity
  8
Texto
 62
7
100
AcDbLine
 10
97.031851
 20
149.899938
 30
0.0
 11
97.031851
 21
148.818305
 31
0.0
  0
LINE
  5
18f
100
AcDbEntity
  8
Texto
 62
7
100
AcDbLine
 10
97.031851
 20
148.818305
 30
0.0
 11
99.040598
 21
148.818305
 31
0.0
  0
LINE
  5
190
100
AcDbEntity
  8
Texto
 62
7
100
AcDbLine
 10
99.040598
 20
148.818305
 30
0.0
 11
99.040598
 21
149.899938
 31
0.0
  0
LINE
  5
191
100
AcDbEntity
  8
Texto
 62
7
100
AcDbLine
 10
99.040598
 20
149.899938
 30
0.0
 11
98.731558
 21
149.899938
 31
0.0
  0
LINE
  5
192
100
AcDbEntity
  8
Texto
 62
7
100
AcDbLine
 10
98.731558
 20
149.899938
 30
0.0
 11
98.731558
 21
151.522387
 31
0.0
  0
SPLINE
  5
193
100
AcDbEntity
  8
Texto
 62
7
100
AcDbSpline
 70
0
 71
3
 72
16
 73
12
 74
10
 40
0.000000
 40
0.000000
 40
0.000000
 40
0.000000
 40
0.392820
 40
0.789505
 40
1.243369
 40
1.357073
 40
1.468058
 40
1.578394
 40
1.898361
 40
2.218151
 40
2.548784
 40
2.548784
 40
2.548784
 40
2.548784
 10
100.902550
 20
152.155915
 30
0.0
 10
100.835537
 20
152.270580
 30
0.0
 10
100.700852
 20
152.501036
 30
0.0
 10
100.327776
 20
152.718063
 30
0.0
 10
100.003729
 20
152.764575
 30
0.0
 10
99.777632
 20
152.755345
 30
0.0
 10
99.666728
 20
152.741279
 30
0.0
 10
99.489206
 20
152.708575
 30
0.0
 10
99.250561
 20
152.627961
 30
0.0
 10
98.970338
 20
152.458428
 30
0.0
 10
98.822275
 20
152.298845
 30
0.0
 10
98.747010
 20
152.217723
 30
0.0
 11
100.902550
 21
152.155915
 31
0.0
 11
100.676209
 21
152.476971
 31
0.0
 11
100.338271
 21
152.684714
 31
0.0
 11
99.890451
 21
152.758539
 31
0.0
 11
99.776851
 21
152.753675
 31
0.0
 11
99.666684
 21
152.740226
 31
0.0
 11
99.558235
 21
152.719909
 31
0.0
 11
99.255206
 21
152.617183
 31
0.0
 11
98.983081
 21
152.449215
 31
0.0
 11
98.747010
 21
152.217723
 31
0.0
  0
LINE
  5
194
100
AcDbEntity
  8
Texto
 62
7
100
AcDbLine
 10
99.735932
 20
151.190172
 30
0.0
 11
99.735932
 21
149.899938
 31
0.0
  0
LINE
  5
195
100
AcDbEntity
  8
Texto
 62
7
100
AcDbLine
 10
99.735932
 20
149.899938
 30
0.0
 11
99.426894
 21
149.899938
 31
0.0
  0
LINE
  5
196
100
AcDbEntity
  8
Texto
 62
7
100
AcDbLine
 10
99.426894
 20
149.899938
 30
0.0
 11
99.426894
 21
148.818305
 31
0.0
  0
LINE
  5
197
100
AcDbEntity
  8
Texto
 62
7
100
AcDbLine
 10
106.302980
 20
148.818305
 30
0.0
 11
108.234470
 21
148.818305
 31
0.0
  0
LINE
  5
198
100
AcDbEntity
  8
Texto
 62
7
100
AcDbLine
 10
108.234470
 20
148.818305
 30
0.0
 11
108.234470
 21
149.899938
 31
0.0
  0
LINE
  5
199
100
AcDbEntity
  8
Texto
 62
7
100
AcDbLine
 10
108.234470
 20
149.899938
 30
0.0
 11
107.925430
 21
149.899938
 31
0.0
  0
LINE
  5
19a
100
AcDbEntity
  8
Texto
 62
7
100
AcDbLine
 10
107.925430
 20
149.899938
 30
0.0
 11
107.925430
 21
151.197898
 31
0.0
  0
LINE
  5
19b
100
AcDbEntity
  8
Texto
 62
7
100
AcDbLine
 10
107.925430
 20
151.197898
 30
0.0
 11
107.925430
 21
151.522387
 31
0.0
  0
SPLINE
  5
19c
100
AcDbEntity
  8
Texto
 62
7
100
AcDbSpline
 70
0
 71
3
 72
13
 73
9
 74
7
 40
0.000000
 40
0.000000
 40
0.000000
 40
0.000000
 40
0.181878
 40
0.373745
 40
0.566825
 40
0.800354
 40
1.025574
 40
1.315829
 40
1.315829
 40
1.315829
 40
1.315829
 10
98.731558
 20
151.522387
 30
0.0
 10
98.786348
 20
151.548404
 30
0.0
 10
98.898938
 20
151.601865
 30
0.0
 10
99.079903
 20
151.659567
 30
0.0
 10
99.284735
 20
151.687416
 30
0.0
 10
99.508342
 20
151.651959
 30
0.0
 10
99.699301
 20
151.462953
 30
0.0
 10
99.722736
 20
151.288438
 30
0.0
 10
99.735932
 20
151.190172
 30
0.0
 11
98.731558
 21
151.522387
 31
0.0
 11
98.897523
 21
151.596786
 31
0.0
 11
99.080657
 21
151.654015
 31
0.0
 11
99.272375
 21
151.676906
 31
0.0
 11
99.500720
 21
151.627975
 31
0.0
 11
99.662106
 21
151.470881
 31
0.0
 11
99.735932
 21
151.190172
 31
0.0
  0
LINE
  5
19d
100
AcDbEntity
  8
Texto
 62
7
100
AcDbLine
 10
108.929810
 20
151.136090
 30
0.0
 11
108.929810
 21
149.899938
 31
0.0
  0
LINE
  5
19e
100
AcDbEntity
  8
Texto
 62
7
100
AcDbLine
 10
108.929810
 20
149.899938
 30
0.0
 11
108.620770
 21
149.899938
 31
0.0
  0
LINE
  5
19f
100
AcDbEntity
  8
Texto
 62
7
100
AcDbLine
 10
108.620770
 20
149.899938
 30
0.0
 11
108.620770
 21
148.818305
 31
0.0
  0
LINE
  5
1a0
100
AcDbEntity
  8
Texto
 62
7
100
AcDbLine
 10
108.620770
 20
148.818305
 30
0.0
 11
110.629520
 21
148.818305
 31
0.0
  0
LINE
  5
1a1
100
AcDbEntity
  8
Texto
 62
7
100
AcDbLine
 10
110.629520
 20
148.818305
 30
0.0
 11
110.629520
 21
149.899938
 31
0.0
  0
LINE
  5
1a2
100
AcDbEntity
  8
Texto
 62
7
100
AcDbLine
 10
110.629520
 20
149.899938
 30
0.0
 11
110.243220
 21
149.899938
 31
0.0
  0
LINE
  5
1a3
100
AcDbEntity
  8
Texto
 62
7
100
AcDbLine
 10
110.243220
 20
149.899938
 30
0.0
 11
110.243220
 21
151.445128
 31
0.0
  0
SPLINE
  5
1a4
100
AcDbEntity
  8
Texto
 62
7
100
AcDbSpline
 70
0
 71
3
 72
13
 73
9
 74
7
 40
0.000000
 40
0.000000
 40
0.000000
 40
0.000000
 40
0.181879
 40
0.373747
 40
0.566828
 40
0.813265
 40
1.052159
 40
1.369794
 40
1.369794
 40
1.369794
 40
1.369794
 10
107.925430
 20
151.522387
 30
0.0
 10
107.980217
 20
151.548403
 30
0.0
 10
108.092799
 20
151.601862
 30
0.0
 10
108.273828
 20
151.659581
 30
0.0
 10
108.482673
 20
151.687941
 30
0.0
 10
108.716877
 20
151.649324
 30
0.0
 10
108.911518
 20
151.434491
 30
0.0
 10
108.923163
 20
151.244516
 30
0.0
 10
108.929810
 20
151.136090
 30
0.0
 11
107.925430
 21
151.522387
 31
0.0
 11
108.091396
 21
151.596786
 31
0.0
 11
108.274531
 21
151.654015
 31
0.0
 11
108.466250
 21
151.676906
 31
0.0
 11
108.706614
 21
151.622539
 31
0.0
 11
108.869719
 21
151.447989
 31
0.0
 11
108.929810
 21
151.136090
 31
0.0
  0
SPLINE
  5
1a5
100
AcDbEntity
  8
Texto
 62
7
100
AcDbSpline
 70
0
 71
3
 72
13
 73
9
 74
7
 40
0.000000
 40
0.000000
 40
0.000000
 40
0.000000
 40
0.695906
 40
1.297127
 40
1.962720
 40
2.415390
 40
2.883443
 40
3.448139
 40
3.448139
 40
3.448139
 40
3.448139
 10
110.243220
 20
151.445128
 30
0.0
 10
110.225214
 20
151.680269
 30
0.0
 10
110.191652
 20
152.118556
 30
0.0
 10
109.747914
 20
152.668547
 30
0.0
 10
109.152401
 20
152.784015
 30
0.0
 10
108.625718
 20
152.731279
 30
0.0
 10
108.155193
 20
152.539576
 30
0.0
 10
107.911751
 20
152.291539
 30
0.0
 10
107.778640
 20
152.155915
 30
0.0
 11
110.243220
 21
151.445128
 31
0.0
 11
110.114454
 21
152.129018
 31
0.0
 11
109.728156
 21
152.589713
 31
0.0
 11
109.084330
 21
152.758539
 31
0.0
 11
108.634220
 21
152.710467
 31
0.0
 11
108.202997
 21
152.528478
 31
0.0
 11
107.778640
 21
152.155915
 31
0.0
  0
LINE
  5
1a6
100
AcDbEntity
  8
Texto
 62
7
100
AcDbLine
 10
105.623100
 20
152.217723
 30
0.0
 11
105.607700
 21
152.217723
 31
0.0
  0
LINE
  5
1a7
100
AcDbEntity
  8
Texto
 62
7
100
AcDbLine
 10
105.607700
 20
152.217723
 30
0.0
 11
105.607700
 21
152.681280
 31
0.0
  0
LINE
  5
1a8
100
AcDbEntity
  8
Texto
 62
7
100
AcDbLine
 10
105.607700
 20
152.681280
 30
0.0
 11
103.907990
 21
152.681280
 31
0.0
  0
LINE
  5
1a9
100
AcDbEntity
  8
Texto
 62
7
100
AcDbLine
 10
103.907990
 20
152.681280
 30
0.0
 11
103.907990
 21
151.599647
 31
0.0
  0
LINE
  5
1aa
100
AcDbEntity
  8
Texto
 62
7
100
AcDbLine
 10
103.907990
 20
151.599647
 30
0.0
 11
104.294290
 21
151.599647
 31
0.0
  0
LINE
  5
1ab
100
AcDbEntity
  8
Texto
 62
7
100
AcDbLine
 10
104.294290
 20
151.599647
 30
0.0
 11
104.294290
 21
149.899938
 31
0.0
  0
LINE
  5
1ac
100
AcDbEntity
  8
Texto
 62
7
100
AcDbLine
 10
104.294290
 20
149.899938
 30
0.0
 11
103.907990
 21
149.899938
 31
0.0
  0
LINE
  5
1ad
100
AcDbEntity
  8
Texto
 62
7
100
AcDbLine
 10
103.907990
 20
149.899938
 30
0.0
 11
103.907990
 21
148.818305
 31
0.0
  0
LINE
  5
1ae
100
AcDbEntity
  8
Texto
 62
7
100
AcDbLine
 10
103.907990
 20
148.818305
 30
0.0
 11
105.916740
 21
148.818305
 31
0.0
  0
LINE
  5
1af
100
AcDbEntity
  8
Texto
 62
7
100
AcDbLine
 10
105.916740
 20
148.818305
 30
0.0
 11
105.916740
 21
149.899938
 31
0.0
  0
LINE
  5
1b0
100
AcDbEntity
  8
Texto
 62
7
100
AcDbLine
 10
105.916740
 20
149.899938
 30
0.0
 11
105.607700
 21
149.899938
 31
0.0
  0
LINE
  5
1b1
100
AcDbEntity
  8
Texto
 62
7
100
AcDbLine
 10
105.607700
 20
149.899938
 30
0.0
 11
105.607700
 21
151.522387
 31
0.0
  0
SPLINE
  5
1b2
100
AcDbEntity
  8
Texto
 62
7
100
AcDbSpline
 70
0
 71
3
 72
16
 73
12
 74
10
 40
0.000000
 40
0.000000
 40
0.000000
 40
0.000000
 40
0.392820
 40
0.789505
 40
1.243370
 40
1.357074
 40
1.468056
 40
1.578389
 40
1.898360
 40
2.218149
 40
2.548783
 40
2.548783
 40
2.548783
 40
2.548783
 10
107.778640
 20
152.155915
 30
0.0
 10
107.711627
 20
152.270580
 30
0.0
 10
107.576942
 20
152.501036
 30
0.0
 10
107.203865
 20
152.718063
 30
0.0
 10
106.879818
 20
152.764575
 30
0.0
 10
106.653722
 20
152.755345
 30
0.0
 10
106.542820
 20
152.741279
 30
0.0
 10
106.365300
 20
152.708574
 30
0.0
 10
106.126654
 20
152.627962
 30
0.0
 10
105.846429
 20
152.458428
 30
0.0
 10
105.698366
 20
152.298845
 30
0.0
 10
105.623100
 20
152.217723
 30
0.0
 11
107.778640
 21
152.155915
 31
0.0
 11
107.552299
 21
152.476971
 31
0.0
 11
107.214361
 21
152.684714
 31
0.0
 11
106.766540
 21
152.758539
 31
0.0
 11
106.652940
 21
152.753675
 31
0.0
 11
106.542776
 21
152.740226
 31
0.0
 11
106.434330
 21
152.719909
 31
0.0
 11
106.131298
 21
152.617183
 31
0.0
 11
105.859172
 21
152.449215
 31
0.0
 11
105.623100
 21
152.217723
 31
0.0
  0
LINE
  5
1b3
100
AcDbEntity
  8
Texto
 62
7
100
AcDbLine
 10
106.612070
 20
151.190172
 30
0.0
 11
106.612070
 21
149.899938
 31
0.0
  0
LINE
  5
1b4
100
AcDbEntity
  8
Texto
 62
7
100
AcDbLine
 10
106.612070
 20
149.899938
 30
0.0
 11
106.303030
 21
149.899938
 31
0.0
  0
LINE
  5
1b5
100
AcDbEntity
  8
Texto
 62
7
100
AcDbLine
 10
106.303030
 20
149.899938
 30
0.0
 11
106.302980
 21
148.818305
 31
0.0
  0
LINE
  5
1b6
100
AcDbEntity
  8
Texto
 62
7
100
AcDbLine
 10
114.801530
 20
154.071951
 30
0.0
 11
113.642630
 21
154.071951
 31
0.0
  0
LINE
  5
1b7
100
AcDbEntity
  8
Texto
 62
7
100
AcDbLine
 10
113.642630
 20
154.071951
 30
0.0
 11
110.784030
 21
148.818305
 31
0.0
  0
LINE
  5
1b8
100
AcDbEntity
  8
Texto
 62
7
100
AcDbLine
 10
110.784030
 20
148.818305
 30
0.0
 11
111.942920
 21
148.818305
 31
0.0
  0
LINE
  5
1b9
100
AcDbEntity
  8
Texto
 62
7
100
AcDbLine
 10
111.942920
 20
148.818305
 30
0.0
 11
114.801530
 21
154.071951
 31
0.0
  0
LINE
  5
1ba
100
AcDbEntity
  8
Texto
 62
7
100
AcDbLine
 10
118.316840
 20
151.367868
 30
0.0
 11
118.316840
 21
152.565391
 31
0.0
  0
SPLINE
  5
1bb
100
AcDbEntity
  8
Texto
 62
7
100
AcDbSpline
 70
0
 71
3
 72
13
 73
9
 74
7
 40
0.000000
 40
0.000000
 40
0.000000
 40
0.000000
 40
0.181879
 40
0.373747
 40
0.566828
 40
0.800352
 40
1.025570
 40
1.315826
 40
1.315826
 40
1.315826
 40
1.315826
 10
105.607700
 20
151.522387
 30
0.0
 10
105.662491
 20
151.548404
 30
0.0
 10
105.775081
 20
151.601865
 30
0.0
 10
105.956047
 20
151.659567
 30
0.0
 10
106.160878
 20
151.687416
 30
0.0
 10
106.384484
 20
151.651958
 30
0.0
 10
106.575438
 20
151.462952
 30
0.0
 10
106.598874
 20
151.288438
 30
0.0
 10
106.612070
 20
151.190172
 30
0.0
 11
105.607700
 21
151.522387
 31
0.0
 11
105.773666
 21
151.596786
 31
0.0
 11
105.956801
 21
151.654015
 31
0.0
 11
106.148520
 21
151.676906
 31
0.0
 11
106.376860
 21
151.627975
 31
0.0
 11
106.538244
 21
151.470881
 31
0.0
 11
106.612070
 21
151.190172
 31
0.0
  0
LINE
  5
1bc
100
AcDbEntity
  8
Texto
 62
7
100
AcDbLine
 10
116.076310
 20
149.822679
 30
0.0
 11
116.076310
 21
150.131717
 31
0.0
  0
LINE
  5
1bd
100
AcDbEntity
  8
Texto
 62
7
100
AcDbLine
 10
116.076310
 20
150.131717
 30
0.0
 11
114.994680
 21
150.131717
 31
0.0
  0
LINE
  5
1be
100
AcDbEntity
  8
Texto
 62
7
100
AcDbLine
 10
114.994680
 20
150.131717
 30
0.0
 11
114.994680
 21
148.934194
 31
0.0
  0
SPLINE
  5
1bf
100
AcDbEntity
  8
Texto
 62
7
100
AcDbSpline
 70
0
 71
3
 72
25
 73
21
 74
19
 40
0.000000
 40
0.000000
 40
0.000000
 40
0.000000
 40
0.510956
 40
1.084343
 40
1.714336
 40
2.571862
 40
3.259210
 40
4.020165
 40
4.794814
 40
5.542616
 40
6.424056
 40
6.649541
 40
6.826795
 40
6.943093
 40
7.066578
 40
7.238595
 40
7.479438
 40
7.656875
 40
7.863808
 40
8.099081
 40
8.099081
 40
8.099081
 40
8.099081
 10
118.316840
 20
152.565391
 30
0.0
 10
118.150436
 20
152.602084
 30
0.0
 10
117.797297
 20
152.679955
 30
0.0
 10
117.227981
 20
152.742551
 30
0.0
 10
116.542618
 20
152.770528
 30
0.0
 10
115.809939
 20
152.727510
 30
0.0
 10
115.104198
 20
152.294056
 30
0.0
 10
114.927958
 20
151.515207
 30
0.0
 10
115.144379
 20
150.729605
 30
0.0
 10
115.874749
 20
150.291423
 30
0.0
 10
116.478957
 20
150.164777
 30
0.0
 10
116.900491
 20
150.098551
 30
0.0
 10
117.076056
 20
150.086603
 30
0.0
 10
117.188284
 20
149.961675
 30
0.0
 10
117.091763
 20
149.823117
 30
0.0
 10
116.911175
 20
149.792552
 30
0.0
 10
116.715766
 20
149.781483
 30
0.0
 10
116.507055
 20
149.786689
 30
0.0
 10
116.300802
 20
149.797503
 30
0.0
 10
116.154271
 20
149.813936
 30
0.0
 10
116.076310
 20
149.822679
 30
0.0
 11
118.316840
 21
152.565391
 31
0.0
 11
117.816083
 21
152.666973
 31
0.0
 11
117.246653
 21
152.734217
 31
0.0
 11
116.617130
 21
152.758539
 31
0.0
 11
115.767277
 21
152.644081
 31
0.0
 11
115.200706
 21
152.254922
 31
0.0
 11
114.994680
 21
151.522387
 31
0.0
 11
115.229321
 21
150.784130
 31
0.0
 11
115.841676
 21
150.354911
 31
0.0
 11
116.694390
 21
150.131717
 31
0.0
 11
116.917586
 21
150.099668
 31
0.0
 11
117.089274
 21
150.055602
 31
0.0
 11
117.157950
 21
149.961746
 31
0.0
 11
117.097859
 21
149.853868
 31
0.0
 11
116.934754
 21
149.799215
 31
0.0
 11
116.694390
 21
149.784049
 31
0.0
 11
116.516980
 21
149.787191
 31
0.0
 11
116.310380
 21
149.798917
 31
0.0
 11
116.076310
 21
149.822679
 31
0.0
  0
LINE
  5
1c0
100
AcDbEntity
  8
Texto
 62
7
100
AcDbLine
 10
117.235210
 20
151.676906
 30
0.0
 11
117.235210
 21
151.367868
 31
0.0
  0
LINE
  5
1c1
100
AcDbEntity
  8
Texto
 62
7
100
AcDbLine
 10
117.235210
 20
151.367868
 30
0.0
 11
118.316840
 21
151.367868
 31
0.0
  0
SPLINE
  5
1c2
100
AcDbEntity
  8
Texto
 62
7
100
AcDbSpline
 70
0
 71
3
 72
25
 73
21
 74
19
 40
0.000000
 40
0.000000
 40
0.000000
 40
0.000000
 40
0.550275
 40
1.197605
 40
1.867631
 40
2.728060
 40
3.437132
 40
4.217388
 40
5.029314
 40
5.815478
 40
6.580970
 40
6.831222
 40
6.978282
 40
7.074643
 40
7.184442
 40
7.326327
 40
7.529783
 40
7.687194
 40
7.867278
 40
8.072397
 40
8.072397
 40
8.072397
 40
8.072397
 10
114.994680
 20
148.934194
 30
0.0
 10
115.174437
 20
148.897223
 30
0.0
 10
115.565655
 20
148.816761
 30
0.0
 10
116.187177
 20
148.760202
 30
0.0
 10
116.909872
 20
148.724913
 30
0.0
 10
117.670027
 20
148.788237
 30
0.0
 10
118.354824
 20
149.268227
 30
0.0
 10
118.556871
 20
150.066920
 30
0.0
 10
118.251098
 20
150.883216
 30
0.0
 10
117.482130
 20
151.207204
 30
0.0
 10
116.896655
 20
151.326790
 30
0.0
 10
116.526449
 20
151.417836
 30
0.0
 10
116.354688
 20
151.447654
 30
0.0
 10
116.288451
 20
151.565084
 30
0.0
 10
116.355470
 20
151.683888
 30
0.0
 10
116.513842
 20
151.711131
 30
0.0
 10
116.678492
 20
151.717224
 30
0.0
 10
116.859512
 20
151.713189
 30
0.0
 10
117.039941
 20
151.701972
 30
0.0
 10
117.167360
 20
151.685616
 30
0.0
 10
117.235210
 20
151.676906
 30
0.0
 11
114.994680
 21
148.934194
 31
0.0
 11
115.535497
 21
148.832612
 31
0.0
 11
116.179326
 21
148.765368
 31
0.0
 11
116.848910
 21
148.741046
 31
0.0
 11
117.698763
 21
148.875535
 31
0.0
 11
118.265334
 21
149.301892
 31
0.0
 11
118.471360
 21
150.054457
 31
0.0
 11
118.166615
 21
150.807022
 31
0.0
 11
117.475572
 21
151.181873
 31
0.0
 11
116.733020
 21
151.367868
 31
0.0
 11
116.488937
 21
151.423095
 31
0.0
 11
116.351299
 21
151.474887
 31
0.0
 11
116.308090
 21
151.561017
 31
0.0
 11
116.356735
 21
151.659452
 31
0.0
 11
116.491225
 21
151.704663
 31
0.0
 11
116.694390
 21
151.715536
 31
0.0
 11
116.851769
 21
151.712388
 31
0.0
 11
117.031471
 21
151.700655
 31
0.0
 11
117.235210
 21
151.676906
 31
0.0
  0
LINE
  5
1c3
100
AcDbEntity
  8
Texto
 62
7
100
AcDbLine
 10
119.514360
 20
155.153583
 30
0.0
 11
118.664500
 21
155.153583
 31
0.0
  0
SPLINE
  5
1c4
100
AcDbEntity
  8
Texto
 62
7
100
AcDbSpline
 70
0
 71
3
 72
10
 73
6
 74
4
 40
0.000000
 40
0.000000
 40
0.000000
 40
0.000000
 40
1.310134
 40
2.646859
 40
4.037801
 40
4.037801
 40
4.037801
 40
4.037801
 10
120.905030
 20
151.445127
 30
0.0
 10
120.874937
 20
151.882073
 30
0.0
 10
120.814139
 20
152.764833
 30
0.0
 10
120.342783
 20
154.052686
 30
0.0
 10
119.794136
 20
154.781787
 30
0.0
 10
119.514360
 20
155.153583
 30
0.0
 11
120.905030
 21
151.445127
 31
0.0
 11
120.753944
 21
152.746521
 31
0.0
 11
120.293820
 21
154.001558
 31
0.0
 11
119.514360
 21
155.153583
 31
0.0
  0
LINE
  5
1c5
100
AcDbEntity
  8
Texto
 62
7
100
AcDbLine
 10
118.664500
 20
147.736671
 30
0.0
 11
119.514360
 21
147.736671
 31
0.0
  0
SPLINE
  5
1c6
100
AcDbEntity
  8
Texto
 62
7
100
AcDbSpline
 70
0
 71
3
 72
13
 73
9
 74
7
 40
0.000000
 40
0.000000
 40
0.000000
 40
0.000000
 40
1.346643
 40
2.612170
 40
3.861695
 40
5.083819
 40
6.337659
 40
7.720492
 40
7.720492
 40
7.720492
 40
7.720492
 10
118.664500
 20
155.153583
 30
0.0
 10
118.863539
 20
154.749703
 30
0.0
 10
119.249628
 20
153.966269
 30
0.0
 10
119.535888
 20
152.700394
 30
0.0
 10
119.619154
 20
151.454396
 30
0.0
 10
119.536175
 20
150.211511
 30
0.0
 10
119.240261
 20
148.950075
 30
0.0
 10
118.862579
 20
148.154119
 30
0.0
 10
118.664500
 20
147.736671
 30
0.0
 11
118.664500
 21
155.153583
 31
0.0
 11
119.210469
 21
153.922582
 31
0.0
 11
119.504058
 21
152.691581
 31
0.0
 11
119.591620
 21
151.445127
 31
0.0
 11
119.504058
 21
150.226144
 31
0.0
 11
119.210469
 21
149.007161
 31
0.0
 11
118.664500
 21
147.736671
 31
0.0
  0
LINE
  5
1c7
100
AcDbEntity
  8
Texto
 62
7
100
AcDbLine
 10
120.905030
 20
151.445127
 30
0.0
 11
120.905030
 21
151.445127
 31
0.0
  0
LINE
  5
1c8
100
AcDbEntity
  8
Texto
 62
7
100
AcDbLine
 10
154.071960
 20
104.108825
 30
0.0
 11
152.990330
 21
104.108825
 31
0.0
  0
LINE
  5
1c9
100
AcDbEntity
  8
Texto
 62
7
100
AcDbLine
 10
152.990330
 20
104.108825
 30
0.0
 11
152.990330
 21
103.722528
 31
0.0
  0
LINE
  5
1ca
100
AcDbEntity
  8
Texto
 62
7
100
AcDbLine
 10
152.990330
 20
103.722528
 30
0.0
 11
149.899950
 21
103.722528
 31
0.0
  0
LINE
  5
1cb
100
AcDbEntity
  8
Texto
 62
7
100
AcDbLine
 10
149.899950
 20
103.722528
 30
0.0
 11
149.899950
 21
104.108825
 31
0.0
  0
LINE
  5
1cc
100
AcDbEntity
  8
Texto
 62
7
100
AcDbLine
 10
149.899950
 20
104.108825
 30
0.0
 11
148.818310
 21
104.108825
 31
0.0
  0
LINE
  5
1cd
100
AcDbEntity
  8
Texto
 62
7
100
AcDbLine
 10
148.818310
 20
104.108825
 30
0.0
 11
148.818310
 21
101.945559
 31
0.0
  0
LINE
  5
1ce
100
AcDbEntity
  8
Texto
 62
7
100
AcDbLine
 10
148.818310
 20
101.945559
 30
0.0
 11
149.899950
 21
101.945559
 31
0.0
  0
LINE
  5
1cf
100
AcDbEntity
  8
Texto
 62
7
100
AcDbLine
 10
149.899950
 20
101.945559
 30
0.0
 11
149.899950
 21
102.331857
 31
0.0
  0
LINE
  5
1d0
100
AcDbEntity
  8
Texto
 62
7
100
AcDbLine
 10
149.899950
 20
102.331857
 30
0.0
 11
150.595280
 21
102.331857
 31
0.0
  0
LINE
  5
1d1
100
AcDbEntity
  8
Texto
 62
7
100
AcDbLine
 10
150.595280
 20
102.331857
 30
0.0
 11
150.595280
 21
101.404743
 31
0.0
  0
SPLINE
  5
1d2
100
AcDbEntity
  8
Texto
 62
7
100
AcDbSpline
 70
0
 71
3
 72
10
 73
6
 74
4
 40
0.000000
 40
0.000000
 40
0.000000
 40
0.000000
 40
1.398060
 40
2.742848
 40
4.035930
 40
4.035930
 40
4.035930
 40
4.035930
 10
119.514360
 20
147.736671
 30
0.0
 10
119.794189
 20
148.111398
 30
0.0
 10
120.343184
 20
148.846575
 30
0.0
 10
120.811027
 20
150.134650
 30
0.0
 10
120.874108
 20
151.014048
 30
0.0
 10
120.905030
 20
151.445127
 30
0.0
 11
119.514360
 21
147.736671
 31
0.0
 11
120.293820
 21
148.897281
 31
0.0
 11
120.753944
 21
150.160903
 31
0.0
 11
120.905030
 21
151.445127
 31
0.0
  0
LINE
  5
1d3
100
AcDbEntity
  8
Texto
 62
7
100
AcDbLine
 10
154.071960
 20
101.404743
 30
0.0
 11
154.071960
 21
104.108825
 31
0.0
  0
LINE
  5
1d4
100
AcDbEntity
  8
Texto
 62
7
100
AcDbLine
 10
152.990330
 20
102.331857
 30
0.0
 11
152.990330
 21
101.559262
 31
0.0
  0
SPLINE
  5
1d5
100
AcDbEntity
  8
Texto
 62
7
100
AcDbSpline
 70
0
 71
3
 72
13
 73
9
 74
7
 40
0.000000
 40
0.000000
 40
0.000000
 40
0.000000
 40
1.016018
 40
1.881649
 40
2.856128
 40
3.830606
 40
4.696237
 40
5.712256
 40
5.712256
 40
5.712256
 40
5.712256
 10
150.595280
 20
101.404743
 30
0.0
 10
150.622739
 20
101.059119
 30
0.0
 10
150.673594
 20
100.419029
 30
0.0
 10
151.372165
 20
99.661325
 30
0.0
 10
152.333620
 20
99.491833
 30
0.0
 10
153.295075
 20
99.661325
 30
0.0
 10
153.993646
 20
100.419029
 30
0.0
 10
154.044501
 20
101.059119
 30
0.0
 10
154.071960
 20
101.404743
 30
0.0
 11
150.595280
 21
101.404743
 31
0.0
 11
150.797014
 21
100.408954
 31
0.0
 11
151.385046
 21
99.773709
 31
0.0
 11
152.333620
 21
99.550515
 31
0.0
 11
153.282194
 21
99.773709
 31
0.0
 11
153.870226
 21
100.408954
 31
0.0
 11
154.071960
 21
101.404743
 31
0.0
  0
LINE
  5
1d6
100
AcDbEntity
  8
Texto
 62
7
100
AcDbLine
 10
151.676920
 20
101.559262
 30
0.0
 11
151.676920
 21
102.331857
 31
0.0
  0
LINE
  5
1d7
100
AcDbEntity
  8
Texto
 62
7
100
AcDbLine
 10
151.676920
 20
102.331857
 30
0.0
 11
152.990330
 21
102.331857
 31
0.0
  0
SPLINE
  5
1d8
100
AcDbEntity
  8
Texto
 62
7
100
AcDbSpline
 70
0
 71
3
 72
13
 73
9
 74
7
 40
0.000000
 40
0.000000
 40
0.000000
 40
0.000000
 40
0.295334
 40
0.594799
 40
0.979820
 40
1.364838
 40
1.664300
 40
1.959633
 40
1.959633
 40
1.959633
 40
1.959633
 10
152.990330
 20
101.559262
 30
0.0
 10
152.978936
 20
101.458872
 30
0.0
 10
152.955990
 20
101.256687
 30
0.0
 10
152.697266
 20
101.014458
 30
0.0
 10
152.333621
 20
100.960330
 30
0.0
 10
151.969976
 20
101.014457
 30
0.0
 10
151.711258
 20
101.256688
 30
0.0
 10
151.688313
 20
101.458872
 30
0.0
 10
151.676920
 20
101.559262
 30
0.0
 11
152.990330
 21
101.559262
 31
0.0
 11
152.923085
 21
101.271685
 31
0.0
 11
152.709905
 21
101.061368
 31
0.0
 11
152.333620
 21
100.979816
 31
0.0
 11
151.957338
 21
101.061368
 31
0.0
 11
151.744162
 21
101.271685
 31
0.0
 11
151.676920
 21
101.559262
 31
0.0
  0
LINE
  5
1d9
100
AcDbEntity
  8
Texto
 62
7
100
AcDbLine
 10
151.676920
 20
97.580398
 30
0.0
 11
151.676920
 21
97.580398
 31
0.0
  0
SPLINE
  5
1da
100
AcDbEntity
  8
Texto
 62
7
100
AcDbSpline
 70
0
 71
3
 72
19
 73
15
 74
13
 40
0.000000
 40
0.000000
 40
0.000000
 40
0.000000
 40
0.367549
 40
0.724035
 40
1.241420
 40
1.758799
 40
2.115282
 40
2.482831
 40
2.850381
 40
3.206864
 40
3.724242
 40
4.241628
 40
4.598113
 40
4.965663
 40
4.965663
 40
4.965663
 40
4.965663
 10
151.676920
 20
97.580398
 30
0.0
 10
151.660942
 20
97.450364
 30
0.0
 10
151.629467
 20
97.194212
 30
0.0
 10
151.209033
 20
97.003071
 30
0.0
 10
150.750689
 20
96.999697
 30
0.0
 10
150.287579
 20
97.003071
 30
0.0
 10
149.877262
 20
97.194213
 30
0.0
 10
149.794987
 20
97.580398
 30
0.0
 10
149.877262
 20
97.966583
 30
0.0
 10
150.287579
 20
98.157725
 30
0.0
 10
150.750689
 20
98.161099
 30
0.0
 10
151.209033
 20
98.157725
 30
0.0
 10
151.629467
 20
97.966584
 30
0.0
 10
151.660942
 20
97.710432
 30
0.0
 10
151.676920
 20
97.580398
 30
0.0
 11
151.676920
 21
97.580398
 31
0.0
 11
151.573907
 21
97.227580
 31
0.0
 11
151.264867
 21
97.049883
 31
0.0
 11
150.749800
 21
97.000952
 31
0.0
 11
150.234740
 21
97.049883
 31
0.0
 11
149.925703
 21
97.227580
 31
0.0
 11
149.822690
 21
97.580398
 31
0.0
 11
149.925703
 21
97.933216
 31
0.0
 11
150.234740
 21
98.110913
 31
0.0
 11
150.749800
 21
98.159844
 31
0.0
 11
151.264867
 21
98.110913
 31
0.0
 11
151.573907
 21
97.933216
 31
0.0
 11
151.676920
 21
97.580398
 31
0.0
  0
LINE
  5
1db
100
AcDbEntity
  8
Texto
 62
7
100
AcDbLine
 10
148.741050
 20
97.580398
 30
0.0
 11
148.741050
 21
97.580398
 31
0.0
  0
SPLINE
  5
1dc
100
AcDbEntity
  8
Texto
 62
7
100
AcDbSpline
 70
0
 71
3
 72
19
 73
15
 74
13
 40
0.000000
 40
0.000000
 40
0.000000
 40
0.000000
 40
1.172140
 40
2.108955
 40
3.196433
 40
4.283910
 40
5.220726
 40
6.392865
 40
7.565005
 40
8.501821
 40
9.589298
 40
10.676775
 40
11.613591
 40
12.785731
 40
12.785731
 40
12.785731
 40
12.785731
 10
148.741050
 20
97.580398
 30
0.0
 10
148.768969
 20
97.175838
 30
0.0
 10
148.819203
 20
96.447940
 30
0.0
 10
149.691811
 20
95.676694
 30
0.0
 10
150.748965
 20
95.574603
 30
0.0
 10
151.810898
 20
95.676694
 30
0.0
 10
152.670140
 20
96.447940
 30
0.0
 10
152.807687
 20
97.580398
 30
0.0
 10
152.670140
 20
98.712856
 30
0.0
 10
151.810898
 20
99.484102
 30
0.0
 10
150.748965
 20
99.586193
 30
0.0
 10
149.691811
 20
99.484102
 30
0.0
 10
148.819203
 20
98.712856
 30
0.0
 10
148.768969
 20
97.984958
 30
0.0
 10
148.741050
 20
97.580398
 30
0.0
 11
148.741050
 21
97.580398
 31
0.0
 11
148.987137
 21
96.434382
 31
0.0
 11
149.679613
 21
95.803430
 31
0.0
 11
150.749800
 21
95.610281
 31
0.0
 11
151.819987
 21
95.803430
 31
0.0
 11
152.512463
 21
96.434382
 31
0.0
 11
152.758550
 21
97.580398
 31
0.0
 11
152.512463
 21
98.726414
 31
0.0
 11
151.819987
 21
99.357366
 31
0.0
 11
150.749800
 21
99.550515
 31
0.0
 11
149.679613
 21
99.357366
 31
0.0
 11
148.987137
 21
98.726414
 31
0.0
 11
148.741050
 21
97.580398
 31
0.0
  0
LINE
  5
1dd
100
AcDbEntity
  8
Texto
 62
7
100
AcDbLine
 10
148.818350
 20
92.867578
 30
0.0
 11
149.822730
 21
92.983468
 31
0.0
  0
SPLINE
  5
1de
100
AcDbEntity
  8
Texto
 62
7
100
AcDbSpline
 70
0
 71
3
 72
13
 73
9
 74
7
 40
0.000000
 40
0.000000
 40
0.000000
 40
0.000000
 40
0.654621
 40
1.227326
 40
2.008377
 40
2.290400
 40
2.616289
 40
2.901061
 40
2.901061
 40
2.901061
 40
2.901061
 10
149.907670
 20
95.069474
 30
0.0
 10
149.681657
 20
95.056929
 30
0.0
 10
149.257914
 20
95.033410
 30
0.0
 10
148.769504
 20
94.487184
 30
0.0
 10
148.732000
 20
93.920410
 30
0.0
 10
148.749753
 20
93.459872
 30
0.0
 10
148.771991
 20
93.162462
 30
0.0
 10
148.803607
 20
92.961359
 30
0.0
 10
148.818350
 20
92.867578
 30
0.0
 11
149.907670
 21
95.069474
 31
0.0
 11
149.265271
 21
94.943570
 31
0.0
 11
148.873536
 21
94.525796
 31
0.0
 11
148.741050
 21
93.756063
 31
0.0
 11
148.750780
 21
93.474209
 31
0.0
 11
148.777687
 21
93.149432
 31
0.0
 11
148.818350
 21
92.867578
 31
0.0
  0
LINE
  5
1df
100
AcDbEntity
  8
Texto
 62
7
100
AcDbLine
 10
150.139520
 20
93.756063
 30
0.0
 11
151.754240
 21
93.756063
 31
0.0
  0
LINE
  5
1e0
100
AcDbEntity
  8
Texto
 62
7
100
AcDbLine
 10
151.754240
 20
93.756063
 30
0.0
 11
151.754240
 21
92.906208
 31
0.0
  0
LINE
  5
1e1
100
AcDbEntity
  8
Texto
 62
7
100
AcDbLine
 10
151.754240
 20
92.906208
 30
0.0
 11
152.681360
 21
92.906208
 31
0.0
  0
LINE
  5
1e2
100
AcDbEntity
  8
Texto
 62
7
100
AcDbLine
 10
152.681360
 20
92.906208
 30
0.0
 11
152.681360
 21
93.756063
 31
0.0
  0
LINE
  5
1e3
100
AcDbEntity
  8
Texto
 62
7
100
AcDbLine
 10
152.681360
 20
93.756063
 30
0.0
 11
153.762990
 21
93.756063
 31
0.0
  0
LINE
  5
1e4
100
AcDbEntity
  8
Texto
 62
7
100
AcDbLine
 10
153.762990
 20
93.756063
 30
0.0
 11
153.762990
 21
94.914955
 31
0.0
  0
LINE
  5
1e5
100
AcDbEntity
  8
Texto
 62
7
100
AcDbLine
 10
153.762990
 20
94.914955
 30
0.0
 11
152.681360
 21
95.069474
 31
0.0
  0
LINE
  5
1e6
100
AcDbEntity
  8
Texto
 62
7
100
AcDbLine
 10
152.681360
 20
95.069474
 30
0.0
 11
152.604060
 21
95.533031
 31
0.0
  0
LINE
  5
1e7
100
AcDbEntity
  8
Texto
 62
7
100
AcDbLine
 10
152.604060
 20
95.533031
 30
0.0
 11
151.754200
 21
95.533031
 31
0.0
  0
LINE
  5
1e8
100
AcDbEntity
  8
Texto
 62
7
100
AcDbLine
 10
151.754200
 20
95.533031
 30
0.0
 11
151.754200
 21
95.069474
 31
0.0
  0
LINE
  5
1e9
100
AcDbEntity
  8
Texto
 62
7
100
AcDbLine
 10
151.754200
 20
95.069474
 30
0.0
 11
149.907670
 21
95.069474
 31
0.0
  0
SPLINE
  5
1ea
100
AcDbEntity
  8
Texto
 62
7
100
AcDbSpline
 70
0
 71
3
 72
13
 73
9
 74
7
 40
0.000000
 40
0.000000
 40
0.000000
 40
0.000000
 40
0.116248
 40
0.222970
 40
0.311808
 40
0.572526
 40
0.767928
 40
0.969762
 40
0.969762
 40
0.969762
 40
0.969762
 10
149.822730
 20
92.983468
 30
0.0
 10
149.815601
 20
93.021556
 30
0.0
 10
149.801928
 20
93.094611
 30
0.0
 10
149.788301
 20
93.197774
 30
0.0
 10
149.779819
 20
93.349593
 30
0.0
 10
149.796622
 20
93.533409
 30
0.0
 10
149.932253
 20
93.731486
 30
0.0
 10
150.069689
 20
93.747783
 30
0.0
 10
150.139520
 20
93.756063
 30
0.0
 11
149.822730
 21
92.983468
 31
0.0
 11
149.802411
 21
93.097926
 31
0.0
 11
149.788982
 21
93.203800
 31
0.0
 11
149.784130
 21
93.292506
 31
0.0
 11
149.824761
 21
93.550038
 31
0.0
 11
149.944369
 21
93.704557
 31
0.0
 11
150.139520
 21
93.756063
 31
0.0
  0
LINE
  5
1eb
100
AcDbEntity
  8
Texto
 62
7
100
AcDbLine
 10
148.934200
 20
89.159128
 30
0.0
 11
149.977210
 21
89.313647
 31
0.0
  0
SPLINE
  5
1ec
100
AcDbEntity
  8
Texto
 62
7
100
AcDbSpline
 70
0
 71
3
 72
19
 73
15
 74
13
 40
0.000000
 40
0.000000
 40
0.000000
 40
0.000000
 40
1.167552
 40
2.123373
 40
3.391919
 40
4.643910
 40
5.601219
 40
6.689467
 40
7.777715
 40
8.735024
 40
9.987015
 40
10.490878
 40
11.006427
 40
11.548957
 40
11.548957
 40
11.548957
 40
11.548957
 10
150.440760
 20
89.020061
 30
0.0
 10
150.830333
 20
88.971042
 30
0.0
 10
151.538832
 20
88.881892
 30
0.0
 10
152.664042
 20
89.446919
 30
0.0
 10
152.806870
 20
90.714593
 30
0.0
 10
152.682836
 20
91.893949
 30
0.0
 10
151.822225
 20
92.724042
 30
0.0
 10
150.749657
 20
92.826038
 30
0.0
 10
149.677911
 20
92.722343
 30
0.0
 10
148.814916
 20
91.900543
 30
0.0
 10
148.726884
 20
90.949036
 30
0.0
 10
148.750990
 20
90.197363
 30
0.0
 10
148.804665
 20
89.677146
 30
0.0
 10
148.890294
 20
89.334711
 30
0.0
 10
148.934200
 20
89.159128
 30
0.0
 11
150.440760
 21
89.020061
 31
0.0
 11
151.608237
 21
89.006899
 31
0.0
 11
152.440926
 21
89.476179
 31
0.0
 11
152.758550
 21
90.704318
 31
0.0
 11
152.512463
 21
91.931885
 31
0.0
 11
151.819987
 21
92.592883
 31
0.0
 11
150.749800
 21
92.790324
 31
0.0
 11
149.679613
 21
92.592883
 31
0.0
 11
148.987137
 21
91.931885
 31
0.0
 11
148.741050
 21
90.704318
 31
0.0
 11
148.756781
 21
90.200700
 31
0.0
 11
148.815435
 21
89.688498
 31
0.0
 11
148.934200
 21
89.159128
 31
0.0
  0
LINE
  5
1ed
100
AcDbEntity
  8
Texto
 62
7
100
AcDbLine
 10
150.440760
 20
91.399653
 30
0.0
 11
150.440760
 21
89.020061
 31
0.0
  0
SPLINE
  5
1ee
100
AcDbEntity
  8
Texto
 62
7
100
AcDbSpline
 70
0
 71
3
 72
13
 73
9
 74
7
 40
0.000000
 40
0.000000
 40
0.000000
 40
0.000000
 40
0.499291
 40
0.894207
 40
1.211595
 40
1.666117
 40
2.038146
 40
2.396174
 40
2.396174
 40
2.396174
 40
2.396174
 10
149.977210
 20
89.313647
 30
0.0
 10
149.936102
 20
89.475215
 30
0.0
 10
149.862479
 20
89.764575
 30
0.0
 10
149.826124
 20
90.167956
 30
0.0
 10
149.815709
 20
90.556780
 30
0.0
 10
149.855963
 20
90.938737
 30
0.0
 10
150.078798
 20
91.302413
 30
0.0
 10
150.321659
 20
91.367657
 30
0.0
 10
150.440760
 20
91.399653
 30
0.0
 11
149.977210
 21
89.313647
 31
0.0
 11
149.868474
 21
89.800954
 31
0.0
 11
149.828413
 21
90.193833
 31
0.0
 11
149.822690
 21
90.511169
 31
0.0
 11
149.897088
 21
90.959560
 31
0.0
 11
150.108835
 21
91.265451
 31
0.0
 11
150.440760
 21
91.399653
 31
0.0
  0
LINE
  5
1ef
100
AcDbEntity
  8
Texto
 62
7
100
AcDbLine
 10
151.251990
 20
90.318020
 30
0.0
 11
151.251990
 21
91.399653
 31
0.0
  0
SPLINE
  5
1f0
100
AcDbEntity
  8
Texto
 62
7
100
AcDbSpline
 70
0
 71
3
 72
10
 73
6
 74
4
 40
0.000000
 40
0.000000
 40
0.000000
 40
0.000000
 40
0.323525
 40
0.544509
 40
0.812192
 40
0.812192
 40
0.812192
 40
0.812192
 10
151.754170
 20
90.781577
 30
0.0
 10
151.751942
 20
90.668083
 30
0.0
 10
151.748193
 20
90.477067
 30
0.0
 10
151.510905
 20
90.288734
 30
0.0
 10
151.343624
 20
90.307655
 30
0.0
 10
151.251990
 20
90.318020
 30
0.0
 11
151.754170
 21
90.781577
 31
0.0
 11
151.692651
 21
90.463955
 31
0.0
 11
151.519536
 21
90.326605
 31
0.0
 11
151.251990
 21
90.318020
 31
0.0
  0
LINE
  5
1f1
100
AcDbEntity
  8
Texto
 62
7
100
AcDbLine
 10
151.754170
 20
90.781577
 30
0.0
 11
151.754170
 21
90.781577
 31
0.0
  0
LINE
  5
1f2
100
AcDbEntity
  8
Texto
 62
7
100
AcDbLine
 10
153.515690
 20
90.712047
 30
0.0
 11
153.144850
 21
90.171230
 31
0.0
  0
LINE
  5
1f3
100
AcDbEntity
  8
Texto
 62
7
100
AcDbLine
 10
153.144850
 20
90.171230
 30
0.0
 11
153.144850
 21
89.475895
 31
0.0
  0
LINE
  5
1f4
100
AcDbEntity
  8
Texto
 62
7
100
AcDbLine
 10
153.144850
 20
89.475895
 30
0.0
 11
154.226480
 21
90.325749
 31
0.0
  0
LINE
  5
1f5
100
AcDbEntity
  8
Texto
 62
7
100
AcDbLine
 10
154.226480
 20
90.325749
 30
0.0
 11
154.226480
 21
91.098344
 31
0.0
  0
LINE
  5
1f6
100
AcDbEntity
  8
Texto
 62
7
100
AcDbLine
 10
154.226480
 20
91.098344
 30
0.0
 11
153.144850
 21
91.948199
 31
0.0
  0
LINE
  5
1f7
100
AcDbEntity
  8
Texto
 62
7
100
AcDbLine
 10
153.144850
 20
91.948199
 30
0.0
 11
153.144850
 21
91.252863
 31
0.0
  0
LINE
  5
1f8
100
AcDbEntity
  8
Texto
 62
7
100
AcDbLine
 10
153.144850
 20
91.252863
 30
0.0
 11
153.515690
 21
90.712047
 31
0.0
  0
LINE
  5
1f9
100
AcDbEntity
  8
Texto
 62
7
100
AcDbLine
 10
148.818310
 20
86.377783
 30
0.0
 11
148.818310
 21
84.369036
 31
0.0
  0
LINE
  5
1fa
100
AcDbEntity
  8
Texto
 62
7
100
AcDbLine
 10
148.818310
 20
84.369036
 30
0.0
 11
149.899950
 21
84.369036
 31
0.0
  0
LINE
  5
1fb
100
AcDbEntity
  8
Texto
 62
7
100
AcDbLine
 10
149.899950
 20
84.369036
 30
0.0
 11
149.899950
 21
84.755334
 31
0.0
  0
LINE
  5
1fc
100
AcDbEntity
  8
Texto
 62
7
100
AcDbLine
 10
149.899950
 20
84.755334
 30
0.0
 11
151.445140
 21
84.755334
 31
0.0
  0
SPLINE
  5
1fd
100
AcDbEntity
  8
Texto
 62
7
100
AcDbSpline
 70
0
 71
3
 72
10
 73
6
 74
4
 40
0.000000
 40
0.000000
 40
0.000000
 40
0.000000
 40
0.301816
 40
0.569972
 40
0.880690
 40
0.880690
 40
0.880690
 40
0.880690
 10
151.251990
 20
91.399653
 30
0.0
 10
151.353293
 20
91.377889
 30
0.0
 10
151.544602
 20
91.336790
 30
0.0
 10
151.734427
 20
91.081184
 30
0.0
 10
151.747274
 20
90.886224
 30
0.0
 10
151.754170
 20
90.781577
 30
0.0
 11
151.251990
 21
91.399653
 31
0.0
 11
151.536705
 21
91.299502
 31
0.0
 11
151.701235
 21
91.087754
 31
0.0
 11
151.754170
 21
90.781577
 31
0.0
  0
LINE
  5
1fe
100
AcDbEntity
  8
Texto
 62
7
100
AcDbLine
 10
152.217730
 20
87.057667
 30
0.0
 11
152.217730
 21
87.073117
 31
0.0
  0
LINE
  5
1ff
100
AcDbEntity
  8
Texto
 62
7
100
AcDbLine
 10
152.217730
 20
87.073117
 30
0.0
 11
152.681290
 21
87.073117
 31
0.0
  0
LINE
  5
200
100
AcDbEntity
  8
Texto
 62
7
100
AcDbLine
 10
152.681290
 20
87.073117
 30
0.0
 11
152.681290
 21
88.772826
 31
0.0
  0
LINE
  5
201
100
AcDbEntity
  8
Texto
 62
7
100
AcDbLine
 10
152.681290
 20
88.772826
 30
0.0
 11
151.599660
 21
88.772826
 31
0.0
  0
LINE
  5
202
100
AcDbEntity
  8
Texto
 62
7
100
AcDbLine
 10
151.599660
 20
88.772826
 30
0.0
 11
151.599660
 21
88.386528
 31
0.0
  0
LINE
  5
203
100
AcDbEntity
  8
Texto
 62
7
100
AcDbLine
 10
151.599660
 20
88.386528
 30
0.0
 11
149.899950
 21
88.386528
 31
0.0
  0
LINE
  5
204
100
AcDbEntity
  8
Texto
 62
7
100
AcDbLine
 10
149.899950
 20
88.386528
 30
0.0
 11
149.899950
 21
88.772826
 31
0.0
  0
LINE
  5
205
100
AcDbEntity
  8
Texto
 62
7
100
AcDbLine
 10
149.899950
 20
88.772826
 30
0.0
 11
148.818310
 21
88.772826
 31
0.0
  0
LINE
  5
206
100
AcDbEntity
  8
Texto
 62
7
100
AcDbLine
 10
148.818310
 20
88.772826
 30
0.0
 11
148.818310
 21
86.764079
 31
0.0
  0
LINE
  5
207
100
AcDbEntity
  8
Texto
 62
7
100
AcDbLine
 10
148.818310
 20
86.764079
 30
0.0
 11
149.899950
 21
86.764079
 31
0.0
  0
LINE
  5
208
100
AcDbEntity
  8
Texto
 62
7
100
AcDbLine
 10
149.899950
 20
86.764079
 30
0.0
 11
149.899950
 21
87.073117
 31
0.0
  0
LINE
  5
209
100
AcDbEntity
  8
Texto
 62
7
100
AcDbLine
 10
149.899950
 20
87.073117
 30
0.0
 11
151.522400
 21
87.073117
 31
0.0
  0
SPLINE
  5
20a
100
AcDbEntity
  8
Texto
 62
7
100
AcDbSpline
 70
0
 71
3
 72
13
 73
9
 74
7
 40
0.000000
 40
0.000000
 40
0.000000
 40
0.000000
 40
0.695904
 40
1.297124
 40
1.962721
 40
2.404461
 40
2.828354
 40
3.266292
 40
3.266292
 40
3.266292
 40
3.266292
 10
151.445140
 20
84.755334
 30
0.0
 10
151.680463
 20
84.773344
 30
0.0
 10
152.119091
 20
84.806914
 30
0.0
 10
152.666710
 20
85.250595
 30
0.0
 10
152.789975
 20
85.842533
 30
0.0
 10
152.718359
 20
86.350597
 30
0.0
 10
152.530594
 20
86.753859
 30
0.0
 10
152.323145
 20
86.955303
 30
0.0
 10
152.217730
 20
87.057667
 30
0.0
 11
151.445140
 21
84.755334
 31
0.0
 11
152.129027
 21
84.884100
 31
0.0
 11
152.589723
 21
85.270397
 31
0.0
 11
152.758550
 21
85.914226
 31
0.0
 11
152.695597
 21
86.351458
 31
0.0
 11
152.512463
 21
86.733749
 31
0.0
 11
152.217730
 21
87.057667
 31
0.0
  0
LINE
  5
20b
100
AcDbEntity
  8
Texto
 62
7
100
AcDbLine
 10
151.136100
 20
86.068743
 30
0.0
 11
149.899950
 21
86.068743
 31
0.0
  0
LINE
  5
20c
100
AcDbEntity
  8
Texto
 62
7
100
AcDbLine
 10
149.899950
 20
86.068743
 30
0.0
 11
149.899950
 21
86.377780
 31
0.0
  0
LINE
  5
20d
100
AcDbEntity
  8
Texto
 62
7
100
AcDbLine
 10
149.899950
 20
86.377780
 30
0.0
 11
148.818310
 21
86.377783
 31
0.0
  0
LINE
  5
20e
100
AcDbEntity
  8
Texto
 62
7
100
AcDbLine
 10
151.367880
 20
80.815101
 30
0.0
 11
152.565400
 21
80.815101
 31
0.0
  0
SPLINE
  5
20f
100
AcDbEntity
  8
Texto
 62
7
100
AcDbSpline
 70
0
 71
3
 72
13
 73
9
 74
7
 40
0.000000
 40
0.000000
 40
0.000000
 40
0.000000
 40
0.181885
 40
0.373750
 40
0.566829
 40
0.830037
 40
1.063155
 40
1.379281
 40
1.379281
 40
1.379281
 40
1.379281
 10
151.522400
 20
87.073117
 30
0.0
 10
151.548389
 20
87.018342
 30
0.0
 10
151.601794
 20
86.905786
 30
0.0
 10
151.660043
 20
86.724586
 30
0.0
 10
151.686789
 20
86.510910
 30
0.0
 10
151.656380
 20
86.269039
 30
0.0
 10
151.431370
 20
86.078792
 30
0.0
 10
151.243964
 20
86.072414
 30
0.0
 10
151.136100
 20
86.068743
 30
0.0
 11
151.522400
 21
87.073117
 31
0.0
 11
151.596816
 21
86.907152
 31
0.0
 11
151.654037
 21
86.724018
 31
0.0
 11
151.676920
 21
86.532300
 31
0.0
 11
151.622552
 21
86.274768
 31
0.0
 11
151.448001
 21
86.120249
 31
0.0
 11
151.136100
 21
86.068743
 31
0.0
  0
LINE
  5
210
100
AcDbEntity
  8
Texto
 62
7
100
AcDbLine
 10
148.934200
 20
80.815101
 30
0.0
 11
149.977210
 21
81.046880
 31
0.0
  0
SPLINE
  5
211
100
AcDbEntity
  8
Texto
 62
7
100
AcDbSpline
 70
0
 71
3
 72
19
 73
15
 74
13
 40
0.000000
 40
0.000000
 40
0.000000
 40
0.000000
 40
0.466175
 40
0.926090
 40
1.407431
 40
2.676260
 40
3.627663
 40
4.714386
 40
5.801109
 40
6.752511
 40
8.021341
 40
8.502682
 40
8.962598
 40
9.428769
 40
9.428769
 40
9.428769
 40
9.428769
 10
152.565400
 20
80.815101
 30
0.0
 10
152.601405
 20
80.966244
 30
0.0
 10
152.672932
 20
81.266500
 30
0.0
 10
152.743055
 20
81.732080
 30
0.0
 10
152.776854
 20
82.463714
 30
0.0
 10
152.690408
 20
83.414193
 30
0.0
 10
151.819381
 20
84.233962
 30
0.0
 10
150.749800
 20
84.322607
 30
0.0
 10
149.680219
 20
84.233962
 30
0.0
 10
148.809194
 20
83.414193
 30
0.0
 10
148.722741
 20
82.463714
 30
0.0
 10
148.756553
 20
81.732079
 30
0.0
 10
148.826693
 20
81.266503
 30
0.0
 10
148.898203
 20
80.966244
 30
0.0
 10
148.934200
 20
80.815101
 30
0.0
 11
152.565400
 21
80.815101
 31
0.0
 11
152.666983
 21
81.270074
 31
0.0
 11
152.734227
 21
81.725047
 31
0.0
 11
152.758550
 21
82.205772
 31
0.0
 11
152.512463
 21
83.450509
 31
0.0
 11
151.819987
 21
84.102922
 31
0.0
 11
150.749800
 21
84.291779
 31
0.0
 11
149.679613
 21
84.102922
 31
0.0
 11
148.987137
 21
83.450509
 31
0.0
 11
148.741050
 21
82.205772
 31
0.0
 11
148.765381
 21
81.725047
 31
0.0
 11
148.832635
 21
81.270074
 31
0.0
 11
148.934200
 21
80.815101
 31
0.0
  0
LINE
  5
212
100
AcDbEntity
  8
Texto
 62
7
100
AcDbLine
 10
151.668920
 20
81.896734
 30
0.0
 11
151.367610
 21
81.896734
 31
0.0
  0
LINE
  5
213
100
AcDbEntity
  8
Texto
 62
7
100
AcDbLine
 10
151.367610
 20
81.896734
 30
0.0
 11
151.367880
 21
80.815101
 31
0.0
  0
LINE
  5
214
100
AcDbEntity
  8
Texto
 62
7
100
AcDbLine
 10
151.599660
 20
80.660586
 30
0.0
 11
151.599660
 21
80.274289
 31
0.0
  0
LINE
  5
215
100
AcDbEntity
  8
Texto
 62
7
100
AcDbLine
 10
151.599660
 20
80.274289
 30
0.0
 11
149.899950
 21
80.274289
 31
0.0
  0
LINE
  5
216
100
AcDbEntity
  8
Texto
 62
7
100
AcDbLine
 10
149.899950
 20
80.274289
 30
0.0
 11
149.899950
 21
80.660586
 31
0.0
  0
LINE
  5
217
100
AcDbEntity
  8
Texto
 62
7
100
AcDbLine
 10
149.899950
 20
80.660586
 30
0.0
 11
148.818310
 21
80.660586
 31
0.0
  0
LINE
  5
218
100
AcDbEntity
  8
Texto
 62
7
100
AcDbLine
 10
148.818310
 20
80.660586
 30
0.0
 11
148.818310
 21
78.574580
 31
0.0
  0
LINE
  5
219
100
AcDbEntity
  8
Texto
 62
7
100
AcDbLine
 10
148.818310
 20
78.574580
 30
0.0
 11
149.899950
 21
78.574580
 31
0.0
  0
LINE
  5
21a
100
AcDbEntity
  8
Texto
 62
7
100
AcDbLine
 10
149.899950
 20
78.574580
 30
0.0
 11
149.899950
 21
78.960877
 31
0.0
  0
LINE
  5
21b
100
AcDbEntity
  8
Texto
 62
7
100
AcDbLine
 10
149.899950
 20
78.960877
 30
0.0
 11
152.681290
 21
78.960877
 31
0.0
  0
LINE
  5
21c
100
AcDbEntity
  8
Texto
 62
7
100
AcDbLine
 10
152.681290
 20
78.960877
 30
0.0
 11
152.681290
 21
80.660586
 31
0.0
  0
LINE
  5
21d
100
AcDbEntity
  8
Texto
 62
7
100
AcDbLine
 10
152.681290
 20
80.660586
 30
0.0
 11
151.599660
 21
80.660586
 31
0.0
  0
LINE
  5
21e
100
AcDbEntity
  8
Texto
 62
7
100
AcDbLine
 10
154.226480
 20
80.274289
 30
0.0
 11
153.067590
 21
80.274289
 31
0.0
  0
LINE
  5
21f
100
AcDbEntity
  8
Texto
 62
7
100
AcDbLine
 10
153.067590
 20
80.274289
 30
0.0
 11
153.067590
 21
78.960877
 31
0.0
  0
LINE
  5
220
100
AcDbEntity
  8
Texto
 62
7
100
AcDbLine
 10
153.067590
 20
78.960877
 30
0.0
 11
154.226480
 21
78.960877
 31
0.0
  0
LINE
  5
221
100
AcDbEntity
  8
Texto
 62
7
100
AcDbLine
 10
154.226480
 20
78.960877
 30
0.0
 11
154.226480
 21
80.274289
 31
0.0
  0
LINE
  5
222
100
AcDbEntity
  8
Texto
 62
7
100
AcDbLine
 10
151.367880
 20
77.145274
 30
0.0
 11
151.661460
 21
77.145274
 31
0.0
  0
SPLINE
  5
223
100
AcDbEntity
  8
Texto
 62
7
100
AcDbSpline
 70
0
 71
3
 72
19
 73
15
 74
13
 40
0.000000
 40
0.000000
 40
0.000000
 40
0.000000
 40
0.534818
 40
0.880522
 40
1.172448
 40
1.534725
 40
1.918343
 40
2.475796
 40
3.033256
 40
3.416875
 40
3.779153
 40
3.883310
 40
3.984055
 40
4.088365
 40
4.088365
 40
4.088365
 40
4.088365
 10
149.977210
 20
81.046880
 30
0.0
 10
149.937003
 20
81.220604
 30
0.0
 10
149.870807
 20
81.506621
 30
0.0
 10
149.825557
 20
81.896405
 30
0.0
 10
149.813274
 20
82.226796
 30
0.0
 10
149.868655
 20
82.587418
 30
0.0
 10
150.242034
 20
82.875340
 30
0.0
 10
150.749605
 20
82.916422
 30
0.0
 10
151.258236
 20
82.875171
 30
0.0
 10
151.629431
 20
82.587848
 30
0.0
 10
151.680085
 20
82.290971
 30
0.0
 10
151.676499
 20
82.102860
 30
0.0
 10
151.675397
 20
81.999645
 30
0.0
 10
151.671104
 20
81.931433
 30
0.0
 10
151.668920
 20
81.896734
 30
0.0
 11
149.977210
 21
81.046880
 31
0.0
 11
149.868474
 21
81.570528
 31
0.0
 11
149.828413
 21
81.913903
 31
0.0
 11
149.822690
 21
82.205772
 31
0.0
 11
149.908534
 21
82.557732
 31
0.0
 11
150.200403
 21
82.806680
 31
0.0
 11
150.749800
 21
82.901108
 31
0.0
 11
151.299204
 21
82.806680
 31
0.0
 11
151.591076
 21
82.557732
 31
0.0
 11
151.676920
 21
82.205772
 31
0.0
 11
151.676624
 21
82.101615
 31
0.0
 11
151.674550
 21
82.000892
 31
0.0
 11
151.668920
 21
81.896734
 31
0.0
  0
LINE
  5
224
100
AcDbEntity
  8
Texto
 62
7
100
AcDbLine
 10
151.367920
 20
76.218160
 30
0.0
 11
151.213400
 21
76.218160
 31
0.0
  0
LINE
  5
225
100
AcDbEntity
  8
Texto
 62
7
100
AcDbLine
 10
151.213400
 20
76.218160
 30
0.0
 11
151.213400
 21
76.836236
 31
0.0
  0
SPLINE
  5
226
100
AcDbEntity
  8
Texto
 62
7
100
AcDbSpline
 70
0
 71
3
 72
13
 73
9
 74
7
 40
0.000000
 40
0.000000
 40
0.000000
 40
0.000000
 40
0.106145
 40
0.208743
 40
0.309491
 40
0.638407
 40
0.868275
 40
1.088977
 40
1.088977
 40
1.088977
 40
1.088977
 10
151.661460
 20
77.145274
 30
0.0
 10
151.664061
 20
77.109981
 30
0.0
 10
151.669176
 20
77.040573
 30
0.0
 10
151.675449
 20
76.937701
 30
0.0
 10
151.678347
 20
76.759478
 30
0.0
 10
151.677898
 20
76.548642
 30
0.0
 10
151.607024
 20
76.262262
 30
0.0
 10
151.446533
 20
76.232660
 30
0.0
 10
151.367920
 20
76.218160
 30
0.0
 11
151.661460
 21
77.145274
 31
0.0
 11
151.669034
 21
77.039400
 31
0.0
 11
151.674719
 21
76.936959
 31
0.0
 11
151.676960
 21
76.836236
 31
0.0
 11
151.660359
 21
76.507740
 31
0.0
 11
151.575081
 21
76.294275
 31
0.0
 11
151.367920
 21
76.218160
 31
0.0
  0
LINE
  5
227
100
AcDbEntity
  8
Texto
 62
7
100
AcDbLine
 10
149.204650
 20
76.233612
 30
0.0
 11
149.204650
 21
76.218162
 31
0.0
  0
LINE
  5
228
100
AcDbEntity
  8
Texto
 62
7
100
AcDbLine
 10
149.204650
 20
76.218162
 30
0.0
 11
148.818350
 21
76.218162
 31
0.0
  0
LINE
  5
229
100
AcDbEntity
  8
Texto
 62
7
100
AcDbLine
 10
148.818350
 20
76.218162
 30
0.0
 11
148.818350
 21
74.518453
 31
0.0
  0
LINE
  5
22a
100
AcDbEntity
  8
Texto
 62
7
100
AcDbLine
 10
148.818350
 20
74.518453
 30
0.0
 11
149.899990
 21
74.518453
 31
0.0
  0
LINE
  5
22b
100
AcDbEntity
  8
Texto
 62
7
100
AcDbLine
 10
149.899990
 20
74.518453
 30
0.0
 11
149.899990
 21
74.904750
 31
0.0
  0
LINE
  5
22c
100
AcDbEntity
  8
Texto
 62
7
100
AcDbLine
 10
149.899990
 20
74.904750
 30
0.0
 11
151.445180
 21
74.904750
 31
0.0
  0
SPLINE
  5
22d
100
AcDbEntity
  8
Texto
 62
7
100
AcDbSpline
 70
0
 71
3
 72
16
 73
12
 74
10
 40
0.000000
 40
0.000000
 40
0.000000
 40
0.000000
 40
0.701641
 40
1.443497
 40
2.267462
 40
2.947922
 40
3.535220
 40
4.155942
 40
4.578015
 40
4.962401
 40
5.354226
 40
5.354226
 40
5.354226
 40
5.354226
 10
151.213400
 20
76.836236
 30
0.0
 10
151.197666
 20
77.069373
 30
0.0
 10
151.165296
 20
77.549010
 30
0.0
 10
150.804265
 20
78.275326
 30
0.0
 10
150.022553
 20
78.524324
 30
0.0
 10
149.316120
 20
78.378214
 30
0.0
 10
148.826877
 20
77.923704
 30
0.0
 10
148.714871
 20
77.363923
 30
0.0
 10
148.770804
 20
76.889609
 30
0.0
 10
148.927969
 20
76.511932
 30
0.0
 10
149.111835
 20
76.326976
 30
0.0
 10
149.204650
 20
76.233612
 30
0.0
 11
151.213400
 21
76.836236
 31
0.0
 11
151.119543
 21
77.531571
 31
0.0
 11
150.750987
 21
78.175400
 31
0.0
 11
149.977250
 21
78.458685
 31
0.0
 11
149.313386
 21
78.309317
 31
0.0
 11
148.889887
 21
77.902417
 31
0.0
 11
148.741090
 21
77.299793
 31
0.0
 11
148.792597
 21
76.880875
 31
0.0
 11
148.947117
 21
76.528915
 31
0.0
 11
149.204650
 21
76.233612
 31
0.0
  0
LINE
  5
22e
100
AcDbEntity
  8
Texto
 62
7
100
AcDbLine
 10
152.565440
 20
78.226909
 30
0.0
 11
151.367920
 21
78.226909
 31
0.0
  0
LINE
  5
22f
100
AcDbEntity
  8
Texto
 62
7
100
AcDbLine
 10
151.367920
 20
78.226909
 30
0.0
 11
151.367880
 21
77.145274
 31
0.0
  0
SPLINE
  5
230
100
AcDbEntity
  8
Texto
 62
7
100
AcDbSpline
 70
0
 71
3
 72
13
 73
9
 74
7
 40
0.000000
 40
0.000000
 40
0.000000
 40
0.000000
 40
0.842674
 40
1.517597
 40
2.407443
 40
2.943090
 40
3.525005
 40
4.120332
 40
4.120332
 40
4.120332
 40
4.120332
 10
151.445180
 20
74.904750
 30
0.0
 10
151.743096
 20
74.922607
 30
0.0
 10
152.279622
 20
74.954767
 30
0.0
 10
152.757671
 20
75.701839
 30
0.0
 10
152.766700
 20
76.410371
 30
0.0
 10
152.740519
 20
77.077942
 30
0.0
 10
152.672384
 20
77.645824
 30
0.0
 10
152.601358
 20
78.031748
 30
0.0
 10
152.565440
 20
78.226909
 30
0.0
 11
151.445180
 21
74.904750
 31
0.0
 11
152.266418
 21
75.093607
 31
0.0
 11
152.658439
 21
75.643008
 31
0.0
 11
152.758590
 21
76.527200
 31
0.0
 11
152.734259
 21
77.062294
 31
0.0
 11
152.667005
 21
77.640309
 31
0.0
 11
152.565440
 21
78.226909
 31
0.0
  0
LINE
  5
231
100
AcDbEntity
  8
Texto
 62
7
100
AcDbLine
 10
150.440760
 20
76.627635
 30
0.0
 11
150.440760
 21
76.218160
 31
0.0
  0
LINE
  5
232
100
AcDbEntity
  8
Texto
 62
7
100
AcDbLine
 10
150.440760
 20
76.218160
 30
0.0
 11
149.899950
 21
76.218160
 31
0.0
  0
SPLINE
  5
233
100
AcDbEntity
  8
Texto
 62
7
100
AcDbSpline
 70
0
 71
3
 72
16
 73
12
 74
10
 40
0.000000
 40
0.000000
 40
0.000000
 40
0.000000
 40
0.167926
 40
0.367518
 40
0.568936
 40
0.740417
 40
0.926203
 40
1.146562
 40
1.404810
 40
1.622112
 40
1.859677
 40
1.859677
 40
1.859677
 40
1.859677
 10
149.899950
 20
76.218160
 30
0.0
 10
149.871875
 20
76.266849
 30
0.0
 10
149.810431
 20
76.373408
 30
0.0
 10
149.762665
 20
76.558607
 30
0.0
 10
149.736404
 20
76.748775
 30
0.0
 10
149.764178
 20
76.935674
 30
0.0
 10
149.877234
 20
77.107252
 30
0.0
 10
150.103678
 20
77.167619
 30
0.0
 10
150.356883
 20
77.101197
 30
0.0
 10
150.443300
 20
76.856630
 30
0.0
 10
150.441631
 20
76.706200
 30
0.0
 10
150.440760
 20
76.627635
 30
0.0
 11
149.899950
 21
76.218160
 31
0.0
 11
149.822111
 21
76.366956
 31
0.0
 11
149.766602
 21
76.558674
 31
0.0
 11
149.745430
 21
76.758976
 31
0.0
 11
149.775484
 21
76.927802
 31
0.0
 11
149.882799
 21
77.079460
 31
0.0
 11
150.093100
 21
77.145274
 31
0.0
 11
150.337750
 21
77.062578
 31
0.0
 11
150.427884
 21
76.864851
 31
0.0
 11
150.440760
 21
76.627635
 31
0.0
  0
LINE
  5
234
100
AcDbEntity
  8
Texto
 62
7
100
AcDbLine
 10
147.736680
 20
71.428070
 30
0.0
 11
147.736680
 21
70.578215
 31
0.0
  0
SPLINE
  5
235
100
AcDbEntity
  8
Texto
 62
7
100
AcDbSpline
 70
0
 71
3
 72
10
 73
6
 74
4
 40
0.000000
 40
0.000000
 40
0.000000
 40
0.000000
 40
1.293085
 40
2.637874
 40
4.035935
 40
4.035935
 40
4.035935
 40
4.035935
 10
151.445140
 20
72.818741
 30
0.0
 10
151.014059
 20
72.787819
 30
0.0
 10
150.134660
 20
72.724739
 30
0.0
 10
148.846582
 20
72.256898
 30
0.0
 10
148.111407
 20
71.707900
 30
0.0
 10
147.736680
 20
71.428070
 30
0.0
 11
151.445140
 21
72.818741
 31
0.0
 11
150.160912
 21
72.667656
 31
0.0
 11
148.897288
 21
72.207533
 31
0.0
 11
147.736680
 21
71.428070
 31
0.0
  0
LINE
  5
236
100
AcDbEntity
  8
Texto
 62
7
100
AcDbLine
 10
155.153590
 20
70.578215
 30
0.0
 11
155.153590
 21
71.428070
 31
0.0
  0
SPLINE
  5
237
100
AcDbEntity
  8
Texto
 62
7
100
AcDbSpline
 70
0
 71
3
 72
13
 73
9
 74
7
 40
0.000000
 40
0.000000
 40
0.000000
 40
0.000000
 40
1.382831
 40
2.636670
 40
3.858799
 40
5.108323
 40
6.373847
 40
7.720487
 40
7.720487
 40
7.720487
 40
7.720487
 10
147.736680
 20
70.578215
 30
0.0
 10
148.154128
 20
70.776294
 30
0.0
 10
148.950083
 20
71.153976
 30
0.0
 10
150.211520
 20
71.449885
 30
0.0
 10
151.454406
 20
71.532862
 30
0.0
 10
152.700405
 20
71.449598
 30
0.0
 10
153.966279
 20
71.163341
 30
0.0
 10
154.749710
 20
70.777254
 30
0.0
 10
155.153590
 20
70.578215
 30
0.0
 11
147.736680
 21
70.578215
 31
0.0
 11
149.007168
 21
71.124182
 31
0.0
 11
150.226152
 21
71.417768
 31
0.0
 11
151.445140
 21
71.505329
 31
0.0
 11
152.691592
 21
71.417768
 31
0.0
 11
153.922591
 21
71.124182
 31
0.0
 11
155.153590
 21
70.578215
 31
0.0
  0
LINE
  5
238
100
AcDbEntity
  8
Texto
 62
7
100
AcDbLine
 10
151.445140
 20
72.818741
 30
0.0
 11
151.445140
 21
72.818741
 31
0.0
  0
LINE
  5
239
100
AcDbEntity
  8
Texto
 62
7
100
AcDbLine
 10
154.071960
 20
65.710868
 30
0.0
 11
154.071960
 21
66.560722
 31
0.0
  0
LINE
  5
23a
100
AcDbEntity
  8
Texto
 62
7
100
AcDbLine
 10
154.071960
 20
66.560722
 30
0.0
 11
148.818310
 21
69.419324
 31
0.0
  0
LINE
  5
23b
100
AcDbEntity
  8
Texto
 62
7
100
AcDbLine
 10
148.818310
 20
69.419324
 30
0.0
 11
148.818310
 21
68.569469
 31
0.0
  0
LINE
  5
23c
100
AcDbEntity
  8
Texto
 62
7
100
AcDbLine
 10
148.818310
 20
68.569469
 30
0.0
 11
154.071960
 21
65.710868
 31
0.0
  0
SPLINE
  5
23d
100
AcDbEntity
  8
Texto
 62
7
100
AcDbSpline
 70
0
 71
3
 72
10
 73
6
 74
4
 40
0.000000
 40
0.000000
 40
0.000000
 40
0.000000
 40
1.390942
 40
2.727666
 40
4.037797
 40
4.037797
 40
4.037797
 40
4.037797
 10
155.153590
 20
71.428070
 30
0.0
 10
154.781794
 20
71.707847
 30
0.0
 10
154.052695
 20
72.256496
 30
0.0
 10
152.764843
 20
72.727851
 30
0.0
 10
151.882085
 20
72.788648
 30
0.0
 10
151.445140
 20
72.818741
 30
0.0
 11
155.153590
 21
71.428070
 31
0.0
 11
154.001567
 21
72.207533
 31
0.0
 11
152.746530
 21
72.667656
 31
0.0
 11
151.445140
 21
72.818741
 31
0.0
  0
LINE
  5
23e
100
AcDbEntity
  8
Texto
 62
7
100
AcDbLine
 10
151.769630
 20
69.110286
 30
0.0
 11
151.769630
 21
69.110286
 31
0.0
  0
SPLINE
  5
23f
100
AcDbEntity
  8
Texto
 62
7
100
AcDbSpline
 70
0
 71
3
 72
19
 73
15
 74
13
 40
0.000000
 40
0.000000
 40
0.000000
 40
0.000000
 40
0.653338
 40
1.218841
 40
1.867132
 40
2.515429
 40
3.080934
 40
3.734272
 40
4.387610
 40
4.953114
 40
5.601412
 40
6.249702
 40
6.815205
 40
7.468543
 40
7.468543
 40
7.468543
 40
7.468543
 10
151.769630
 20
69.110286
 30
0.0
 10
151.790744
 20
68.886592
 30
0.0
 10
151.830133
 20
68.469276
 30
0.0
 10
152.327760
 20
68.011912
 30
0.0
 10
152.958723
 20
67.919070
 30
0.0
 10
153.593702
 20
68.011911
 30
0.0
 10
154.080283
 20
68.469275
 30
0.0
 10
154.186172
 20
69.110286
 30
0.0
 10
154.080284
 20
69.751297
 30
0.0
 10
153.593702
 20
70.208660
 30
0.0
 10
152.958723
 20
70.301501
 30
0.0
 10
152.327761
 20
70.208659
 30
0.0
 10
151.830133
 20
69.751296
 30
0.0
 10
151.790744
 20
69.333980
 30
0.0
 10
151.769630
 20
69.110286
 30
0.0
 11
151.769630
 21
69.110286
 31
0.0
 11
151.914992
 21
68.473324
 31
0.0
 11
152.324751
 21
68.083593
 31
0.0
 11
152.959420
 21
67.951393
 31
0.0
 11
153.594096
 21
68.083593
 31
0.0
 11
154.003858
 21
68.473324
 31
0.0
 11
154.149220
 21
69.110286
 31
0.0
 11
154.003858
 21
69.747247
 31
0.0
 11
153.594096
 21
70.136979
 31
0.0
 11
152.959420
 21
70.269178
 31
0.0
 11
152.324751
 21
70.136979
 31
0.0
 11
151.914992
 21
69.747247
 31
0.0
 11
151.769630
 21
69.110286
 31
0.0
  0
LINE
  5
240
100
AcDbEntity
  8
Texto
 62
7
100
AcDbLine
 10
152.418610
 20
69.110286
 30
0.0
 11
152.418610
 21
69.110286
 31
0.0
  0
SPLINE
  5
241
100
AcDbEntity
  8
Texto
 62
7
100
AcDbSpline
 70
0
 71
3
 72
19
 73
15
 74
13
 40
0.000000
 40
0.000000
 40
0.000000
 40
0.000000
 40
0.198324
 40
0.411651
 40
0.719336
 40
1.027028
 40
1.240357
 40
1.438681
 40
1.637007
 40
1.850336
 40
2.158027
 40
2.465712
 40
2.679039
 40
2.877364
 40
2.877364
 40
2.877364
 40
2.877364
 10
152.418610
 20
69.110286
 30
0.0
 10
152.429281
 20
69.178960
 30
0.0
 10
152.451430
 20
69.321504
 30
0.0
 10
152.684282
 20
69.447811
 30
0.0
 10
152.958741
 20
69.463942
 30
0.0
 10
153.236872
 20
69.447812
 30
0.0
 10
153.462120
 20
69.321505
 30
0.0
 10
153.518605
 20
69.110286
 30
0.0
 10
153.462120
 20
68.899066
 30
0.0
 10
153.236872
 20
68.772759
 30
0.0
 10
152.958741
 20
68.756629
 30
0.0
 10
152.684282
 20
68.772760
 30
0.0
 10
152.451430
 20
68.899067
 30
0.0
 10
152.429281
 20
69.041611
 30
0.0
 10
152.418610
 20
69.110286
 30
0.0
 11
152.418610
 21
69.110286
 31
0.0
 11
152.476411
 21
69.300001
 31
0.0
 11
152.654392
 21
69.417606
 31
0.0
 11
152.959420
 21
69.457953
 31
0.0
 11
153.264455
 21
69.417606
 31
0.0
 11
153.442439
 21
69.300001
 31
0.0
 11
153.500240
 21
69.110286
 31
0.0
 11
153.442439
 21
68.920571
 31
0.0
 11
153.264455
 21
68.802965
 31
0.0
 11
152.959420
 21
68.762618
 31
0.0
 11
152.654392
 21
68.802965
 31
0.0
 11
152.476411
 21
68.920571
 31
0.0
 11
152.418610
 21
69.110286
 31
0.0
  0
LINE
  5
242
100
AcDbEntity
  8
Texto
 62
7
100
AcDbLine
 10
148.741050
 20
66.019906
 30
0.0
 11
148.741050
 21
66.019906
 31
0.0
  0
SPLINE
  5
243
100
AcDbEntity
  8
Texto
 62
7
100
AcDbSpline
 70
0
 71
3
 72
19
 73
15
 74
13
 40
0.000000
 40
0.000000
 40
0.000000
 40
0.000000
 40
0.653338
 40
1.218845
 40
1.867138
 40
2.515436
 40
3.080941
 40
3.734279
 40
4.387616
 40
4.953121
 40
5.601418
 40
6.249712
 40
6.815218
 40
7.468556
 40
7.468556
 40
7.468556
 40
7.468556
 10
148.741050
 20
66.019906
 30
0.0
 10
148.762165
 20
65.796211
 30
0.0
 10
148.801556
 20
65.378895
 30
0.0
 10
149.299188
 20
64.921533
 30
0.0
 10
149.930152
 20
64.828690
 30
0.0
 10
150.565132
 20
64.921531
 30
0.0
 10
151.051713
 20
65.378895
 30
0.0
 10
151.157602
 20
66.019906
 30
0.0
 10
151.051713
 20
66.660917
 30
0.0
 10
150.565132
 20
67.118280
 30
0.0
 10
149.930152
 20
67.211121
 30
0.0
 10
149.299188
 20
67.118278
 30
0.0
 10
148.801556
 20
66.660917
 30
0.0
 10
148.762165
 20
66.243601
 30
0.0
 10
148.741050
 20
66.019906
 30
0.0
 11
148.741050
 21
66.019906
 31
0.0
 11
148.886414
 21
65.382944
 31
0.0
 11
149.296179
 21
64.993213
 31
0.0
 11
149.930850
 21
64.861013
 31
0.0
 11
150.565526
 21
64.993213
 31
0.0
 11
150.975288
 21
65.382944
 31
0.0
 11
151.120650
 21
66.019906
 31
0.0
 11
150.975288
 21
66.656867
 31
0.0
 11
150.565526
 21
67.046599
 31
0.0
 11
149.930850
 21
67.178798
 31
0.0
 11
149.296179
 21
67.046599
 31
0.0
 11
148.886414
 21
66.656867
 31
0.0
 11
148.741050
 21
66.019906
 31
0.0
  0
LINE
  5
244
100
AcDbEntity
  8
Texto
 62
7
100
AcDbLine
 10
149.390030
 20
66.019906
 30
0.0
 11
149.390030
 21
66.019906
 31
0.0
  0
SPLINE
  5
245
100
AcDbEntity
  8
Texto
 62
7
100
AcDbSpline
 70
0
 71
3
 72
19
 73
15
 74
13
 40
0.000000
 40
0.000000
 40
0.000000
 40
0.000000
 40
0.198325
 40
0.411654
 40
0.719346
 40
1.027037
 40
1.240367
 40
1.438692
 40
1.637017
 40
1.850346
 40
2.158038
 40
2.465729
 40
2.679059
 40
2.877384
 40
2.877384
 40
2.877384
 40
2.877384
 10
149.390030
 20
66.019906
 30
0.0
 10
149.400701
 20
66.088581
 30
0.0
 10
149.422850
 20
66.231125
 30
0.0
 10
149.655707
 20
66.357433
 30
0.0
 10
149.930168
 20
66.373563
 30
0.0
 10
150.208302
 20
66.357433
 30
0.0
 10
150.433550
 20
66.231125
 30
0.0
 10
150.490035
 20
66.019906
 30
0.0
 10
150.433550
 20
65.808686
 30
0.0
 10
150.208302
 20
65.682379
 30
0.0
 10
149.930168
 20
65.666249
 30
0.0
 10
149.655707
 20
65.682379
 30
0.0
 10
149.422850
 20
65.808686
 30
0.0
 10
149.400701
 20
65.951231
 30
0.0
 10
149.390030
 20
66.019906
 30
0.0
 11
149.390030
 21
66.019906
 31
0.0
 11
149.447831
 21
66.209621
 31
0.0
 11
149.625815
 21
66.327227
 31
0.0
 11
149.930850
 21
66.367574
 31
0.0
 11
150.235885
 21
66.327227
 31
0.0
 11
150.413869
 21
66.209621
 31
0.0
 11
150.471670
 21
66.019906
 31
0.0
 11
150.413869
 21
65.830191
 31
0.0
 11
150.235885
 21
65.712585
 31
0.0
 11
149.930850
 21
65.672238
 31
0.0
 11
149.625815
 21
65.712585
 31
0.0
 11
149.447831
 21
65.830191
 31
0.0
 11
149.390030
 21
66.019906
 31
0.0
  0
LINE
  5
246
100
AcDbEntity
  8
Texto
 62
7
100
AcDbLine
 10
155.153590
 20
63.702120
 30
0.0
 11
155.153590
 21
64.551974
 31
0.0
  0
SPLINE
  5
247
100
AcDbEntity
  8
Texto
 62
7
100
AcDbSpline
 70
0
 71
3
 72
10
 73
6
 74
4
 40
0.000000
 40
0.000000
 40
0.000000
 40
0.000000
 40
1.310131
 40
2.646855
 40
4.037797
 40
4.037797
 40
4.037797
 40
4.037797
 10
151.445140
 20
62.311449
 30
0.0
 10
151.882085
 20
62.341542
 30
0.0
 10
152.764843
 20
62.402339
 30
0.0
 10
154.052695
 20
62.873694
 30
0.0
 10
154.781794
 20
63.422343
 30
0.0
 10
155.153590
 20
63.702120
 30
0.0
 11
151.445140
 21
62.311449
 31
0.0
 11
152.746530
 21
62.462534
 31
0.0
 11
154.001567
 21
62.922657
 31
0.0
 11
155.153590
 21
63.702120
 31
0.0
  0
LINE
  5
248
100
AcDbEntity
  8
Texto
 62
7
100
AcDbLine
 10
147.736680
 20
64.551974
 30
0.0
 11
147.736680
 21
63.702120
 31
0.0
  0
SPLINE
  5
249
100
AcDbEntity
  8
Texto
 62
7
100
AcDbSpline
 70
0
 71
3
 72
13
 73
9
 74
7
 40
0.000000
 40
0.000000
 40
0.000000
 40
0.000000
 40
1.346640
 40
2.612164
 40
3.861688
 40
5.083817
 40
6.337656
 40
7.720487
 40
7.720487
 40
7.720487
 40
7.720487
 10
155.153590
 20
64.551974
 30
0.0
 10
154.749710
 20
64.352935
 30
0.0
 10
153.966279
 20
63.966848
 30
0.0
 10
152.700405
 20
63.680591
 30
0.0
 10
151.454406
 20
63.597327
 30
0.0
 10
150.211520
 20
63.680304
 30
0.0
 10
148.950083
 20
63.976213
 30
0.0
 10
148.154128
 20
64.353895
 30
0.0
 10
147.736680
 20
64.551974
 30
0.0
 11
155.153590
 21
64.551974
 31
0.0
 11
153.922591
 21
64.006007
 31
0.0
 11
152.691592
 21
63.712421
 31
0.0
 11
151.445140
 21
63.624860
 31
0.0
 11
150.226152
 21
63.712421
 31
0.0
 11
149.007168
 21
64.006007
 31
0.0
 11
147.736680
 21
64.551974
 31
0.0
  0
LINE
  5
24a
100
AcDbEntity
  8
Texto
 62
7
100
AcDbLine
 10
151.445140
 20
62.311449
 30
0.0
 11
151.445140
 21
62.311449
 31
0.0
  0
LINE
  5
24b
100
AcDbEntity
  8
Texto
 62
7
100
AcDbLine
 10
33.248672
 20
140.097152
 30
0.0
 11
33.248672
 21
144.176967
 31
0.0
  0
LINE
  5
24c
100
AcDbEntity
  8
Texto
 62
7
100
AcDbLine
 10
33.248672
 20
144.176967
 30
0.0
 11
32.649800
 21
144.176967
 31
0.0
  0
LINE
  5
24d
100
AcDbEntity
  8
Texto
 62
7
100
AcDbLine
 10
32.649800
 20
144.176967
 30
0.0
 11
31.227479
 21
143.840102
 31
0.0
  0
LINE
  5
24e
100
AcDbEntity
  8
Texto
 62
7
100
AcDbLine
 10
31.227479
 20
143.840102
 30
0.0
 11
31.227479
 21
142.941794
 31
0.0
  0
LINE
  5
24f
100
AcDbEntity
  8
Texto
 62
7
100
AcDbLine
 10
31.227479
 20
142.941794
 30
0.0
 11
31.976069
 21
142.941794
 31
0.0
  0
LINE
  5
250
100
AcDbEntity
  8
Texto
 62
7
100
AcDbLine
 10
31.976069
 20
142.941794
 30
0.0
 11
31.976069
 21
140.097152
 31
0.0
  0
LINE
  5
251
100
AcDbEntity
  8
Texto
 62
7
100
AcDbLine
 10
31.976069
 20
140.097152
 30
0.0
 11
31.227479
 21
140.097152
 31
0.0
  0
LINE
  5
252
100
AcDbEntity
  8
Texto
 62
7
100
AcDbLine
 10
31.227479
 20
140.097152
 30
0.0
 11
31.227479
 21
139.049126
 31
0.0
  0
LINE
  5
253
100
AcDbEntity
  8
Texto
 62
7
100
AcDbLine
 10
31.227479
 20
139.049126
 30
0.0
 11
33.997262
 21
139.049126
 31
0.0
  0
LINE
  5
254
100
AcDbEntity
  8
Texto
 62
7
100
AcDbLine
 10
33.997262
 20
139.049126
 30
0.0
 11
33.997262
 21
140.097152
 31
0.0
  0
LINE
  5
255
100
AcDbEntity
  8
Texto
 62
7
100
AcDbLine
 10
33.997262
 20
140.097152
 30
0.0
 11
33.248672
 21
140.097152
 31
0.0
  0
SPLINE
  5
256
100
AcDbEntity
  8
Texto
 62
7
100
AcDbSpline
 70
0
 71
3
 72
10
 73
6
 74
4
 40
0.000000
 40
0.000000
 40
0.000000
 40
0.000000
 40
1.398060
 40
2.742850
 40
4.035935
 40
4.035935
 40
4.035935
 40
4.035935
 10
147.736680
 20
63.702120
 30
0.0
 10
148.111407
 20
63.422290
 30
0.0
 10
148.846582
 20
62.873292
 30
0.0
 10
150.134660
 20
62.405451
 30
0.0
 10
151.014059
 20
62.342371
 30
0.0
 10
151.445140
 20
62.311449
 30
0.0
 11
147.736680
 21
63.702120
 31
0.0
 11
148.897288
 21
62.922657
 31
0.0
 11
150.160912
 21
62.462534
 31
0.0
 11
151.445140
 21
62.311449
 31
0.0
  0
LINE
  5
257
100
AcDbEntity
  8
Texto
 62
7
100
AcDbLine
 10
36.055877
 20
143.166371
 30
0.0
 11
36.055877
 21
143.166371
 31
0.0
  0
SPLINE
  5
258
100
AcDbEntity
  8
Texto
 62
7
100
AcDbSpline
 70
0
 71
3
 72
19
 73
15
 74
13
 40
0.000000
 40
0.000000
 40
0.000000
 40
0.000000
 40
0.425914
 40
0.992660
 40
1.808387
 40
2.643477
 40
3.244120
 40
3.679036
 40
4.113952
 40
4.714596
 40
5.549685
 40
6.365413
 40
6.932158
 40
7.358073
 40
7.358073
 40
7.358073
 40
7.358073
 10
36.055877
 20
143.166371
 30
0.0
 10
36.198865
 20
143.118580
 30
0.0
 10
36.532120
 20
143.007197
 30
0.0
 10
36.666834
 20
142.343653
 30
0.0
 10
36.708465
 20
141.630144
 30
0.0
 10
36.661791
 20
140.879964
 30
0.0
 10
36.539864
 20
140.244195
 30
0.0
 10
36.055877
 20
139.929098
 30
0.0
 10
35.571890
 20
140.244195
 30
0.0
 10
35.449962
 20
140.879964
 30
0.0
 10
35.403289
 20
141.630144
 30
0.0
 10
35.444918
 20
142.343653
 30
0.0
 10
35.579633
 20
143.007197
 30
0.0
 10
35.912889
 20
143.118581
 30
0.0
 10
36.055877
 20
143.166371
 30
0.0
 11
36.055877
 21
143.166371
 31
0.0
 11
36.437103
 21
142.976451
 31
0.0
 11
36.635341
 21
142.445506
 31
0.0
 11
36.692178
 21
141.631761
 31
0.0
 11
36.635341
 21
140.798608
 31
0.0
 11
36.437103
 21
140.231621
 31
0.0
 11
36.055877
 21
140.022293
 31
0.0
 11
35.674650
 21
140.231621
 31
0.0
 11
35.476412
 21
140.798608
 31
0.0
 11
35.419575
 21
141.631761
 31
0.0
 11
35.476412
 21
142.445506
 31
0.0
 11
35.674650
 21
142.976451
 31
0.0
 11
36.055877
 21
143.166371
 31
0.0
  0
LINE
  5
259
100
AcDbEntity
  8
Texto
 62
7
100
AcDbLine
 10
36.055877
 20
138.974267
 30
0.0
 11
36.055877
 21
138.974267
 31
0.0
  0
SPLINE
  5
25a
100
AcDbEntity
  8
Texto
 62
7
100
AcDbSpline
 70
0
 71
3
 72
19
 73
15
 74
13
 40
0.000000
 40
0.000000
 40
0.000000
 40
0.000000
 40
1.282541
 40
2.409170
 40
3.756068
 40
5.083692
 40
6.179930
 40
7.457090
 40
8.734250
 40
9.830489
 40
11.158113
 40
12.505011
 40
13.631640
 40
14.914182
 40
14.914182
 40
14.914182
 40
14.914182
 10
36.055877
 20
138.974267
 30
0.0
 10
36.506304
 20
139.031987
 30
0.0
 10
37.352401
 20
139.140411
 30
0.0
 10
38.002291
 20
140.362551
 30
0.0
 10
38.058582
 20
141.622495
 30
0.0
 10
38.007538
 20
142.888361
 30
0.0
 10
37.339492
 20
144.049752
 30
0.0
 10
36.055877
 20
144.302995
 30
0.0
 10
34.772262
 20
144.049752
 30
0.0
 10
34.104215
 20
142.888361
 30
0.0
 10
34.053171
 20
141.622495
 30
0.0
 10
34.109462
 20
140.362551
 30
0.0
 10
34.759352
 20
139.140410
 30
0.0
 10
35.605450
 20
139.031987
 30
0.0
 10
36.055877
 20
138.974267
 30
0.0
 11
36.055877
 21
138.974267
 31
0.0
 11
37.285505
 21
139.338858
 31
0.0
 11
37.882991
 21
140.294003
 31
0.0
 11
38.039640
 21
141.631761
 31
0.0
 11
37.882991
 21
142.950112
 31
0.0
 11
37.285505
 21
143.869214
 31
0.0
 11
36.055877
 21
144.214397
 31
0.0
 11
34.826248
 21
143.869214
 31
0.0
 11
34.228762
 21
142.950112
 31
0.0
 11
34.072113
 21
141.631761
 31
0.0
 11
34.228762
 21
140.294003
 31
0.0
 11
34.826248
 21
139.338858
 31
0.0
 11
36.055877
 21
138.974267
 31
0.0
  0
LINE
  5
25b
100
AcDbEntity
  8
Texto
 62
7
100
AcDbLine
 10
40.322837
 20
143.166371
 30
0.0
 11
40.322837
 21
143.166371
 31
0.0
  0
SPLINE
  5
25c
100
AcDbEntity
  8
Texto
 62
7
100
AcDbSpline
 70
0
 71
3
 72
19
 73
15
 74
13
 40
0.000000
 40
0.000000
 40
0.000000
 40
0.000000
 40
0.425915
 40
0.992660
 40
1.808388
 40
2.643477
 40
3.244121
 40
3.679037
 40
4.113953
 40
4.714596
 40
5.549686
 40
6.365413
 40
6.932159
 40
7.358073
 40
7.358073
 40
7.358073
 40
7.358073
 10
40.322837
 20
143.166371
 30
0.0
 10
40.465825
 20
143.118581
 30
0.0
 10
40.799081
 20
143.007197
 30
0.0
 10
40.933796
 20
142.343653
 30
0.0
 10
40.975425
 20
141.630144
 30
0.0
 10
40.928752
 20
140.879964
 30
0.0
 10
40.806824
 20
140.244195
 30
0.0
 10
40.322837
 20
139.929098
 30
0.0
 10
39.838850
 20
140.244195
 30
0.0
 10
39.716923
 20
140.879964
 30
0.0
 10
39.670249
 20
141.630144
 30
0.0
 10
39.711880
 20
142.343653
 30
0.0
 10
39.846594
 20
143.007197
 30
0.0
 10
40.179849
 20
143.118580
 30
0.0
 10
40.322837
 20
143.166371
 30
0.0
 11
40.322837
 21
143.166371
 31
0.0
 11
40.704064
 21
142.976451
 31
0.0
 11
40.902302
 21
142.445506
 31
0.0
 11
40.959139
 21
141.631761
 31
0.0
 11
40.902302
 21
140.798608
 31
0.0
 11
40.704064
 21
140.231621
 31
0.0
 11
40.322837
 21
140.022293
 31
0.0
 11
39.941611
 21
140.231621
 31
0.0
 11
39.743373
 21
140.798608
 31
0.0
 11
39.686536
 21
141.631761
 31
0.0
 11
39.743373
 21
142.445506
 31
0.0
 11
39.941611
 21
142.976451
 31
0.0
 11
40.322837
 21
143.166371
 31
0.0
  0
LINE
  5
25d
100
AcDbEntity
  8
Texto
 62
7
100
AcDbLine
 10
40.322837
 20
138.974267
 30
0.0
 11
40.322837
 21
138.974267
 31
0.0
  0
LINE
  5
25e
100
AcDbEntity
  8
Texto
 62
7
100
AcDbLine
 10
62.108061
 20
140.097152
 30
0.0
 11
62.108061
 21
144.176967
 31
0.0
  0
LINE
  5
25f
100
AcDbEntity
  8
Texto
 62
7
100
AcDbLine
 10
62.108061
 20
144.176967
 30
0.0
 11
61.509189
 21
144.176967
 31
0.0
  0
LINE
  5
260
100
AcDbEntity
  8
Texto
 62
7
100
AcDbLine
 10
61.509189
 20
144.176967
 30
0.0
 11
60.086868
 21
143.840102
 31
0.0
  0
LINE
  5
261
100
AcDbEntity
  8
Texto
 62
7
100
AcDbLine
 10
60.086868
 20
143.840102
 30
0.0
 11
60.086868
 21
142.941794
 31
0.0
  0
LINE
  5
262
100
AcDbEntity
  8
Texto
 62
7
100
AcDbLine
 10
60.086868
 20
142.941794
 30
0.0
 11
60.835458
 21
142.941794
 31
0.0
  0
LINE
  5
263
100
AcDbEntity
  8
Texto
 62
7
100
AcDbLine
 10
60.835458
 20
142.941794
 30
0.0
 11
60.835458
 21
140.097152
 31
0.0
  0
LINE
  5
264
100
AcDbEntity
  8
Texto
 62
7
100
AcDbLine
 10
60.835458
 20
140.097152
 30
0.0
 11
60.086868
 21
140.097152
 31
0.0
  0
LINE
  5
265
100
AcDbEntity
  8
Texto
 62
7
100
AcDbLine
 10
60.086868
 20
140.097152
 30
0.0
 11
60.086868
 21
139.049126
 31
0.0
  0
LINE
  5
266
100
AcDbEntity
  8
Texto
 62
7
100
AcDbLine
 10
60.086868
 20
139.049126
 30
0.0
 11
62.856651
 21
139.049126
 31
0.0
  0
LINE
  5
267
100
AcDbEntity
  8
Texto
 62
7
100
AcDbLine
 10
62.856651
 20
139.049126
 30
0.0
 11
62.856651
 21
140.097152
 31
0.0
  0
LINE
  5
268
100
AcDbEntity
  8
Texto
 62
7
100
AcDbLine
 10
62.856651
 20
140.097152
 30
0.0
 11
62.108061
 21
140.097152
 31
0.0
  0
LINE
  5
269
100
AcDbEntity
  8
Texto
 62
7
100
AcDbLine
 10
66.674455
 20
144.139538
 30
0.0
 11
63.230941
 21
144.139538
 31
0.0
  0
LINE
  5
26a
100
AcDbEntity
  8
Texto
 62
7
100
AcDbLine
 10
63.230941
 20
144.139538
 30
0.0
 11
63.156081
 21
141.220037
 31
0.0
  0
LINE
  5
26b
100
AcDbEntity
  8
Texto
 62
7
100
AcDbLine
 10
63.156081
 20
141.220037
 30
0.0
 11
64.054389
 21
141.145177
 31
0.0
  0
SPLINE
  5
26c
100
AcDbEntity
  8
Texto
 62
7
100
AcDbSpline
 70
0
 71
3
 72
19
 73
15
 74
13
 40
0.000000
 40
0.000000
 40
0.000000
 40
0.000000
 40
1.282542
 40
2.409170
 40
3.756068
 40
5.083693
 40
6.179931
 40
7.457092
 40
8.734251
 40
9.830489
 40
11.158114
 40
12.505012
 40
13.631641
 40
14.914182
 40
14.914182
 40
14.914182
 40
14.914182
 10
40.322837
 20
138.974267
 30
0.0
 10
40.773264
 20
139.031987
 30
0.0
 10
41.619362
 20
139.140410
 30
0.0
 10
42.269252
 20
140.362551
 30
0.0
 10
42.325543
 20
141.622495
 30
0.0
 10
42.274499
 20
142.888361
 30
0.0
 10
41.606452
 20
144.049752
 30
0.0
 10
40.322837
 20
144.302995
 30
0.0
 10
39.039222
 20
144.049752
 30
0.0
 10
38.371176
 20
142.888361
 30
0.0
 10
38.320132
 20
141.622495
 30
0.0
 10
38.376423
 20
140.362551
 30
0.0
 10
39.026313
 20
139.140411
 30
0.0
 10
39.872410
 20
139.031987
 30
0.0
 10
40.322837
 20
138.974267
 30
0.0
 11
40.322837
 21
138.974267
 31
0.0
 11
41.552466
 21
139.338858
 31
0.0
 11
42.149952
 21
140.294003
 31
0.0
 11
42.306601
 21
141.631761
 31
0.0
 11
42.149952
 21
142.950112
 31
0.0
 11
41.552466
 21
143.869214
 31
0.0
 11
40.322837
 21
144.214397
 31
0.0
 11
39.093209
 21
143.869214
 31
0.0
 11
38.495723
 21
142.950112
 31
0.0
 11
38.339074
 21
141.631761
 31
0.0
 11
38.495723
 21
140.294003
 31
0.0
 11
39.093209
 21
139.338858
 31
0.0
 11
40.322837
 21
138.974267
 31
0.0
  0
LINE
  5
26d
100
AcDbEntity
  8
Texto
 62
7
100
AcDbLine
 10
64.129248
 20
140.074692
 30
0.0
 11
64.129248
 21
140.396586
 31
0.0
  0
LINE
  5
26e
100
AcDbEntity
  8
Texto
 62
7
100
AcDbLine
 10
64.129248
 20
140.396586
 30
0.0
 11
63.081222
 21
140.396586
 31
0.0
  0
LINE
  5
26f
100
AcDbEntity
  8
Texto
 62
7
100
AcDbLine
 10
63.081222
 20
140.396586
 30
0.0
 11
63.081222
 21
139.348560
 31
0.0
  0
SPLINE
  5
270
100
AcDbEntity
  8
Texto
 62
7
100
AcDbSpline
 70
0
 71
3
 72
19
 73
15
 74
13
 40
0.000000
 40
0.000000
 40
0.000000
 40
0.000000
 40
0.243689
 40
0.473849
 40
0.759129
 40
1.206304
 40
1.543728
 40
1.857202
 40
2.188914
 40
2.532140
 40
2.986839
 40
3.192076
 40
3.391310
 40
3.588823
 40
3.588823
 40
3.588823
 40
3.588823
 10
64.054389
 20
141.145177
 30
0.0
 10
64.122464
 20
141.189866
 30
0.0
 10
64.254836
 20
141.276763
 30
0.0
 10
64.497804
 20
141.359629
 30
0.0
 10
64.817144
 20
141.382179
 30
0.0
 10
65.192410
 20
141.324119
 30
0.0
 10
65.442058
 20
141.020934
 30
0.0
 10
65.494668
 20
140.690398
 30
0.0
 10
65.437387
 20
140.354600
 30
0.0
 10
65.159487
 20
140.061746
 30
0.0
 10
64.809548
 20
140.015435
 30
0.0
 10
64.525178
 20
140.026159
 30
0.0
 10
64.324544
 20
140.041334
 30
0.0
 10
64.194158
 20
140.063605
 30
0.0
 10
64.129248
 20
140.074692
 30
0.0
 11
64.054389
 21
141.145177
 31
0.0
 11
64.263717
 21
141.269942
 31
0.0
 11
64.481362
 21
141.344801
 31
0.0
 11
64.765549
 21
141.369754
 31
0.0
 11
65.199454
 21
141.261624
 31
0.0
 11
65.417100
 21
141.003777
 31
0.0
 11
65.476710
 21
140.696023
 31
0.0
 11
65.407396
 21
140.371634
 31
0.0
 11
65.171729
 21
140.122104
 31
0.0
 11
64.728120
 21
140.022292
 31
0.0
 11
64.522951
 21
140.027559
 31
0.0
 11
64.324436
 21
140.044471
 31
0.0
 11
64.129248
 21
140.074692
 31
0.0
  0
LINE
  5
271
100
AcDbEntity
  8
Texto
 62
7
100
AcDbLine
 10
64.308910
 20
142.230631
 30
0.0
 11
64.293940
 21
142.238131
 31
0.0
  0
LINE
  5
272
100
AcDbEntity
  8
Texto
 62
7
100
AcDbLine
 10
64.293940
 20
142.238131
 30
0.0
 11
64.331370
 21
143.016665
 31
0.0
  0
LINE
  5
273
100
AcDbEntity
  8
Texto
 62
7
100
AcDbLine
 10
64.331370
 20
143.016665
 30
0.0
 11
65.626431
 21
143.016665
 31
0.0
  0
LINE
  5
274
100
AcDbEntity
  8
Texto
 62
7
100
AcDbLine
 10
65.626431
 20
143.016665
 30
0.0
 11
65.626431
 21
142.717229
 31
0.0
  0
LINE
  5
275
100
AcDbEntity
  8
Texto
 62
7
100
AcDbLine
 10
65.626431
 20
142.717229
 30
0.0
 11
66.674457
 21
142.717229
 31
0.0
  0
LINE
  5
276
100
AcDbEntity
  8
Texto
 62
7
100
AcDbLine
 10
66.674457
 20
142.717229
 30
0.0
 11
66.674455
 21
144.139538
 31
0.0
  0
SPLINE
  5
277
100
AcDbEntity
  8
Texto
 62
7
100
AcDbSpline
 70
0
 71
3
 72
19
 73
15
 74
13
 40
0.000000
 40
0.000000
 40
0.000000
 40
0.000000
 40
0.662316
 40
1.228359
 40
1.775403
 40
2.883153
 40
3.797075
 40
4.823927
 40
5.780895
 40
6.570203
 40
7.430069
 40
7.807919
 40
8.114981
 40
8.388798
 40
8.388798
 40
8.388798
 40
8.388798
 10
63.081222
 20
139.348560
 30
0.0
 10
63.285838
 20
139.264633
 30
0.0
 10
63.665326
 20
139.108978
 30
0.0
 10
64.249641
 20
138.991684
 30
0.0
 10
64.987435
 20
138.955556
 30
0.0
 10
65.866625
 20
139.049952
 30
0.0
 10
66.707268
 20
139.748674
 30
0.0
 10
66.879027
 20
140.749294
 30
0.0
 10
66.735587
 20
141.693604
 30
0.0
 10
66.087934
 20
142.362007
 30
0.0
 10
65.388128
 20
142.474888
 30
0.0
 10
64.875389
 20
142.440608
 30
0.0
 10
64.561730
 20
142.363640
 30
0.0
 10
64.389905
 20
142.273243
 30
0.0
 10
64.308910
 20
142.230631
 30
0.0
 11
63.081222
 21
139.348560
 31
0.0
 11
63.702274
 21
139.118438
 31
0.0
 11
64.256785
 21
139.004763
 31
0.0
 11
64.802979
 21
138.974265
 31
0.0
 11
65.892593
 21
139.173889
 31
0.0
 11
66.582960
 21
139.772761
 31
0.0
 11
66.824172
 21
140.770881
 31
0.0
 11
66.623716
 21
141.706618
 31
0.0
 11
66.068928
 21
142.268061
 31
0.0
 11
65.229675
 21
142.455208
 31
0.0
 11
64.852885
 21
142.426928
 31
0.0
 11
64.555944
 21
142.348742
 31
0.0
 11
64.308910
 21
142.230631
 31
0.0
  0
LINE
  5
278
100
AcDbEntity
  8
Texto
 62
7
100
AcDbLine
 10
69.107379
 20
143.166371
 30
0.0
 11
69.107379
 21
143.166371
 31
0.0
  0
SPLINE
  5
279
100
AcDbEntity
  8
Texto
 62
7
100
AcDbSpline
 70
0
 71
3
 72
19
 73
15
 74
13
 40
0.000000
 40
0.000000
 40
0.000000
 40
0.000000
 40
0.425915
 40
0.992660
 40
1.808388
 40
2.643477
 40
3.244121
 40
3.679037
 40
4.113953
 40
4.714596
 40
5.549686
 40
6.365413
 40
6.932159
 40
7.358073
 40
7.358073
 40
7.358073
 40
7.358073
 10
69.107379
 20
143.166371
 30
0.0
 10
69.250367
 20
143.118581
 30
0.0
 10
69.583623
 20
143.007197
 30
0.0
 10
69.718338
 20
142.343653
 30
0.0
 10
69.759967
 20
141.630144
 30
0.0
 10
69.713294
 20
140.879964
 30
0.0
 10
69.591366
 20
140.244195
 30
0.0
 10
69.107379
 20
139.929098
 30
0.0
 10
68.623392
 20
140.244195
 30
0.0
 10
68.501465
 20
140.879964
 30
0.0
 10
68.454791
 20
141.630144
 30
0.0
 10
68.496422
 20
142.343653
 30
0.0
 10
68.631136
 20
143.007197
 30
0.0
 10
68.964391
 20
143.118580
 30
0.0
 10
69.107379
 20
143.166371
 30
0.0
 11
69.107379
 21
143.166371
 31
0.0
 11
69.488606
 21
142.976451
 31
0.0
 11
69.686844
 21
142.445506
 31
0.0
 11
69.743681
 21
141.631761
 31
0.0
 11
69.686844
 21
140.798608
 31
0.0
 11
69.488606
 21
140.231621
 31
0.0
 11
69.107379
 21
140.022293
 31
0.0
 11
68.726153
 21
140.231621
 31
0.0
 11
68.527915
 21
140.798608
 31
0.0
 11
68.471078
 21
141.631761
 31
0.0
 11
68.527915
 21
142.445506
 31
0.0
 11
68.726153
 21
142.976451
 31
0.0
 11
69.107379
 21
143.166371
 31
0.0
  0
LINE
  5
27a
100
AcDbEntity
  8
Texto
 62
7
100
AcDbLine
 10
69.107379
 20
138.974267
 30
0.0
 11
69.107379
 21
138.974267
 31
0.0
  0
LINE
  5
27b
100
AcDbEntity
  8
Texto
 62
7
100
AcDbLine
 10
91.079749
 20
140.471447
 30
0.0
 11
91.079749
 21
140.172011
 31
0.0
  0
LINE
  5
27c
100
AcDbEntity
  8
Texto
 62
7
100
AcDbLine
 10
91.079749
 20
140.172011
 30
0.0
 11
90.106582
 21
140.172011
 31
0.0
  0
LINE
  5
27d
100
AcDbEntity
  8
Texto
 62
7
100
AcDbLine
 10
90.106582
 20
140.172011
 30
0.0
 11
90.106582
 21
140.186981
 31
0.0
  0
SPLINE
  5
27e
100
AcDbEntity
  8
Texto
 62
7
100
AcDbSpline
 70
0
 71
3
 72
19
 73
15
 74
13
 40
0.000000
 40
0.000000
 40
0.000000
 40
0.000000
 40
1.282542
 40
2.409170
 40
3.756068
 40
5.083693
 40
6.179931
 40
7.457092
 40
8.734251
 40
9.830489
 40
11.158114
 40
12.505012
 40
13.631641
 40
14.914182
 40
14.914182
 40
14.914182
 40
14.914182
 10
69.107379
 20
138.974267
 30
0.0
 10
69.557806
 20
139.031987
 30
0.0
 10
70.403904
 20
139.140410
 30
0.0
 10
71.053794
 20
140.362551
 30
0.0
 10
71.110085
 20
141.622495
 30
0.0
 10
71.059041
 20
142.888361
 30
0.0
 10
70.390994
 20
144.049752
 30
0.0
 10
69.107379
 20
144.302995
 30
0.0
 10
67.823764
 20
144.049752
 30
0.0
 10
67.155718
 20
142.888361
 30
0.0
 10
67.104674
 20
141.622495
 30
0.0
 10
67.160965
 20
140.362551
 30
0.0
 10
67.810855
 20
139.140411
 30
0.0
 10
68.656952
 20
139.031987
 30
0.0
 10
69.107379
 20
138.974267
 30
0.0
 11
69.107379
 21
138.974267
 31
0.0
 11
70.337008
 21
139.338858
 31
0.0
 11
70.934494
 21
140.294003
 31
0.0
 11
71.091143
 21
141.631761
 31
0.0
 11
70.934494
 21
142.950112
 31
0.0
 11
70.337008
 21
143.869214
 31
0.0
 11
69.107379
 21
144.214397
 31
0.0
 11
67.877751
 21
143.869214
 31
0.0
 11
67.280265
 21
142.950112
 31
0.0
 11
67.123616
 21
141.631761
 31
0.0
 11
67.280265
 21
140.294003
 31
0.0
 11
67.877751
 21
139.338858
 31
0.0
 11
69.107379
 21
138.974267
 31
0.0
  0
LINE
  5
27f
100
AcDbEntity
  8
Texto
 62
7
100
AcDbLine
 10
88.309966
 20
143.840101
 30
0.0
 11
88.309966
 21
142.717216
 31
0.0
  0
LINE
  5
280
100
AcDbEntity
  8
Texto
 62
7
100
AcDbLine
 10
88.309966
 20
142.717216
 30
0.0
 11
89.357992
 21
142.717216
 31
0.0
  0
LINE
  5
281
100
AcDbEntity
  8
Texto
 62
7
100
AcDbLine
 10
89.357992
 20
142.717216
 30
0.0
 11
89.357992
 21
143.016652
 31
0.0
  0
SPLINE
  5
282
100
AcDbEntity
  8
Texto
 62
7
100
AcDbSpline
 70
0
 71
3
 72
16
 73
12
 74
10
 40
0.000000
 40
0.000000
 40
0.000000
 40
0.000000
 40
1.183366
 40
2.192260
 40
3.160043
 40
3.991185
 40
4.809240
 40
5.828790
 40
6.445520
 40
7.024128
 40
7.675608
 40
7.675608
 40
7.675608
 40
7.675608
 10
90.106582
 20
140.186981
 30
0.0
 10
90.426589
 20
140.417242
 30
0.0
 10
91.019423
 20
140.843815
 30
0.0
 10
91.733255
 20
141.651409
 30
0.0
 10
91.973624
 20
142.593091
 30
0.0
 10
91.784870
 20
143.488060
 30
0.0
 10
91.080436
 20
144.124437
 30
0.0
 10
90.237690
 20
144.238366
 30
0.0
 10
89.502295
 20
144.192415
 30
0.0
 10
88.897450
 20
144.060982
 30
0.0
 10
88.513378
 20
143.916580
 30
0.0
 10
88.309966
 20
143.840101
 30
0.0
 11
90.106582
 21
140.186981
 31
0.0
 11
91.038161
 21
140.916718
 31
0.0
 11
91.670303
 21
141.703015
 31
0.0
 11
91.903198
 21
142.642357
 31
0.0
 11
91.703574
 21
143.449171
 31
0.0
 11
91.104702
 21
144.006454
 31
0.0
 11
90.106582
 21
144.214396
 31
0.0
 11
89.491075
 21
144.175580
 31
0.0
 11
88.925473
 21
144.053588
 31
0.0
 11
88.309966
 21
143.840101
 31
0.0
  0
LINE
  5
283
100
AcDbEntity
  8
Texto
 62
7
100
AcDbLine
 10
88.309966
 20
140.246870
 30
0.0
 11
88.309966
 21
139.049126
 31
0.0
  0
LINE
  5
284
100
AcDbEntity
  8
Texto
 62
7
100
AcDbLine
 10
88.309966
 20
139.049126
 30
0.0
 11
92.127775
 21
139.049126
 31
0.0
  0
LINE
  5
285
100
AcDbEntity
  8
Texto
 62
7
100
AcDbLine
 10
92.127775
 20
139.049126
 30
0.0
 11
92.127775
 21
140.471447
 31
0.0
  0
LINE
  5
286
100
AcDbEntity
  8
Texto
 62
7
100
AcDbLine
 10
92.127775
 20
140.471447
 30
0.0
 11
91.079749
 21
140.471447
 31
0.0
  0
SPLINE
  5
287
100
AcDbEntity
  8
Texto
 62
7
100
AcDbSpline
 70
0
 71
3
 72
16
 73
12
 74
10
 40
0.000000
 40
0.000000
 40
0.000000
 40
0.000000
 40
0.159702
 40
0.308193
 40
0.451289
 40
0.781083
 40
1.131754
 40
1.590668
 40
2.161702
 40
3.113965
 40
4.779092
 40
4.779092
 40
4.779092
 40
4.779092
 10
89.357992
 20
143.016652
 30
0.0
 10
89.410567
 20
143.025143
 30
0.0
 10
89.512026
 20
143.041528
 30
0.0
 10
89.662289
 20
143.052100
 30
0.0
 10
89.869167
 20
143.056835
 30
0.0
 10
90.145969
 20
143.037803
 30
0.0
 10
90.495812
 20
142.827620
 30
0.0
 10
90.607253
 20
142.332966
 30
0.0
 10
90.355578
 20
141.692706
 30
0.0
 10
89.510297
 20
141.005811
 30
0.0
 10
88.776678
 20
140.541961
 30
0.0
 10
88.309966
 20
140.246870
 30
0.0
 11
89.357992
 21
143.016652
 31
0.0
 11
89.516028
 21
143.039663
 31
0.0
 11
89.664082
 21
143.051031
 31
0.0
 11
89.807146
 21
143.054082
 31
0.0
 11
90.134308
 21
143.012493
 31
0.0
 11
90.428198
 21
142.821187
 31
0.0
 11
90.555736
 21
142.380351
 31
0.0
 11
90.374411
 21
141.838871
 31
0.0
 11
89.694026
 21
141.172626
 31
0.0
 11
88.309966
 21
140.246870
 31
0.0
  0
LINE
  5
288
100
AcDbEntity
  8
Texto
 62
7
100
AcDbLine
 10
94.261260
 20
143.166371
 30
0.0
 11
94.261260
 21
143.166371
 31
0.0
  0
SPLINE
  5
289
100
AcDbEntity
  8
Texto
 62
7
100
AcDbSpline
 70
0
 71
3
 72
19
 73
15
 74
13
 40
0.000000
 40
0.000000
 40
0.000000
 40
0.000000
 40
0.425915
 40
0.992660
 40
1.808388
 40
2.643477
 40
3.244121
 40
3.679037
 40
4.113953
 40
4.714596
 40
5.549686
 40
6.365413
 40
6.932159
 40
7.358073
 40
7.358073
 40
7.358073
 40
7.358073
 10
94.261260
 20
143.166371
 30
0.0
 10
94.404248
 20
143.118581
 30
0.0
 10
94.737504
 20
143.007197
 30
0.0
 10
94.872219
 20
142.343653
 30
0.0
 10
94.913848
 20
141.630144
 30
0.0
 10
94.867175
 20
140.879964
 30
0.0
 10
94.745247
 20
140.244195
 30
0.0
 10
94.261260
 20
139.929098
 30
0.0
 10
93.777273
 20
140.244195
 30
0.0
 10
93.655346
 20
140.879964
 30
0.0
 10
93.608672
 20
141.630144
 30
0.0
 10
93.650303
 20
142.343653
 30
0.0
 10
93.785017
 20
143.007197
 30
0.0
 10
94.118272
 20
143.118580
 30
0.0
 10
94.261260
 20
143.166371
 30
0.0
 11
94.261260
 21
143.166371
 31
0.0
 11
94.642487
 21
142.976451
 31
0.0
 11
94.840725
 21
142.445506
 31
0.0
 11
94.897562
 21
141.631761
 31
0.0
 11
94.840725
 21
140.798608
 31
0.0
 11
94.642487
 21
140.231621
 31
0.0
 11
94.261260
 21
140.022293
 31
0.0
 11
93.880034
 21
140.231621
 31
0.0
 11
93.681796
 21
140.798608
 31
0.0
 11
93.624959
 21
141.631761
 31
0.0
 11
93.681796
 21
142.445506
 31
0.0
 11
93.880034
 21
142.976451
 31
0.0
 11
94.261260
 21
143.166371
 31
0.0
  0
LINE
  5
28a
100
AcDbEntity
  8
Texto
 62
7
100
AcDbLine
 10
94.261260
 20
138.974267
 30
0.0
 11
94.261260
 21
138.974267
 31
0.0
  0
SPLINE
  5
28b
100
AcDbEntity
  8
Texto
 62
7
100
AcDbSpline
 70
0
 71
3
 72
19
 73
15
 74
13
 40
0.000000
 40
0.000000
 40
0.000000
 40
0.000000
 40
1.282542
 40
2.409170
 40
3.756068
 40
5.083693
 40
6.179931
 40
7.457092
 40
8.734251
 40
9.830489
 40
11.158114
 40
12.505012
 40
13.631641
 40
14.914182
 40
14.914182
 40
14.914182
 40
14.914182
 10
94.261260
 20
138.974267
 30
0.0
 10
94.711687
 20
139.031987
 30
0.0
 10
95.557785
 20
139.140410
 30
0.0
 10
96.207675
 20
140.362551
 30
0.0
 10
96.263966
 20
141.622495
 30
0.0
 10
96.212922
 20
142.888361
 30
0.0
 10
95.544875
 20
144.049752
 30
0.0
 10
94.261260
 20
144.302995
 30
0.0
 10
92.977645
 20
144.049752
 30
0.0
 10
92.309599
 20
142.888361
 30
0.0
 10
92.258555
 20
141.622495
 30
0.0
 10
92.314846
 20
140.362551
 30
0.0
 10
92.964736
 20
139.140411
 30
0.0
 10
93.810833
 20
139.031987
 30
0.0
 10
94.261260
 20
138.974267
 30
0.0
 11
94.261260
 21
138.974267
 31
0.0
 11
95.490889
 21
139.338858
 31
0.0
 11
96.088375
 21
140.294003
 31
0.0
 11
96.245024
 21
141.631761
 31
0.0
 11
96.088375
 21
142.950112
 31
0.0
 11
95.490889
 21
143.869214
 31
0.0
 11
94.261260
 21
144.214397
 31
0.0
 11
93.031632
 21
143.869214
 31
0.0
 11
92.434146
 21
142.950112
 31
0.0
 11
92.277497
 21
141.631761
 31
0.0
 11
92.434146
 21
140.294003
 31
0.0
 11
93.031632
 21
139.338858
 31
0.0
 11
94.261260
 21
138.974267
 31
0.0
  0
LINE
  5
28c
100
AcDbEntity
  8
Texto
 62
7
100
AcDbLine
 10
98.528221
 20
143.166371
 30
0.0
 11
98.528221
 21
143.166371
 31
0.0
  0
SPLINE
  5
28d
100
AcDbEntity
  8
Texto
 62
7
100
AcDbSpline
 70
0
 71
3
 72
19
 73
15
 74
13
 40
0.000000
 40
0.000000
 40
0.000000
 40
0.000000
 40
0.425914
 40
0.992660
 40
1.808387
 40
2.643477
 40
3.244120
 40
3.679036
 40
4.113952
 40
4.714596
 40
5.549685
 40
6.365413
 40
6.932158
 40
7.358073
 40
7.358073
 40
7.358073
 40
7.358073
 10
98.528221
 20
143.166371
 30
0.0
 10
98.671209
 20
143.118580
 30
0.0
 10
99.004464
 20
143.007197
 30
0.0
 10
99.139178
 20
142.343653
 30
0.0
 10
99.180809
 20
141.630144
 30
0.0
 10
99.134135
 20
140.879964
 30
0.0
 10
99.012208
 20
140.244195
 30
0.0
 10
98.528221
 20
139.929098
 30
0.0
 10
98.044234
 20
140.244195
 30
0.0
 10
97.922306
 20
140.879964
 30
0.0
 10
97.875633
 20
141.630144
 30
0.0
 10
97.917262
 20
142.343653
 30
0.0
 10
98.051977
 20
143.007197
 30
0.0
 10
98.385233
 20
143.118581
 30
0.0
 10
98.528221
 20
143.166371
 30
0.0
 11
98.528221
 21
143.166371
 31
0.0
 11
98.909447
 21
142.976451
 31
0.0
 11
99.107685
 21
142.445506
 31
0.0
 11
99.164522
 21
141.631761
 31
0.0
 11
99.107685
 21
140.798608
 31
0.0
 11
98.909447
 21
140.231621
 31
0.0
 11
98.528221
 21
140.022293
 31
0.0
 11
98.146994
 21
140.231621
 31
0.0
 11
97.948756
 21
140.798608
 31
0.0
 11
97.891919
 21
141.631761
 31
0.0
 11
97.948756
 21
142.445506
 31
0.0
 11
98.146994
 21
142.976451
 31
0.0
 11
98.528221
 21
143.166371
 31
0.0
  0
LINE
  5
28e
100
AcDbEntity
  8
Texto
 62
7
100
AcDbLine
 10
98.528221
 20
138.974267
 30
0.0
 11
98.528221
 21
138.974267
 31
0.0
  0
LINE
  5
28f
100
AcDbEntity
  8
Texto
 62
7
100
AcDbLine
 10
119.976580
 20
140.471447
 30
0.0
 11
119.976580
 21
140.172011
 31
0.0
  0
LINE
  5
290
100
AcDbEntity
  8
Texto
 62
7
100
AcDbLine
 10
119.976580
 20
140.172011
 30
0.0
 11
119.003410
 21
140.172011
 31
0.0
  0
LINE
  5
291
100
AcDbEntity
  8
Texto
 62
7
100
AcDbLine
 10
119.003410
 20
140.172011
 30
0.0
 11
119.003410
 21
140.186981
 31
0.0
  0
SPLINE
  5
292
100
AcDbEntity
  8
Texto
 62
7
100
AcDbSpline
 70
0
 71
3
 72
19
 73
15
 74
13
 40
0.000000
 40
0.000000
 40
0.000000
 40
0.000000
 40
1.282541
 40
2.409168
 40
3.756066
 40
5.083690
 40
6.179927
 40
7.457086
 40
8.734246
 40
9.830485
 40
11.158109
 40
12.505008
 40
13.631636
 40
14.914178
 40
14.914178
 40
14.914178
 40
14.914178
 10
98.528221
 20
138.974267
 30
0.0
 10
98.978648
 20
139.031987
 30
0.0
 10
99.824745
 20
139.140410
 30
0.0
 10
100.474632
 20
140.362552
 30
0.0
 10
100.530921
 20
141.622495
 30
0.0
 10
100.479879
 20
142.888360
 30
0.0
 10
99.811835
 20
144.049753
 30
0.0
 10
98.528220
 20
144.302995
 30
0.0
 10
97.244606
 20
144.049752
 30
0.0
 10
96.576559
 20
142.888361
 30
0.0
 10
96.525515
 20
141.622495
 30
0.0
 10
96.581806
 20
140.362551
 30
0.0
 10
97.231696
 20
139.140410
 30
0.0
 10
98.077794
 20
139.031987
 30
0.0
 10
98.528221
 20
138.974267
 30
0.0
 11
98.528221
 21
138.974267
 31
0.0
 11
99.757848
 21
139.338858
 31
0.0
 11
100.355332
 21
140.294003
 31
0.0
 11
100.511980
 21
141.631761
 31
0.0
 11
100.355332
 21
142.950112
 31
0.0
 11
99.757848
 21
143.869214
 31
0.0
 11
98.528221
 21
144.214397
 31
0.0
 11
97.298592
 21
143.869214
 31
0.0
 11
96.701106
 21
142.950112
 31
0.0
 11
96.544457
 21
141.631761
 31
0.0
 11
96.701106
 21
140.294003
 31
0.0
 11
97.298592
 21
139.338858
 31
0.0
 11
98.528221
 21
138.974267
 31
0.0
  0
LINE
  5
293
100
AcDbEntity
  8
Texto
 62
7
100
AcDbLine
 10
117.206790
 20
143.840101
 30
0.0
 11
117.206790
 21
142.717216
 31
0.0
  0
LINE
  5
294
100
AcDbEntity
  8
Texto
 62
7
100
AcDbLine
 10
117.206790
 20
142.717216
 30
0.0
 11
118.254820
 21
142.717216
 31
0.0
  0
LINE
  5
295
100
AcDbEntity
  8
Texto
 62
7
100
AcDbLine
 10
118.254820
 20
142.717216
 30
0.0
 11
118.254820
 21
143.016652
 31
0.0
  0
SPLINE
  5
296
100
AcDbEntity
  8
Texto
 62
7
100
AcDbSpline
 70
0
 71
3
 72
16
 73
12
 74
10
 40
0.000000
 40
0.000000
 40
0.000000
 40
0.000000
 40
1.183368
 40
2.192263
 40
3.160046
 40
3.991189
 40
4.809245
 40
5.828795
 40
6.445523
 40
7.024131
 40
7.675616
 40
7.675616
 40
7.675616
 40
7.675616
 10
119.003410
 20
140.186981
 30
0.0
 10
119.323418
 20
140.417242
 30
0.0
 10
119.916253
 20
140.843814
 30
0.0
 10
120.630087
 20
141.651409
 30
0.0
 10
120.870457
 20
142.593091
 30
0.0
 10
120.681699
 20
143.488061
 30
0.0
 10
119.977264
 20
144.124436
 30
0.0
 10
119.134519
 20
144.238366
 30
0.0
 10
118.399124
 20
144.192415
 30
0.0
 10
117.794278
 20
144.060982
 30
0.0
 10
117.410204
 20
143.916580
 30
0.0
 10
117.206790
 20
143.840101
 30
0.0
 11
119.003410
 21
140.186981
 31
0.0
 11
119.934991
 21
140.916718
 31
0.0
 11
120.567135
 21
141.703015
 31
0.0
 11
120.800030
 21
142.642357
 31
0.0
 11
120.600404
 21
143.449171
 31
0.0
 11
120.001529
 21
144.006454
 31
0.0
 11
119.003410
 21
144.214396
 31
0.0
 11
118.387904
 21
144.175580
 31
0.0
 11
117.822303
 21
144.053588
 31
0.0
 11
117.206790
 21
143.840101
 31
0.0
  0
LINE
  5
297
100
AcDbEntity
  8
Texto
 62
7
100
AcDbLine
 10
117.206790
 20
140.246870
 30
0.0
 11
117.206790
 21
139.049126
 31
0.0
  0
LINE
  5
298
100
AcDbEntity
  8
Texto
 62
7
100
AcDbLine
 10
117.206790
 20
139.049126
 30
0.0
 11
121.024600
 21
139.049126
 31
0.0
  0
LINE
  5
299
100
AcDbEntity
  8
Texto
 62
7
100
AcDbLine
 10
121.024600
 20
139.049126
 30
0.0
 11
121.024600
 21
140.471447
 31
0.0
  0
LINE
  5
29a
100
AcDbEntity
  8
Texto
 62
7
100
AcDbLine
 10
121.024600
 20
140.471447
 30
0.0
 11
119.976580
 21
140.471447
 31
0.0
  0
LINE
  5
29b
100
AcDbEntity
  8
Texto
 62
7
100
AcDbLine
 10
124.842420
 20
144.139538
 30
0.0
 11
121.398900
 21
144.139538
 31
0.0
  0
LINE
  5
29c
100
AcDbEntity
  8
Texto
 62
7
100
AcDbLine
 10
121.398900
 20
144.139538
 30
0.0
 11
121.324000
 21
141.220037
 31
0.0
  0
LINE
  5
29d
100
AcDbEntity
  8
Texto
 62
7
100
AcDbLine
 10
121.324000
 20
141.220037
 30
0.0
 11
122.222310
 21
141.145177
 31
0.0
  0
SPLINE
  5
29e
100
AcDbEntity
  8
Texto
 62
7
100
AcDbSpline
 70
0
 71
3
 72
16
 73
12
 74
10
 40
0.000000
 40
0.000000
 40
0.000000
 40
0.000000
 40
0.159702
 40
0.308190
 40
0.451285
 40
0.781081
 40
1.131751
 40
1.590665
 40
2.161698
 40
3.113960
 40
4.779090
 40
4.779090
 40
4.779090
 40
4.779090
 10
118.254820
 20
143.016652
 30
0.0
 10
118.307395
 20
143.025143
 30
0.0
 10
118.408853
 20
143.041528
 30
0.0
 10
118.559114
 20
143.052100
 30
0.0
 10
118.765992
 20
143.056835
 30
0.0
 10
119.042794
 20
143.037803
 30
0.0
 10
119.392637
 20
142.827620
 30
0.0
 10
119.504076
 20
142.332966
 30
0.0
 10
119.252405
 20
141.692706
 30
0.0
 10
118.407124
 20
141.005810
 30
0.0
 10
117.673504
 20
140.541961
 30
0.0
 10
117.206790
 20
140.246870
 30
0.0
 11
118.254820
 21
143.016652
 31
0.0
 11
118.412855
 21
143.039663
 31
0.0
 11
118.560908
 21
143.051031
 31
0.0
 11
118.703970
 21
143.054082
 31
0.0
 11
119.031133
 21
143.012493
 31
0.0
 11
119.325023
 21
142.821187
 31
0.0
 11
119.452560
 21
142.380351
 31
0.0
 11
119.271237
 21
141.838871
 31
0.0
 11
118.590853
 21
141.172626
 31
0.0
 11
117.206790
 21
140.246870
 31
0.0
  0
LINE
  5
29f
100
AcDbEntity
  8
Texto
 62
7
100
AcDbLine
 10
122.297170
 20
140.074692
 30
0.0
 11
122.297170
 21
140.396586
 31
0.0
  0
LINE
  5
2a0
100
AcDbEntity
  8
Texto
 62
7
100
AcDbLine
 10
122.297170
 20
140.396586
 30
0.0
 11
121.249150
 21
140.396586
 31
0.0
  0
LINE
  5
2a1
100
AcDbEntity
  8
Texto
 62
7
100
AcDbLine
 10
121.249150
 20
140.396586
 30
0.0
 11
121.249150
 21
139.348560
 31
0.0
  0
SPLINE
  5
2a2
100
AcDbEntity
  8
Texto
 62
7
100
AcDbSpline
 70
0
 71
3
 72
19
 73
15
 74
13
 40
0.000000
 40
0.000000
 40
0.000000
 40
0.000000
 40
0.243691
 40
0.473851
 40
0.759129
 40
1.206307
 40
1.543730
 40
1.857203
 40
2.188914
 40
2.532139
 40
2.986842
 40
3.192076
 40
3.391311
 40
3.588824
 40
3.588824
 40
3.588824
 40
3.588824
 10
122.222310
 20
141.145177
 30
0.0
 10
122.290386
 20
141.189866
 30
0.0
 10
122.422759
 20
141.276763
 30
0.0
 10
122.665727
 20
141.359629
 30
0.0
 10
122.985067
 20
141.382179
 30
0.0
 10
123.360333
 20
141.324120
 30
0.0
 10
123.609980
 20
141.020933
 30
0.0
 10
123.662587
 20
140.690398
 30
0.0
 10
123.605309
 20
140.354601
 30
0.0
 10
123.327409
 20
140.061745
 30
0.0
 10
122.977470
 20
140.015435
 30
0.0
 10
122.693099
 20
140.026159
 30
0.0
 10
122.492466
 20
140.041334
 30
0.0
 10
122.362080
 20
140.063605
 30
0.0
 10
122.297170
 20
140.074692
 30
0.0
 11
122.222310
 21
141.145177
 31
0.0
 11
122.431640
 21
141.269942
 31
0.0
 11
122.649286
 21
141.344801
 31
0.0
 11
122.933470
 21
141.369754
 31
0.0
 11
123.367378
 21
141.261624
 31
0.0
 11
123.585022
 21
141.003777
 31
0.0
 11
123.644630
 21
140.696023
 31
0.0
 11
123.575318
 21
140.371634
 31
0.0
 11
123.339652
 21
140.122104
 31
0.0
 11
122.896040
 21
140.022292
 31
0.0
 11
122.690873
 21
140.027559
 31
0.0
 11
122.492357
 21
140.044471
 31
0.0
 11
122.297170
 21
140.074692
 31
0.0
  0
LINE
  5
2a3
100
AcDbEntity
  8
Texto
 62
7
100
AcDbLine
 10
122.476830
 20
142.230631
 30
0.0
 11
122.461830
 21
142.238131
 31
0.0
  0
LINE
  5
2a4
100
AcDbEntity
  8
Texto
 62
7
100
AcDbLine
 10
122.461830
 20
142.238131
 30
0.0
 11
122.499230
 21
143.016665
 31
0.0
  0
LINE
  5
2a5
100
AcDbEntity
  8
Texto
 62
7
100
AcDbLine
 10
122.499230
 20
143.016665
 30
0.0
 11
123.794290
 21
143.016665
 31
0.0
  0
LINE
  5
2a6
100
AcDbEntity
  8
Texto
 62
7
100
AcDbLine
 10
123.794290
 20
143.016665
 30
0.0
 11
123.794290
 21
142.717229
 31
0.0
  0
LINE
  5
2a7
100
AcDbEntity
  8
Texto
 62
7
100
AcDbLine
 10
123.794290
 20
142.717229
 30
0.0
 11
124.842320
 21
142.717229
 31
0.0
  0
LINE
  5
2a8
100
AcDbEntity
  8
Texto
 62
7
100
AcDbLine
 10
124.842320
 20
142.717229
 30
0.0
 11
124.842420
 21
144.139538
 31
0.0
  0
SPLINE
  5
2a9
100
AcDbEntity
  8
Texto
 62
7
100
AcDbSpline
 70
0
 71
3
 72
19
 73
15
 74
13
 40
0.000000
 40
0.000000
 40
0.000000
 40
0.000000
 40
0.662314
 40
1.228355
 40
1.775396
 40
2.883151
 40
3.797074
 40
4.823927
 40
5.780895
 40
6.570205
 40
7.430069
 40
7.807921
 40
8.114982
 40
8.388803
 40
8.388803
 40
8.388803
 40
8.388803
 10
121.249150
 20
139.348560
 30
0.0
 10
121.453765
 20
139.264633
 30
0.0
 10
121.833252
 20
139.108978
 30
0.0
 10
122.417565
 20
138.991683
 30
0.0
 10
123.155359
 20
138.955556
 30
0.0
 10
124.034550
 20
139.049952
 30
0.0
 10
124.875196
 20
139.748674
 30
0.0
 10
125.046955
 20
140.749294
 30
0.0
 10
124.903513
 20
141.693605
 30
0.0
 10
124.255858
 20
142.362006
 30
0.0
 10
123.556052
 20
142.474887
 30
0.0
 10
123.043314
 20
142.440608
 30
0.0
 10
122.729653
 20
142.363639
 30
0.0
 10
122.557827
 20
142.273243
 30
0.0
 10
122.476830
 20
142.230631
 30
0.0
 11
121.249150
 21
139.348560
 31
0.0
 11
121.870201
 21
139.118438
 31
0.0
 11
122.424709
 21
139.004763
 31
0.0
 11
122.970900
 21
138.974265
 31
0.0
 11
124.060519
 21
139.173889
 31
0.0
 11
124.750887
 21
139.772761
 31
0.0
 11
124.992100
 21
140.770881
 31
0.0
 11
124.791642
 21
141.706618
 31
0.0
 11
124.236851
 21
142.268061
 31
0.0
 11
123.397600
 21
142.455208
 31
0.0
 11
123.020809
 21
142.426928
 31
0.0
 11
122.723868
 21
142.348742
 31
0.0
 11
122.476830
 21
142.230631
 31
0.0
  0
LINE
  5
2aa
100
AcDbEntity
  8
Texto
 62
7
100
AcDbLine
 10
127.275340
 20
143.166371
 30
0.0
 11
127.275340
 21
143.166371
 31
0.0
  0
SPLINE
  5
2ab
100
AcDbEntity
  8
Texto
 62
7
100
AcDbSpline
 70
0
 71
3
 72
19
 73
15
 74
13
 40
0.000000
 40
0.000000
 40
0.000000
 40
0.000000
 40
0.425913
 40
0.992658
 40
1.808386
 40
2.643475
 40
3.244119
 40
3.679033
 40
4.113947
 40
4.714591
 40
5.549680
 40
6.365408
 40
6.932153
 40
7.358066
 40
7.358066
 40
7.358066
 40
7.358066
 10
127.275340
 20
143.166371
 30
0.0
 10
127.418327
 20
143.118580
 30
0.0
 10
127.751582
 20
143.007196
 30
0.0
 10
127.886296
 20
142.343653
 30
0.0
 10
127.927927
 20
141.630144
 30
0.0
 10
127.881252
 20
140.879964
 30
0.0
 10
127.759325
 20
140.244196
 30
0.0
 10
127.275340
 20
139.929098
 30
0.0
 10
126.791355
 20
140.244196
 30
0.0
 10
126.669428
 20
140.879964
 30
0.0
 10
126.622753
 20
141.630144
 30
0.0
 10
126.664384
 20
142.343653
 30
0.0
 10
126.799098
 20
143.007196
 30
0.0
 10
127.132353
 20
143.118580
 30
0.0
 10
127.275340
 20
143.166371
 30
0.0
 11
127.275340
 21
143.166371
 31
0.0
 11
127.656564
 21
142.976451
 31
0.0
 11
127.854802
 21
142.445506
 31
0.0
 11
127.911640
 21
141.631761
 31
0.0
 11
127.854802
 21
140.798608
 31
0.0
 11
127.656564
 21
140.231621
 31
0.0
 11
127.275340
 21
140.022293
 31
0.0
 11
126.894116
 21
140.231621
 31
0.0
 11
126.695878
 21
140.798608
 31
0.0
 11
126.639040
 21
141.631761
 31
0.0
 11
126.695878
 21
142.445506
 31
0.0
 11
126.894116
 21
142.976451
 31
0.0
 11
127.275340
 21
143.166371
 31
0.0
  0
LINE
  5
2ac
100
AcDbEntity
  8
Texto
 62
7
100
AcDbLine
 10
127.275340
 20
138.974267
 30
0.0
 11
127.275340
 21
138.974267
 31
0.0
  0
LINE
  5
2ad
100
AcDbEntity
  8
Texto
 62
7
100
AcDbLine
 10
140.424030
 20
124.360003
 30
0.0
 11
140.134820
 21
124.360003
 31
0.0
  0
LINE
  5
2ae
100
AcDbEntity
  8
Texto
 62
7
100
AcDbLine
 10
140.134820
 20
124.360003
 30
0.0
 11
140.134820
 21
125.299937
 31
0.0
  0
LINE
  5
2af
100
AcDbEntity
  8
Texto
 62
7
100
AcDbLine
 10
140.134820
 20
125.299937
 30
0.0
 11
140.149320
 21
125.299937
 31
0.0
  0
SPLINE
  5
2b0
100
AcDbEntity
  8
Texto
 62
7
100
AcDbSpline
 70
0
 71
3
 72
19
 73
15
 74
13
 40
0.000000
 40
0.000000
 40
0.000000
 40
0.000000
 40
1.282541
 40
2.409169
 40
3.756067
 40
5.083691
 40
6.179928
 40
7.457088
 40
8.734248
 40
9.830485
 40
11.158109
 40
12.505007
 40
13.631635
 40
14.914176
 40
14.914176
 40
14.914176
 40
14.914176
 10
127.275340
 20
138.974267
 30
0.0
 10
127.725767
 20
139.031987
 30
0.0
 10
128.571865
 20
139.140410
 30
0.0
 10
129.221752
 20
140.362552
 30
0.0
 10
129.278041
 20
141.622495
 30
0.0
 10
129.226999
 20
142.888361
 30
0.0
 10
128.558955
 20
144.049753
 30
0.0
 10
127.275340
 20
144.302994
 30
0.0
 10
125.991725
 20
144.049753
 30
0.0
 10
125.323681
 20
142.888361
 30
0.0
 10
125.272639
 20
141.622495
 30
0.0
 10
125.328928
 20
140.362552
 30
0.0
 10
125.978815
 20
139.140410
 30
0.0
 10
126.824913
 20
139.031987
 30
0.0
 10
127.275340
 20
138.974267
 30
0.0
 11
127.275340
 21
138.974267
 31
0.0
 11
128.504968
 21
139.338858
 31
0.0
 11
129.102452
 21
140.294003
 31
0.0
 11
129.259100
 21
141.631761
 31
0.0
 11
129.102452
 21
142.950112
 31
0.0
 11
128.504968
 21
143.869214
 31
0.0
 11
127.275340
 21
144.214397
 31
0.0
 11
126.045712
 21
143.869214
 31
0.0
 11
125.448228
 21
142.950112
 31
0.0
 11
125.291580
 21
141.631761
 31
0.0
 11
125.448228
 21
140.294003
 31
0.0
 11
126.045712
 21
139.338858
 31
0.0
 11
127.275340
 21
138.974267
 31
0.0
  0
LINE
  5
2b1
100
AcDbEntity
  8
Texto
 62
7
100
AcDbLine
 10
143.677680
 20
127.035199
 30
0.0
 11
142.593150
 21
127.035199
 31
0.0
  0
LINE
  5
2b2
100
AcDbEntity
  8
Texto
 62
7
100
AcDbLine
 10
142.593150
 20
127.035199
 30
0.0
 11
142.593150
 21
126.022963
 31
0.0
  0
LINE
  5
2b3
100
AcDbEntity
  8
Texto
 62
7
100
AcDbLine
 10
142.593150
 20
126.022963
 30
0.0
 11
142.882360
 21
126.022963
 31
0.0
  0
SPLINE
  5
2b4
100
AcDbEntity
  8
Texto
 62
7
100
AcDbSpline
 70
0
 71
3
 72
16
 73
12
 74
10
 40
0.000000
 40
0.000000
 40
0.000000
 40
0.000000
 40
1.142953
 40
2.117393
 40
3.052124
 40
3.854884
 40
4.645004
 40
5.629737
 40
6.225406
 40
6.784256
 40
7.413488
 40
7.413488
 40
7.413488
 40
7.413488
 10
140.149320
 20
125.299937
 30
0.0
 10
140.371717
 20
124.990858
 30
0.0
 10
140.783721
 20
124.418269
 30
0.0
 10
141.563735
 20
123.728815
 30
0.0
 10
142.473258
 20
123.496654
 30
0.0
 10
143.337664
 20
123.678963
 30
0.0
 10
143.952312
 20
124.359338
 30
0.0
 10
144.062352
 20
125.173306
 30
0.0
 10
144.017968
 20
125.883588
 30
0.0
 10
143.891020
 20
126.467778
 30
0.0
 10
143.751548
 20
126.838733
 30
0.0
 10
143.677680
 20
127.035199
 30
0.0
 11
140.149320
 21
125.299937
 31
0.0
 11
140.854134
 21
124.400172
 31
0.0
 11
141.613579
 21
123.789616
 31
0.0
 11
142.520840
 21
123.564675
 31
0.0
 11
143.300102
 21
123.757482
 31
0.0
 11
143.838358
 21
124.335902
 31
0.0
 11
144.039200
 21
125.299937
 31
0.0
 11
144.001708
 21
125.894425
 31
0.0
 11
143.883879
 21
126.440711
 31
0.0
 11
143.677680
 21
127.035199
 31
0.0
  0
LINE
  5
2b5
100
AcDbEntity
  8
Texto
 62
7
100
AcDbLine
 10
140.207210
 20
127.035199
 30
0.0
 11
139.050370
 21
127.035199
 31
0.0
  0
LINE
  5
2b6
100
AcDbEntity
  8
Texto
 62
7
100
AcDbLine
 10
139.050370
 20
127.035199
 30
0.0
 11
139.050370
 21
123.347767
 31
0.0
  0
LINE
  5
2b7
100
AcDbEntity
  8
Texto
 62
7
100
AcDbLine
 10
139.050370
 20
123.347767
 30
0.0
 11
140.424120
 21
123.347767
 31
0.0
  0
LINE
  5
2b8
100
AcDbEntity
  8
Texto
 62
7
100
AcDbLine
 10
140.424120
 20
123.347767
 30
0.0
 11
140.424030
 21
124.360003
 31
0.0
  0
SPLINE
  5
2b9
100
AcDbEntity
  8
Texto
 62
7
100
AcDbSpline
 70
0
 71
3
 72
16
 73
12
 74
10
 40
0.000000
 40
0.000000
 40
0.000000
 40
0.000000
 40
0.154249
 40
0.297671
 40
0.435881
 40
0.754413
 40
1.093109
 40
1.536357
 40
2.087886
 40
3.007630
 40
4.615894
 40
4.615894
 40
4.615894
 40
4.615894
 10
142.882360
 20
126.022963
 30
0.0
 10
142.890560
 20
125.972183
 30
0.0
 10
142.906384
 20
125.874188
 30
0.0
 10
142.916633
 20
125.729059
 30
0.0
 10
142.921228
 20
125.529245
 30
0.0
 10
142.902834
 20
125.261895
 30
0.0
 10
142.699831
 20
124.923997
 30
0.0
 10
142.222066
 20
124.816363
 30
0.0
 10
141.603673
 20
125.059445
 30
0.0
 10
140.940235
 20
125.875859
 30
0.0
 10
140.492225
 20
126.584425
 30
0.0
 10
140.207210
 20
127.035199
 30
0.0
 11
142.882360
 21
126.022963
 31
0.0
 11
142.904590
 21
125.870324
 31
0.0
 11
142.915597
 21
125.727325
 31
0.0
 11
142.918560
 21
125.589147
 31
0.0
 11
142.878392
 21
125.273158
 31
0.0
 11
142.693618
 21
124.989303
 31
0.0
 11
142.267830
 21
124.866121
 31
0.0
 11
141.744846
 21
125.041254
 31
0.0
 11
141.101354
 21
125.698405
 31
0.0
 11
140.207210
 21
127.035199
 31
0.0
  0
LINE
  5
2ba
100
AcDbEntity
  8
Texto
 62
7
100
AcDbLine
 10
143.026920
 20
121.287139
 30
0.0
 11
143.026920
 21
121.287139
 31
0.0
  0
SPLINE
  5
2bb
100
AcDbEntity
  8
Texto
 62
7
100
AcDbSpline
 70
0
 71
3
 72
19
 73
15
 74
13
 40
0.000000
 40
0.000000
 40
0.000000
 40
0.000000
 40
0.411369
 40
0.958759
 40
1.746628
 40
2.553204
 40
3.133337
 40
3.553400
 40
3.973463
 40
4.553596
 40
5.360172
 40
6.148041
 40
6.695431
 40
7.106801
 40
7.106801
 40
7.106801
 40
7.106801
 10
143.026920
 20
121.287139
 30
0.0
 10
142.980762
 20
121.149034
 30
0.0
 10
142.873182
 20
120.827160
 30
0.0
 10
142.232300
 20
120.697045
 30
0.0
 10
141.543156
 20
120.656837
 30
0.0
 10
140.818593
 20
120.701917
 30
0.0
 10
140.204533
 20
120.819680
 30
0.0
 10
139.900198
 20
121.287139
 30
0.0
 10
140.204533
 20
121.754599
 30
0.0
 10
140.818593
 20
121.872362
 30
0.0
 10
141.543156
 20
121.917442
 30
0.0
 10
142.232300
 20
121.877234
 30
0.0
 10
142.873183
 20
121.747119
 30
0.0
 10
142.980762
 20
121.425244
 30
0.0
 10
143.026920
 20
121.287139
 30
0.0
 11
143.026920
 21
121.287139
 31
0.0
 11
142.843486
 21
120.918932
 31
0.0
 11
142.330674
 21
120.727464
 31
0.0
 11
141.544720
 21
120.672567
 31
0.0
 11
140.740014
 21
120.727464
 31
0.0
 11
140.192389
 21
120.918932
 31
0.0
 11
139.990210
 21
121.287139
 31
0.0
 11
140.192389
 21
121.655347
 31
0.0
 11
140.740014
 21
121.846815
 31
0.0
 11
141.544720
 21
121.901712
 31
0.0
 11
142.330674
 21
121.846815
 31
0.0
 11
142.843486
 21
121.655347
 31
0.0
 11
143.026920
 21
121.287139
 31
0.0
  0
LINE
  5
2bc
100
AcDbEntity
  8
Texto
 62
7
100
AcDbLine
 10
138.977980
 20
121.287139
 30
0.0
 11
138.977980
 21
121.287139
 31
0.0
  0
SPLINE
  5
2bd
100
AcDbEntity
  8
Texto
 62
7
100
AcDbSpline
 70
0
 71
3
 72
19
 73
15
 74
13
 40
0.000000
 40
0.000000
 40
0.000000
 40
0.000000
 40
1.238743
 40
2.326896
 40
3.627798
 40
4.910084
 40
5.968886
 40
7.202431
 40
8.435977
 40
9.494779
 40
10.777066
 40
12.077967
 40
13.166121
 40
14.404864
 40
14.404864
 40
14.404864
 40
14.404864
 10
138.977980
 20
121.287139
 30
0.0
 10
139.033729
 20
120.852094
 30
0.0
 10
139.138449
 20
120.034891
 30
0.0
 10
140.318854
 20
119.407195
 30
0.0
 10
141.535771
 20
119.352826
 30
0.0
 10
142.758407
 20
119.402127
 30
0.0
 10
143.880137
 20
120.047359
 30
0.0
 10
144.124732
 20
121.287139
 30
0.0
 10
143.880138
 20
122.526919
 30
0.0
 10
142.758408
 20
123.172152
 30
0.0
 10
141.535771
 20
123.221453
 30
0.0
 10
140.318853
 20
123.167084
 30
0.0
 10
139.138449
 20
122.539388
 30
0.0
 10
139.033729
 20
121.722184
 30
0.0
 10
138.977980
 20
121.287139
 30
0.0
 11
138.977980
 21
121.287139
 31
0.0
 11
139.330120
 21
120.099502
 31
0.0
 11
140.252647
 21
119.522421
 31
0.0
 11
141.544720
 21
119.371121
 31
0.0
 11
142.818049
 21
119.522421
 31
0.0
 11
143.705764
 21
120.099502
 31
0.0
 11
144.039160
 21
121.287139
 31
0.0
 11
143.705764
 21
122.474776
 31
0.0
 11
142.818049
 21
123.051858
 31
0.0
 11
141.544720
 21
123.203158
 31
0.0
 11
140.252647
 21
123.051858
 31
0.0
 11
139.330120
 21
122.474776
 31
0.0
 11
138.977980
 21
121.287139
 31
0.0
  0
LINE
  5
2be
100
AcDbEntity
  8
Texto
 62
7
100
AcDbLine
 10
141.631480
 20
95.307750
 30
0.0
 11
141.645980
 21
95.307750
 31
0.0
  0
SPLINE
  5
2bf
100
AcDbEntity
  8
Texto
 62
7
100
AcDbSpline
 70
0
 71
3
 72
16
 73
12
 74
10
 40
0.000000
 40
0.000000
 40
0.000000
 40
0.000000
 40
0.634678
 40
1.191888
 40
1.787105
 40
2.802299
 40
3.613158
 40
4.438589
 40
4.941405
 40
5.459843
 40
6.070462
 40
6.070462
 40
6.070462
 40
6.070462
 10
139.339490
 20
97.997407
 30
0.0
 10
139.258137
 20
97.801618
 30
0.0
 10
139.105362
 20
97.433937
 30
0.0
 10
138.991543
 20
96.844989
 30
0.0
 10
138.961881
 20
96.123545
 30
0.0
 10
139.042683
 20
95.304696
 30
0.0
 10
139.575141
 20
94.525569
 30
0.0
 10
140.319658
 20
94.337386
 30
0.0
 10
140.933906
 20
94.438713
 30
0.0
 10
141.410276
 20
94.758526
 30
0.0
 10
141.553838
 20
95.114975
 30
0.0
 10
141.631480
 20
95.307750
 30
0.0
 11
139.339490
 21
97.997407
 31
0.0
 11
139.117227
 21
97.402919
 31
0.0
 11
139.007436
 21
96.856633
 31
0.0
 11
138.977980
 21
96.262145
 31
0.0
 11
139.144006
 21
95.260620
 31
0.0
 11
139.631377
 21
94.612574
 31
0.0
 11
140.424030
 21
94.382277
 31
0.0
 11
140.918633
 21
94.472789
 31
0.0
 11
141.344144
 21
94.768962
 31
0.0
 11
141.631480
 21
95.307750
 31
0.0
  0
LINE
  5
2c0
100
AcDbEntity
  8
Texto
 62
7
100
AcDbLine
 10
143.677680
 20
97.961256
 30
0.0
 11
142.593150
 21
97.961256
 31
0.0
  0
LINE
  5
2c1
100
AcDbEntity
  8
Texto
 62
7
100
AcDbLine
 10
142.593150
 20
97.961256
 30
0.0
 11
142.593150
 21
96.949019
 31
0.0
  0
LINE
  5
2c2
100
AcDbEntity
  8
Texto
 62
7
100
AcDbLine
 10
142.593150
 20
96.949019
 30
0.0
 11
142.954660
 21
96.949019
 31
0.0
  0
SPLINE
  5
2c3
100
AcDbEntity
  8
Texto
 62
7
100
AcDbSpline
 70
0
 71
3
 72
16
 73
12
 74
10
 40
0.000000
 40
0.000000
 40
0.000000
 40
0.000000
 40
0.513670
 40
0.958201
 40
1.419231
 40
2.189188
 40
2.916139
 40
3.704485
 40
4.292480
 40
4.913620
 40
5.595938
 40
5.595938
 40
5.595938
 40
5.595938
 10
141.645980
 20
95.307750
 30
0.0
 10
141.723935
 20
95.153039
 30
0.0
 10
141.869353
 20
94.864440
 30
0.0
 10
142.270616
 20
94.576684
 30
0.0
 10
142.832422
 20
94.482743
 30
0.0
 10
143.507999
 20
94.677079
 30
0.0
 10
143.963126
 20
95.344563
 30
0.0
 10
144.060204
 20
96.051751
 30
0.0
 10
144.018578
 20
96.716398
 30
0.0
 10
143.916155
 20
97.341980
 30
0.0
 10
143.759621
 20
97.748471
 30
0.0
 10
143.677680
 20
97.961256
 30
0.0
 11
141.645980
 21
95.307750
 31
0.0
 11
141.915910
 21
94.870721
 31
0.0
 11
142.277423
 21
94.612039
 31
0.0
 11
142.730520
 21
94.526882
 31
0.0
 11
143.465061
 21
94.757715
 31
0.0
 11
143.897539
 21
95.342027
 31
0.0
 11
144.039200
 21
96.117540
 31
0.0
 11
144.009744
 21
96.704797
 31
0.0
 11
143.899950
 21
97.316156
 31
0.0
 11
143.677680
 21
97.961256
 31
0.0
  0
LINE
  5
2c4
100
AcDbEntity
  8
Texto
 62
7
100
AcDbLine
 10
142.014720
 20
96.464592
 30
0.0
 11
142.014720
 21
97.093625
 31
0.0
  0
LINE
  5
2c5
100
AcDbEntity
  8
Texto
 62
7
100
AcDbLine
 10
142.014720
 20
97.093625
 30
0.0
 11
141.002490
 21
97.093625
 31
0.0
  0
LINE
  5
2c6
100
AcDbEntity
  8
Texto
 62
7
100
AcDbLine
 10
141.002490
 20
97.093625
 30
0.0
 11
141.002490
 21
96.406750
 31
0.0
  0
SPLINE
  5
2c7
100
AcDbEntity
  8
Texto
 62
7
100
AcDbSpline
 70
0
 71
3
 72
16
 73
12
 74
10
 40
0.000000
 40
0.000000
 40
0.000000
 40
0.000000
 40
0.208440
 40
0.406138
 40
0.620232
 40
0.935915
 40
1.186048
 40
1.421513
 40
1.686844
 40
1.983554
 40
2.465666
 40
2.465666
 40
2.465666
 40
2.465666
 10
142.954660
 20
96.949019
 30
0.0
 10
142.969611
 20
96.881129
 30
0.0
 10
142.998742
 20
96.748848
 30
0.0
 10
143.022245
 20
96.543060
 30
0.0
 10
143.033227
 20
96.300995
 30
0.0
 10
143.002333
 20
96.038317
 30
0.0
 10
142.838601
 20
95.802898
 30
0.0
 10
142.583061
 20
95.740000
 30
0.0
 10
142.311135
 20
95.770629
 30
0.0
 10
142.029141
 20
96.024960
 30
0.0
 10
142.020234
 20
96.296501
 30
0.0
 10
142.014720
 20
96.464592
 30
0.0
 11
142.954660
 21
96.949019
 31
0.0
 11
142.995893
 21
96.744698
 31
0.0
 11
143.019460
 21
96.548410
 31
0.0
 11
143.026960
 21
96.334447
 31
0.0
 11
142.970724
 21
96.023814
 31
0.0
 11
142.818086
 21
95.825652
 31
0.0
 11
142.593150
 21
95.756027
 31
0.0
 11
142.330716
 21
95.795123
 31
0.0
 11
142.108448
 21
95.991679
 31
0.0
 11
142.014720
 21
96.464592
 31
0.0
  0
LINE
  5
2c8
100
AcDbEntity
  8
Texto
 62
7
100
AcDbLine
 10
140.048050
 20
96.985171
 30
0.0
 11
140.424030
 21
96.985171
 31
0.0
  0
LINE
  5
2c9
100
AcDbEntity
  8
Texto
 62
7
100
AcDbLine
 10
140.424030
 20
96.985171
 30
0.0
 11
140.424030
 21
97.997407
 31
0.0
  0
LINE
  5
2ca
100
AcDbEntity
  8
Texto
 62
7
100
AcDbLine
 10
140.424030
 20
97.997407
 30
0.0
 11
139.339490
 21
97.997407
 31
0.0
  0
SPLINE
  5
2cb
100
AcDbEntity
  8
Texto
 62
7
100
AcDbSpline
 70
0
 71
3
 72
16
 73
12
 74
10
 40
0.000000
 40
0.000000
 40
0.000000
 40
0.000000
 40
0.407954
 40
0.711752
 40
1.033266
 40
1.287837
 40
1.581675
 40
1.975825
 40
2.191193
 40
2.407263
 40
2.630030
 40
2.630030
 40
2.630030
 40
2.630030
 10
141.002490
 20
96.406750
 30
0.0
 10
141.000313
 20
96.270646
 30
0.0
 10
140.996516
 20
96.033188
 30
0.0
 10
140.830518
 20
95.700012
 30
0.0
 10
140.516043
 20
95.620386
 30
0.0
 10
140.225745
 20
95.702836
 30
0.0
 10
140.021549
 20
95.968447
 30
0.0
 10
139.983846
 20
96.275668
 30
0.0
 10
139.994301
 20
96.549889
 30
0.0
 10
140.010624
 20
96.767745
 30
0.0
 10
140.035448
 20
96.911962
 30
0.0
 10
140.048050
 20
96.985171
 30
0.0
 11
141.002490
 21
96.406750
 31
0.0
 11
140.959643
 21
96.001052
 31
0.0
 11
140.804324
 21
95.739960
 31
0.0
 11
140.496370
 21
95.647573
 31
0.0
 11
140.252683
 21
95.721215
 31
0.0
 11
140.065231
 21
95.947495
 31
0.0
 11
139.990250
 21
96.334447
 31
0.0
 11
139.995613
 21
96.549748
 31
0.0
 11
140.013820
 21
96.765050
 31
0.0
 11
140.048050
 21
96.985171
 31
0.0
  0
LINE
  5
2cc
100
AcDbEntity
  8
Texto
 62
7
100
AcDbLine
 10
143.026920
 20
92.249347
 30
0.0
 11
143.026920
 21
92.249347
 31
0.0
  0
SPLINE
  5
2cd
100
AcDbEntity
  8
Texto
 62
7
100
AcDbSpline
 70
0
 71
3
 72
19
 73
15
 74
13
 40
0.000000
 40
0.000000
 40
0.000000
 40
0.000000
 40
0.411370
 40
0.958760
 40
1.746629
 40
2.553205
 40
3.133337
 40
3.553400
 40
3.973464
 40
4.553596
 40
5.360172
 40
6.148041
 40
6.695431
 40
7.106801
 40
7.106801
 40
7.106801
 40
7.106801
 10
143.026920
 20
92.249347
 30
0.0
 10
142.980762
 20
92.111242
 30
0.0
 10
142.873182
 20
91.789367
 30
0.0
 10
142.232300
 20
91.659253
 30
0.0
 10
141.543156
 20
91.619045
 30
0.0
 10
140.818593
 20
91.664124
 30
0.0
 10
140.204533
 20
91.781888
 30
0.0
 10
139.900198
 20
92.249347
 30
0.0
 10
140.204533
 20
92.716806
 30
0.0
 10
140.818593
 20
92.834570
 30
0.0
 10
141.543156
 20
92.879649
 30
0.0
 10
142.232300
 20
92.839441
 30
0.0
 10
142.873182
 20
92.709327
 30
0.0
 10
142.980762
 20
92.387452
 30
0.0
 10
143.026920
 20
92.249347
 30
0.0
 11
143.026920
 21
92.249347
 31
0.0
 11
142.843486
 21
91.881139
 31
0.0
 11
142.330674
 21
91.689671
 31
0.0
 11
141.544720
 21
91.634775
 31
0.0
 11
140.740014
 21
91.689671
 31
0.0
 11
140.192389
 21
91.881139
 31
0.0
 11
139.990210
 21
92.249347
 31
0.0
 11
140.192389
 21
92.617555
 31
0.0
 11
140.740014
 21
92.809023
 31
0.0
 11
141.544720
 21
92.863919
 31
0.0
 11
142.330674
 21
92.809023
 31
0.0
 11
142.843486
 21
92.617555
 31
0.0
 11
143.026920
 21
92.249347
 31
0.0
  0
LINE
  5
2ce
100
AcDbEntity
  8
Texto
 62
7
100
AcDbLine
 10
138.977980
 20
92.249347
 30
0.0
 11
138.977980
 21
92.249347
 31
0.0
  0
SPLINE
  5
2cf
100
AcDbEntity
  8
Texto
 62
7
100
AcDbSpline
 70
0
 71
3
 72
19
 73
15
 74
13
 40
0.000000
 40
0.000000
 40
0.000000
 40
0.000000
 40
1.238743
 40
2.326897
 40
3.627799
 40
4.910085
 40
5.968887
 40
7.202433
 40
8.435979
 40
9.494781
 40
10.777067
 40
12.077969
 40
13.166123
 40
14.404866
 40
14.404866
 40
14.404866
 40
14.404866
 10
138.977980
 20
92.249347
 30
0.0
 10
139.033729
 20
91.814302
 30
0.0
 10
139.138449
 20
90.997098
 30
0.0
 10
140.318853
 20
90.369402
 30
0.0
 10
141.535771
 20
90.315033
 30
0.0
 10
142.758408
 20
90.364334
 30
0.0
 10
143.880138
 20
91.009567
 30
0.0
 10
144.124732
 20
92.249347
 30
0.0
 10
143.880138
 20
93.489127
 30
0.0
 10
142.758408
 20
94.134360
 30
0.0
 10
141.535771
 20
94.183661
 30
0.0
 10
140.318853
 20
94.129292
 30
0.0
 10
139.138449
 20
93.501596
 30
0.0
 10
139.033729
 20
92.684392
 30
0.0
 10
138.977980
 20
92.249347
 30
0.0
 11
138.977980
 21
92.249347
 31
0.0
 11
139.330120
 21
91.061710
 31
0.0
 11
140.252647
 21
90.484628
 31
0.0
 11
141.544720
 21
90.333328
 31
0.0
 11
142.818049
 21
90.484628
 31
0.0
 11
143.705764
 21
91.061710
 31
0.0
 11
144.039160
 21
92.249347
 31
0.0
 11
143.705764
 21
93.436984
 31
0.0
 11
142.818049
 21
94.014066
 31
0.0
 11
141.544720
 21
94.165366
 31
0.0
 11
140.252647
 21
94.014066
 31
0.0
 11
139.330120
 21
93.436984
 31
0.0
 11
138.977980
 21
92.249347
 31
0.0
  0
LINE
  5
2d0
100
AcDbEntity
  8
Texto
 62
7
100
AcDbLine
 10
142.701560
 20
66.804994
 30
0.0
 11
142.701560
 21
66.790534
 31
0.0
  0
LINE
  5
2d1
100
AcDbEntity
  8
Texto
 62
7
100
AcDbLine
 10
142.701560
 20
66.790534
 30
0.0
 11
141.363960
 21
66.790534
 31
0.0
  0
LINE
  5
2d2
100
AcDbEntity
  8
Texto
 62
7
100
AcDbLine
 10
141.363960
 20
66.790534
 30
0.0
 11
141.363960
 21
67.708776
 31
0.0
  0
LINE
  5
2d3
100
AcDbEntity
  8
Texto
 62
7
100
AcDbLine
 10
140.062510
 20
66.790533
 30
0.0
 11
140.062510
 21
67.152046
 31
0.0
  0
LINE
  5
2d4
100
AcDbEntity
  8
Texto
 62
7
100
AcDbLine
 10
140.062510
 20
67.152046
 30
0.0
 11
139.050280
 21
67.152046
 31
0.0
  0
LINE
  5
2d5
100
AcDbEntity
  8
Texto
 62
7
100
AcDbLine
 10
139.050280
 20
67.152046
 30
0.0
 11
139.050280
 21
65.199876
 31
0.0
  0
LINE
  5
2d6
100
AcDbEntity
  8
Texto
 62
7
100
AcDbLine
 10
139.050280
 20
65.199876
 30
0.0
 11
140.062510
 21
65.199876
 31
0.0
  0
LINE
  5
2d7
100
AcDbEntity
  8
Texto
 62
7
100
AcDbLine
 10
140.062510
 20
65.199876
 30
0.0
 11
140.062510
 21
65.561389
 31
0.0
  0
LINE
  5
2d8
100
AcDbEntity
  8
Texto
 62
7
100
AcDbLine
 10
140.062510
 20
65.561389
 30
0.0
 11
140.351720
 21
65.561389
 31
0.0
  0
LINE
  5
2d9
100
AcDbEntity
  8
Texto
 62
7
100
AcDbLine
 10
140.351720
 20
65.561389
 30
0.0
 11
140.351720
 21
64.982968
 31
0.0
  0
LINE
  5
2da
100
AcDbEntity
  8
Texto
 62
7
100
AcDbLine
 10
140.351720
 20
64.982968
 30
0.0
 11
141.363960
 21
64.982968
 31
0.0
  0
LINE
  5
2db
100
AcDbEntity
  8
Texto
 62
7
100
AcDbLine
 10
141.363960
 20
64.982968
 30
0.0
 11
141.363960
 21
65.561389
 31
0.0
  0
LINE
  5
2dc
100
AcDbEntity
  8
Texto
 62
7
100
AcDbLine
 10
141.363960
 20
65.561389
 30
0.0
 11
144.003010
 21
65.561389
 31
0.0
  0
LINE
  5
2dd
100
AcDbEntity
  8
Texto
 62
7
100
AcDbLine
 10
144.003010
 20
65.561389
 30
0.0
 11
144.003010
 21
67.079744
 31
0.0
  0
SPLINE
  5
2de
100
AcDbEntity
  8
Texto
 62
7
100
AcDbSpline
 70
0
 71
3
 72
10
 73
6
 74
4
 40
0.000000
 40
0.000000
 40
0.000000
 40
0.000000
 40
0.533726
 40
1.025330
 40
1.616020
 40
1.616020
 40
1.616020
 40
1.616020
 10
141.363960
 20
67.708776
 30
0.0
 10
141.503829
 20
67.598734
 30
0.0
 10
141.772528
 20
67.387335
 30
0.0
 10
142.221053
 20
67.088093
 30
0.0
 10
142.531905
 20
66.904949
 30
0.0
 10
142.701560
 20
66.804994
 30
0.0
 11
141.363960
 21
67.708776
 31
0.0
 11
141.787870
 21
67.384486
 31
0.0
 11
142.195710
 21
67.110004
 31
0.0
 11
142.701560
 21
66.804994
 31
0.0
  0
LINE
  5
2df
100
AcDbEntity
  8
Texto
 62
7
100
AcDbLine
 10
141.363960
 20
68.959611
 30
0.0
 11
140.351720
 21
68.959611
 31
0.0
  0
LINE
  5
2e0
100
AcDbEntity
  8
Texto
 62
7
100
AcDbLine
 10
140.351720
 20
68.959611
 30
0.0
 11
140.351720
 21
66.790533
 31
0.0
  0
LINE
  5
2e1
100
AcDbEntity
  8
Texto
 62
7
100
AcDbLine
 10
140.351720
 20
66.790533
 30
0.0
 11
140.062510
 21
66.790533
 31
0.0
  0
SPLINE
  5
2e2
100
AcDbEntity
  8
Texto
 62
7
100
AcDbSpline
 70
0
 71
3
 72
10
 73
6
 74
4
 40
0.000000
 40
0.000000
 40
0.000000
 40
0.000000
 40
1.139283
 40
2.165445
 40
3.256809
 40
3.256809
 40
3.256809
 40
3.256809
 10
144.003010
 20
67.079744
 30
0.0
 10
143.660472
 20
67.246205
 30
0.0
 10
143.009406
 20
67.562598
 30
0.0
 10
142.150116
 20
68.235100
 30
0.0
 10
141.631337
 20
68.713200
 30
0.0
 10
141.363960
 20
68.959611
 30
0.0
 11
144.003010
 21
67.079744
 31
0.0
 11
142.997463
 21
67.615319
 31
0.0
 11
142.176694
 21
68.231230
 31
0.0
 11
141.363960
 21
68.959611
 31
0.0
  0
LINE
  5
2e3
100
AcDbEntity
  8
Texto
 62
7
100
AcDbLine
 10
143.026920
 20
62.850044
 30
0.0
 11
143.026920
 21
62.850044
 31
0.0
  0
SPLINE
  5
2e4
100
AcDbEntity
  8
Texto
 62
7
100
AcDbSpline
 70
0
 71
3
 72
19
 73
15
 74
13
 40
0.000000
 40
0.000000
 40
0.000000
 40
0.000000
 40
0.411370
 40
0.958760
 40
1.746629
 40
2.553205
 40
3.133337
 40
3.553400
 40
3.973464
 40
4.553596
 40
5.360172
 40
6.148041
 40
6.695431
 40
7.106801
 40
7.106801
 40
7.106801
 40
7.106801
 10
143.026920
 20
62.850044
 30
0.0
 10
142.980762
 20
62.711939
 30
0.0
 10
142.873182
 20
62.390064
 30
0.0
 10
142.232300
 20
62.259950
 30
0.0
 10
141.543156
 20
62.219742
 30
0.0
 10
140.818593
 20
62.264821
 30
0.0
 10
140.204533
 20
62.382585
 30
0.0
 10
139.900198
 20
62.850044
 30
0.0
 10
140.204533
 20
63.317503
 30
0.0
 10
140.818593
 20
63.435267
 30
0.0
 10
141.543156
 20
63.480346
 30
0.0
 10
142.232300
 20
63.440138
 30
0.0
 10
142.873182
 20
63.310024
 30
0.0
 10
142.980762
 20
62.988149
 30
0.0
 10
143.026920
 20
62.850044
 30
0.0
 11
143.026920
 21
62.850044
 31
0.0
 11
142.843486
 21
62.481836
 31
0.0
 11
142.330674
 21
62.290368
 31
0.0
 11
141.544720
 21
62.235472
 31
0.0
 11
140.740014
 21
62.290368
 31
0.0
 11
140.192389
 21
62.481836
 31
0.0
 11
139.990210
 21
62.850044
 31
0.0
 11
140.192389
 21
63.218252
 31
0.0
 11
140.740014
 21
63.409720
 31
0.0
 11
141.544720
 21
63.464616
 31
0.0
 11
142.330674
 21
63.409720
 31
0.0
 11
142.843486
 21
63.218252
 31
0.0
 11
143.026920
 21
62.850044
 31
0.0
  0
LINE
  5
2e5
100
AcDbEntity
  8
Texto
 62
7
100
AcDbLine
 10
138.977980
 20
62.850044
 30
0.0
 11
138.977980
 21
62.850044
 31
0.0
  0
LINE
  5
2e6
100
AcDbEntity
  8
Texto
 62
7
100
AcDbLine
 10
143.966850
 20
36.378990
 30
0.0
 11
143.966850
 21
39.704910
 31
0.0
  0
LINE
  5
2e7
100
AcDbEntity
  8
Texto
 62
7
100
AcDbLine
 10
143.966850
 20
39.704910
 30
0.0
 11
141.147050
 21
39.777210
 31
0.0
  0
LINE
  5
2e8
100
AcDbEntity
  8
Texto
 62
7
100
AcDbLine
 10
141.147050
 20
39.777210
 30
0.0
 11
141.074750
 21
38.909580
 31
0.0
  0
SPLINE
  5
2e9
100
AcDbEntity
  8
Texto
 62
7
100
AcDbSpline
 70
0
 71
3
 72
19
 73
15
 74
13
 40
0.000000
 40
0.000000
 40
0.000000
 40
0.000000
 40
1.238743
 40
2.326897
 40
3.627799
 40
4.910085
 40
5.968887
 40
7.202433
 40
8.435979
 40
9.494781
 40
10.777067
 40
12.077969
 40
13.166123
 40
14.404866
 40
14.404866
 40
14.404866
 40
14.404866
 10
138.977980
 20
62.850044
 30
0.0
 10
139.033729
 20
62.414999
 30
0.0
 10
139.138449
 20
61.597795
 30
0.0
 10
140.318853
 20
60.970099
 30
0.0
 10
141.535771
 20
60.915730
 30
0.0
 10
142.758408
 20
60.965031
 30
0.0
 10
143.880138
 20
61.610264
 30
0.0
 10
144.124732
 20
62.850044
 30
0.0
 10
143.880138
 20
64.089824
 30
0.0
 10
142.758408
 20
64.735057
 30
0.0
 10
141.535771
 20
64.784358
 30
0.0
 10
140.318853
 20
64.729989
 30
0.0
 10
139.138449
 20
64.102293
 30
0.0
 10
139.033729
 20
63.285089
 30
0.0
 10
138.977980
 20
62.850044
 30
0.0
 11
138.977980
 21
62.850044
 31
0.0
 11
139.330120
 21
61.662407
 31
0.0
 11
140.252647
 21
61.085325
 31
0.0
 11
141.544720
 21
60.934025
 31
0.0
 11
142.818049
 21
61.085325
 31
0.0
 11
143.705764
 21
61.662407
 31
0.0
 11
144.039160
 21
62.850044
 31
0.0
 11
143.705764
 21
64.037681
 31
0.0
 11
142.818049
 21
64.614763
 31
0.0
 11
141.544720
 21
64.766063
 31
0.0
 11
140.252647
 21
64.614763
 31
0.0
 11
139.330120
 21
64.037681
 31
0.0
 11
138.977980
 21
62.850044
 31
0.0
  0
LINE
  5
2ea
100
AcDbEntity
  8
Texto
 62
7
100
AcDbLine
 10
140.040810
 20
38.837280
 30
0.0
 11
140.351710
 21
38.837280
 31
0.0
  0
LINE
  5
2eb
100
AcDbEntity
  8
Texto
 62
7
100
AcDbLine
 10
140.351710
 20
38.837280
 30
0.0
 11
140.351710
 21
39.849510
 31
0.0
  0
LINE
  5
2ec
100
AcDbEntity
  8
Texto
 62
7
100
AcDbLine
 10
140.351710
 20
39.849510
 30
0.0
 11
139.339480
 21
39.849510
 31
0.0
  0
SPLINE
  5
2ed
100
AcDbEntity
  8
Texto
 62
7
100
AcDbSpline
 70
0
 71
3
 72
19
 73
15
 74
13
 40
0.000000
 40
0.000000
 40
0.000000
 40
0.000000
 40
0.235369
 40
0.457669
 40
0.733212
 40
1.165115
 40
1.491016
 40
1.793790
 40
2.114172
 40
2.445678
 40
2.884850
 40
3.083074
 40
3.275506
 40
3.466273
 40
3.466273
 40
3.466273
 40
3.466273
 10
141.074750
 20
38.909580
 30
0.0
 10
141.117914
 20
38.843829
 30
0.0
 10
141.201846
 20
38.715979
 30
0.0
 10
141.281882
 20
38.481305
 30
0.0
 10
141.303661
 20
38.172869
 30
0.0
 10
141.247584
 20
37.810417
 30
0.0
 10
140.954749
 20
37.569296
 30
0.0
 10
140.635500
 20
37.518486
 30
0.0
 10
140.311167
 20
37.573811
 30
0.0
 10
140.028318
 20
37.842224
 30
0.0
 10
139.983582
 20
38.180210
 30
0.0
 10
139.993953
 20
38.454870
 30
0.0
 10
140.008625
 20
38.648648
 30
0.0
 10
140.030113
 20
38.774585
 30
0.0
 10
140.040810
 20
38.837280
 30
0.0
 11
141.074750
 21
38.909580
 31
0.0
 11
141.195257
 21
38.707400
 31
0.0
 11
141.267560
 21
38.497187
 31
0.0
 11
141.291660
 21
38.222700
 31
0.0
 11
141.187223
 21
37.803614
 31
0.0
 11
140.938180
 21
37.593403
 31
0.0
 11
140.640930
 21
37.535830
 31
0.0
 11
140.327620
 21
37.602778
 31
0.0
 11
140.086613
 21
37.830399
 31
0.0
 11
139.990210
 21
38.258860
 31
0.0
 11
139.995306
 21
38.457019
 31
0.0
 11
140.011647
 21
38.648755
 31
0.0
 11
140.040810
 21
38.837280
 31
0.0
  0
LINE
  5
2ee
100
AcDbEntity
  8
Texto
 62
7
100
AcDbLine
 10
142.123130
 20
38.663750
 30
0.0
 11
142.130130
 21
38.678250
 31
0.0
  0
LINE
  5
2ef
100
AcDbEntity
  8
Texto
 62
7
100
AcDbLine
 10
142.130130
 20
38.678250
 30
0.0
 11
142.882080
 21
38.642050
 31
0.0
  0
LINE
  5
2f0
100
AcDbEntity
  8
Texto
 62
7
100
AcDbLine
 10
142.882080
 20
38.642050
 30
0.0
 11
142.882080
 21
37.391210
 31
0.0
  0
LINE
  5
2f1
100
AcDbEntity
  8
Texto
 62
7
100
AcDbLine
 10
142.882080
 20
37.391210
 30
0.0
 11
142.592870
 21
37.391210
 31
0.0
  0
LINE
  5
2f2
100
AcDbEntity
  8
Texto
 62
7
100
AcDbLine
 10
142.592870
 20
37.391210
 30
0.0
 11
142.592870
 21
36.378980
 31
0.0
  0
LINE
  5
2f3
100
AcDbEntity
  8
Texto
 62
7
100
AcDbLine
 10
142.592870
 20
36.378980
 30
0.0
 11
143.966850
 21
36.378990
 31
0.0
  0
SPLINE
  5
2f4
100
AcDbEntity
  8
Texto
 62
7
100
AcDbSpline
 70
0
 71
3
 72
19
 73
15
 74
13
 40
0.000000
 40
0.000000
 40
0.000000
 40
0.000000
 40
0.639696
 40
1.186410
 40
1.714773
 40
2.784692
 40
3.667404
 40
4.659189
 40
5.583478
 40
6.345833
 40
7.176338
 40
7.541283
 40
7.837860
 40
8.102322
 40
8.102322
 40
8.102322
 40
8.102322
 10
139.339480
 20
39.849510
 30
0.0
 10
139.258419
 20
39.651882
 30
0.0
 10
139.108080
 20
39.285353
 30
0.0
 10
138.994793
 20
38.720993
 30
0.0
 10
138.959900
 20
38.008394
 30
0.0
 10
139.051073
 20
37.159229
 30
0.0
 10
139.725932
 20
36.347293
 30
0.0
 10
140.692381
 20
36.181399
 30
0.0
 10
141.604444
 20
36.319939
 30
0.0
 10
142.250021
 20
36.945477
 30
0.0
 10
142.359052
 20
37.621386
 30
0.0
 10
142.325933
 20
38.116617
 30
0.0
 10
142.251577
 20
38.419557
 30
0.0
 10
142.164280
 20
38.585519
 30
0.0
 10
142.123130
 20
38.663750
 30
0.0
 11
139.339480
 21
39.849510
 31
0.0
 11
139.117217
 21
39.249668
 31
0.0
 11
139.007426
 21
38.714092
 31
0.0
 11
138.977970
 21
38.186550
 31
0.0
 11
139.170777
 21
37.134147
 31
0.0
 11
139.749197
 21
36.467356
 31
0.0
 11
140.713230
 21
36.234380
 31
0.0
 11
141.617013
 21
36.427990
 31
0.0
 11
142.159283
 21
36.963833
 31
0.0
 11
142.340040
 21
37.774430
 31
0.0
 11
142.312717
 21
38.138350
 31
0.0
 11
142.237193
 21
38.425150
 31
0.0
 11
142.123130
 21
38.663750
 31
0.0
  0
LINE
  5
2f5
100
AcDbEntity
  8
Texto
 62
7
100
AcDbLine
 10
143.026920
 20
34.029150
 30
0.0
 11
143.026920
 21
34.029150
 31
0.0
  0
SPLINE
  5
2f6
100
AcDbEntity
  8
Texto
 62
7
100
AcDbSpline
 70
0
 71
3
 72
19
 73
15
 74
13
 40
0.000000
 40
0.000000
 40
0.000000
 40
0.000000
 40
0.411373
 40
0.958764
 40
1.746633
 40
2.553209
 40
3.133342
 40
3.553409
 40
3.973469
 40
4.553602
 40
5.360178
 40
6.148047
 40
6.695437
 40
7.106803
 40
7.106803
 40
7.106803
 40
7.106803
 10
143.026920
 20
34.029150
 30
0.0
 10
142.980762
 20
33.891044
 30
0.0
 10
142.873183
 20
33.569167
 30
0.0
 10
142.232300
 20
33.439048
 30
0.0
 10
141.543156
 20
33.398840
 30
0.0
 10
140.818593
 20
33.443920
 30
0.0
 10
140.204533
 20
33.561687
 30
0.0
 10
139.900198
 20
34.029148
 30
0.0
 10
140.204535
 20
34.496606
 30
0.0
 10
140.818593
 20
34.614370
 30
0.0
 10
141.543156
 20
34.659451
 30
0.0
 10
142.232300
 20
34.619241
 30
0.0
 10
142.873181
 20
34.489126
 30
0.0
 10
142.980761
 20
34.167254
 30
0.0
 10
143.026920
 20
34.029150
 30
0.0
 11
143.026920
 21
34.029150
 31
0.0
 11
142.843486
 21
33.660939
 31
0.0
 11
142.330674
 21
33.469468
 31
0.0
 11
141.544720
 21
33.414570
 31
0.0
 11
140.740014
 21
33.469468
 31
0.0
 11
140.192389
 21
33.660939
 31
0.0
 11
139.990210
 21
34.029150
 31
0.0
 11
140.192389
 21
34.397354
 31
0.0
 11
140.740014
 21
34.588823
 31
0.0
 11
141.544720
 21
34.643720
 31
0.0
 11
142.330674
 21
34.588823
 31
0.0
 11
142.843486
 21
34.397354
 31
0.0
 11
143.026920
 21
34.029150
 31
0.0
  0
LINE
  5
2f7
100
AcDbEntity
  8
Texto
 62
7
100
AcDbLine
 10
138.977980
 20
34.029150
 30
0.0
 11
138.977980
 21
34.029150
 31
0.0
  0
LINE
  5
2f8
100
AcDbEntity
  8
Camada_1
 62
1
100
AcDbLine
 10
23.977556
 20
135.992655
 30
0.0
 11
49.556547
 21
135.992655
 31
0.0
  0
LINE
  5
2f9
100
AcDbEntity
  8
Camada_1
 62
1
100
AcDbLine
 10
49.556547
 20
135.992655
 30
0.0
 11
49.556547
 21
110.413664
 31
0.0
  0
LINE
  5
2fa
100
AcDbEntity
  8
Camada_1
 62
1
100
AcDbLine
 10
49.556547
 20
110.413664
 30
0.0
 11
23.977556
 21
110.413664
 31
0.0
  0
LINE
  5
2fb
100
AcDbEntity
  8
Camada_1
 62
1
100
AcDbLine
 10
23.977556
 20
110.413664
 30
0.0
 11
23.977556
 21
135.992655
 31
0.0
  0
LINE
  5
2fc
100
AcDbEntity
  8
Camada_1
 62
1
100
AcDbLine
 10
52.799522
 20
135.992655
 30
0.0
 11
78.378513
 21
135.992655
 31
0.0
  0
LINE
  5
2fd
100
AcDbEntity
  8
Camada_1
 62
1
100
AcDbLine
 10
78.378513
 20
135.992655
 30
0.0
 11
78.378513
 21
110.413664
 31
0.0
  0
LINE
  5
2fe
100
AcDbEntity
  8
Camada_1
 62
1
100
AcDbLine
 10
78.378513
 20
110.413664
 30
0.0
 11
52.799522
 21
110.413664
 31
0.0
  0
LINE
  5
2ff
100
AcDbEntity
  8
Camada_1
 62
1
100
AcDbLine
 10
52.799522
 20
110.413664
 30
0.0
 11
52.799522
 21
135.992655
 31
0.0
  0
LINE
  5
300
100
AcDbEntity
  8
Camada_1
 62
6
100
AcDbLine
 10
81.621490
 20
135.992655
 30
0.0
 11
107.200480
 21
135.992655
 31
0.0
  0
LINE
  5
301
100
AcDbEntity
  8
Camada_1
 62
6
100
AcDbLine
 10
107.200480
 20
135.992655
 30
0.0
 11
107.200480
 21
110.413664
 31
0.0
  0
LINE
  5
302
100
AcDbEntity
  8
Camada_1
 62
6
100
AcDbLine
 10
107.200480
 20
110.413664
 30
0.0
 11
81.621490
 21
110.413664
 31
0.0
  0
LINE
  5
303
100
AcDbEntity
  8
Camada_1
 62
6
100
AcDbLine
 10
81.621490
 20
110.413664
 30
0.0
 11
81.621490
 21
135.992655
 31
0.0
  0
LINE
  5
304
100
AcDbEntity
  8
Camada_1
 62
5
100
AcDbLine
 10
110.443450
 20
135.992655
 30
0.0
 11
136.022440
 21
135.992655
 31
0.0
  0
LINE
  5
305
100
AcDbEntity
  8
Camada_1
 62
5
100
AcDbLine
 10
136.022440
 20
135.992655
 30
0.0
 11
136.022440
 21
110.413664
 31
0.0
  0
LINE
  5
306
100
AcDbEntity
  8
Camada_1
 62
5
100
AcDbLine
 10
136.022440
 20
110.413664
 30
0.0
 11
110.443450
 21
110.413664
 31
0.0
  0
LINE
  5
307
100
AcDbEntity
  8
Camada_1
 62
5
100
AcDbLine
 10
110.443450
 20
110.413664
 30
0.0
 11
110.443450
 21
135.992655
 31
0.0
  0
LINE
  5
308
100
AcDbEntity
  8
Camada_1
 62
4
100
AcDbLine
 10
23.977556
 20
106.954865
 30
0.0
 11
49.556547
 21
106.954865
 31
0.0
  0
LINE
  5
309
100
AcDbEntity
  8
Camada_1
 62
4
100
AcDbLine
 10
49.556547
 20
106.954865
 30
0.0
 11
49.556547
 21
81.375874
 31
0.0
  0
LINE
  5
30a
100
AcDbEntity
  8
Camada_1
 62
4
100
AcDbLine
 10
49.556547
 20
81.375874
 30
0.0
 11
23.977556
 21
81.375874
 31
0.0
  0
LINE
  5
30b
100
AcDbEntity
  8
Camada_1
 62
4
100
AcDbLine
 10
23.977556
 20
81.375874
 30
0.0
 11
23.977556
 21
106.954865
 31
0.0
  0
LINE
  5
30c
100
AcDbEntity
  8
Camada_1
 62
4
100
AcDbLine
 10
52.799522
 20
106.954865
 30
0.0
 11
78.378513
 21
106.954865
 31
0.0
  0
LINE
  5
30d
100
AcDbEntity
  8
Camada_1
 62
4
100
AcDbLine
 10
78.378513
 20
106.954865
 30
0.0
 11
78.378513
 21
81.375874
 31
0.0
  0
LINE
  5
30e
100
AcDbEntity
  8
Camada_1
 62
4
100
AcDbLine
 10
78.378513
 20
81.375874
 30
0.0
 11
52.799522
 21
81.375874
 31
0.0
  0
LINE
  5
30f
100
AcDbEntity
  8
Camada_1
 62
4
100
AcDbLine
 10
52.799522
 20
81.375874
 30
0.0
 11
52.799522
 21
106.954865
 31
0.0
  0
LINE
  5
310
100
AcDbEntity
  8
Camada_1
 62
4
100
AcDbLine
 10
81.621490
 20
106.954865
 30
0.0
 11
107.200480
 21
106.954865
 31
0.0
  0
LINE
  5
311
100
AcDbEntity
  8
Camada_1
 62
4
100
AcDbLine
 10
107.200480
 20
106.954865
 30
0.0
 11
107.200480
 21
81.375874
 31
0.0
  0
LINE
  5
312
100
AcDbEntity
  8
Camada_1
 62
4
100
AcDbLine
 10
107.200480
 20
81.375874
 30
0.0
 11
81.621490
 21
81.375874
 31
0.0
  0
LINE
  5
313
100
AcDbEntity
  8
Camada_1
 62
4
100
AcDbLine
 10
81.621490
 20
81.375874
 30
0.0
 11
81.621490
 21
106.954865
 31
0.0
  0
LINE
  5
314
100
AcDbEntity
  8
Camada_1
 62
3
100
AcDbLine
 10
110.443450
 20
106.954865
 30
0.0
 11
136.022440
 21
106.954865
 31
0.0
  0
LINE
  5
315
100
AcDbEntity
  8
Camada_1
 62
3
100
AcDbLine
 10
136.022440
 20
106.954865
 30
0.0
 11
136.022440
 21
81.375874
 31
0.0
  0
LINE
  5
316
100
AcDbEntity
  8
Camada_1
 62
3
100
AcDbLine
 10
136.022440
 20
81.375874
 30
0.0
 11
110.443450
 21
81.375874
 31
0.0
  0
LINE
  5
317
100
AcDbEntity
  8
Camada_1
 62
3
100
AcDbLine
 10
110.443450
 20
81.375874
 30
0.0
 11
110.443450
 21
106.954865
 31
0.0
  0
LINE
  5
318
100
AcDbEntity
  8
Camada_1
 62
3
100
AcDbLine
 10
23.977556
 20
77.917068
 30
0.0
 11
49.556547
 21
77.917068
 31
0.0
  0
LINE
  5
319
100
AcDbEntity
  8
Camada_1
 62
3
100
AcDbLine
 10
49.556547
 20
77.917068
 30
0.0
 11
49.556547
 21
52.338080
 31
0.0
  0
LINE
  5
31a
100
AcDbEntity
  8
Camada_1
 62
3
100
AcDbLine
 10
49.556547
 20
52.338080
 30
0.0
 11
23.977556
 21
52.338080
 31
0.0
  0
LINE
  5
31b
100
AcDbEntity
  8
Camada_1
 62
3
100
AcDbLine
 10
23.977556
 20
52.338080
 30
0.0
 11
23.977556
 21
77.917068
 31
0.0
  0
LINE
  5
31c
100
AcDbEntity
  8
Camada_1
 62
1
100
AcDbLine
 10
52.799522
 20
77.917068
 30
0.0
 11
78.378513
 21
77.917068
 31
0.0
  0
LINE
  5
31d
100
AcDbEntity
  8
Camada_1
 62
1
100
AcDbLine
 10
78.378513
 20
77.917068
 30
0.0
 11
78.378513
 21
52.338080
 31
0.0
  0
LINE
  5
31e
100
AcDbEntity
  8
Camada_1
 62
1
100
AcDbLine
 10
78.378513
 20
52.338080
 30
0.0
 11
52.799522
 21
52.338080
 31
0.0
  0
LINE
  5
31f
100
AcDbEntity
  8
Camada_1
 62
1
100
AcDbLine
 10
52.799522
 20
52.338080
 30
0.0
 11
52.799522
 21
77.917068
 31
0.0
  0
LINE
  5
320
100
AcDbEntity
  8
Camada_1
 62
6
100
AcDbLine
 10
81.621490
 20
77.917068
 30
0.0
 11
107.200480
 21
77.917068
 31
0.0
  0
LINE
  5
321
100
AcDbEntity
  8
Camada_1
 62
6
100
AcDbLine
 10
107.200480
 20
77.917068
 30
0.0
 11
107.200480
 21
52.338080
 31
0.0
  0
LINE
  5
322
100
AcDbEntity
  8
Camada_1
 62
6
100
AcDbLine
 10
107.200480
 20
52.338080
 30
0.0
 11
81.621490
 21
52.338080
 31
0.0
  0
LINE
  5
323
100
AcDbEntity
  8
Camada_1
 62
6
100
AcDbLine
 10
81.621490
 20
52.338080
 30
0.0
 11
81.621490
 21
77.917068
 31
0.0
  0
LINE
  5
324
100
AcDbEntity
  8
Camada_1
 62
5
100
AcDbLine
 10
110.443450
 20
77.917068
 30
0.0
 11
136.022440
 21
77.917068
 31
0.0
  0
LINE
  5
325
100
AcDbEntity
  8
Camada_1
 62
5
100
AcDbLine
 10
136.022440
 20
77.917068
 30
0.0
 11
136.022440
 21
52.338080
 31
0.0
  0
LINE
  5
326
100
AcDbEntity
  8
Camada_1
 62
5
100
AcDbLine
 10
136.022440
 20
52.338080
 30
0.0
 11
110.443450
 21
52.338080
 31
0.0
  0
LINE
  5
327
100
AcDbEntity
  8
Camada_1
 62
5
100
AcDbLine
 10
110.443450
 20
52.338080
 30
0.0
 11
110.443450
 21
77.917068
 31
0.0
  0
LINE
  5
328
100
AcDbEntity
  8
Camada_1
 62
4
100
AcDbLine
 10
23.977556
 20
48.879280
 30
0.0
 11
49.556547
 21
48.879280
 31
0.0
  0
LINE
  5
329
100
AcDbEntity
  8
Camada_1
 62
4
100
AcDbLine
 10
49.556547
 20
48.879280
 30
0.0
 11
49.556547
 21
23.300290
 31
0.0
  0
LINE
  5
32a
100
AcDbEntity
  8
Camada_1
 62
4
100
AcDbLine
 10
49.556547
 20
23.300290
 30
0.0
 11
23.977556
 21
23.300290
 31
0.0
  0
LINE
  5
32b
100
AcDbEntity
  8
Camada_1
 62
4
100
AcDbLine
 10
23.977556
 20
23.300290
 30
0.0
 11
23.977556
 21
48.879280
 31
0.0
  0
LINE
  5
32c
100
AcDbEntity
  8
Camada_1
 62
4
100
AcDbLine
 10
52.799522
 20
48.879280
 30
0.0
 11
78.378513
 21
48.879280
 31
0.0
  0
LINE
  5
32d
100
AcDbEntity
  8
Camada_1
 62
4
100
AcDbLine
 10
78.378513
 20
48.879280
 30
0.0
 11
78.378513
 21
23.300290
 31
0.0
  0
LINE
  5
32e
100
AcDbEntity
  8
Camada_1
 62
4
100
AcDbLine
 10
78.378513
 20
23.300290
 30
0.0
 11
52.799522
 21
23.300290
 31
0.0
  0
LINE
  5
32f
100
AcDbEntity
  8
Camada_1
 62
4
100
AcDbLine
 10
52.799522
 20
23.300290
 30
0.0
 11
52.799522
 21
48.879280
 31
0.0
  0
LINE
  5
330
100
AcDbEntity
  8
Camada_1
 62
3
100
AcDbLine
 10
81.621490
 20
48.879280
 30
0.0
 11
107.200480
 21
48.879280
 31
0.0
  0
LINE
  5
331
100
AcDbEntity
  8
Camada_1
 62
3
100
AcDbLine
 10
107.200480
 20
48.879280
 30
0.0
 11
107.200480
 21
23.300290
 31
0.0
  0
LINE
  5
332
100
AcDbEntity
  8
Camada_1
 62
3
100
AcDbLine
 10
107.200480
 20
23.300290
 30
0.0
 11
81.621490
 21
23.300290
 31
0.0
  0
LINE
  5
333
100
AcDbEntity
  8
Camada_1
 62
3
100
AcDbLine
 10
81.621490
 20
23.300290
 30
0.0
 11
81.621490
 21
48.879280
 31
0.0
  0
LINE
  5
334
100
AcDbEntity
  8
Camada_1
 62
3
100
AcDbLine
 10
110.443450
 20
48.879280
 30
0.0
 11
136.022440
 21
48.879280
 31
0.0
  0
LINE
  5
335
100
AcDbEntity
  8
Camada_1
 62
3
100
AcDbLine
 10
136.022440
 20
48.879280
 30
0.0
 11
136.022440
 21
23.300290
 31
0.0
  0
LINE
  5
336
100
AcDbEntity
  8
Camada_1
 62
3
100
AcDbLine
 10
136.022440
 20
23.300290
 30
0.0
 11
110.443450
 21
23.300290
 31
0.0
  0
LINE
  5
337
100
AcDbEntity
  8
Camada_1
 62
3
100
AcDbLine
 10
110.443450
 20
23.300290
 30
0.0
 11
110.443450
 21
48.879280
 31
0.0
  0
SPLINE
  5
338
100
AcDbEntity
  8
Texto
 62
7
100
AcDbSpline
 70
0
 71
3
 72
19
 73
15
 74
13
 40
0.000000
 40
0.000000
 40
0.000000
 40
0.000000
 40
1.238745
 40
2.326899
 40
3.627800
 40
4.910087
 40
5.968889
 40
7.202436
 40
8.435980
 40
9.494783
 40
10.777069
 40
12.077971
 40
13.166126
 40
14.404867
 40
14.404867
 40
14.404867
 40
14.404867
 10
138.977980
 20
34.029150
 30
0.0
 10
139.033729
 20
33.594104
 30
0.0
 10
139.138448
 20
32.776900
 30
0.0
 10
140.318854
 20
32.149203
 30
0.0
 10
141.535771
 20
32.094836
 30
0.0
 10
142.758407
 20
32.144136
 30
0.0
 10
143.880138
 20
32.789368
 30
0.0
 10
144.124732
 20
34.029149
 30
0.0
 10
143.880136
 20
35.268928
 30
0.0
 10
142.758408
 20
35.914162
 30
0.0
 10
141.535771
 20
35.963466
 30
0.0
 10
140.318853
 20
35.909095
 30
0.0
 10
139.138450
 20
35.281397
 30
0.0
 10
139.033729
 20
34.464194
 30
0.0
 10
138.977980
 20
34.029150
 30
0.0
 11
138.977980
 21
34.029150
 31
0.0
 11
139.330120
 21
32.841511
 31
0.0
 11
140.252647
 21
32.264429
 31
0.0
 11
141.544720
 21
32.113130
 31
0.0
 11
142.818049
 21
32.264429
 31
0.0
 11
143.705764
 21
32.841511
 31
0.0
 11
144.039160
 21
34.029150
 31
0.0
 11
143.705764
 21
35.216785
 31
0.0
 11
142.818049
 21
35.793869
 31
0.0
 11
141.544720
 21
35.945170
 31
0.0
 11
140.252647
 21
35.793869
 31
0.0
 11
139.330120
 21
35.216785
 31
0.0
 11
138.977980
 21
34.029150
 31
0.0
  0
ENDSEC
  0
SECTION
  2
OBJECTS
  0
DICTIONARY
  5
C
330
0
100
AcDbDictionary
  3
ACAD_GROUP
350
D
  3
ACAD_MLINESTYLE
350
17
  0
DICTIONARY
  5
D
330
C
100
AcDbDictionary
  0
DICTIONARY
  5
1A
330
C
100
AcDbDictionary
  0
DICTIONARY
  5
17
330
C
100
AcDbDictionary
  3
STANDARD
350
18
  0
DICTIONARY
  5
19
330
C
100
AcDbDictionary
  0
ENDSEC
  0
EOF
