<?xml version="1.0" encoding="UTF-8" standalone="no"?>
<!-- Created with Inkscape (http://www.inkscape.org/) -->

<svg
   width="160mm"
   height="160mm"
   viewBox="0 0 160 160"
   version="1.1"
   id="svg1"
   inkscape:version="1.3 (0e150ed6c4, 2023-07-21)"
   sodipodi:docname="TesteGravacao.svg"
   xmlns:inkscape="http://www.inkscape.org/namespaces/inkscape"
   xmlns:sodipodi="http://sodipodi.sourceforge.net/DTD/sodipodi-0.dtd"
   xmlns="http://www.w3.org/2000/svg"
   xmlns:svg="http://www.w3.org/2000/svg">
  <sodipodi:namedview
     id="namedview1"
     pagecolor="#ffffff"
     bordercolor="#000000"
     borderopacity="0.25"
     inkscape:showpageshadow="2"
     inkscape:pageopacity="0.0"
     inkscape:pagecheckerboard="0"
     inkscape:deskcolor="#d1d1d1"
     inkscape:document-units="mm"
     inkscape:zoom="1.0242632"
     inkscape:cx="311.93154"
     inkscape:cy="272.87908"
     inkscape:window-width="1920"
     inkscape:window-height="1009"
     inkscape:window-x="-8"
     inkscape:window-y="892"
     inkscape:window-maximized="1"
     inkscape:current-layer="layer1" />
  <defs
     id="defs1" />
  <g
     inkscape:groupmode="layer"
     id="layer2"
     inkscape:label="Texto"
     style="display:inline"
     sodipodi:insensitive="true">
    <path
       style="font-size:7.72595px;font-family:'Prelo Slab';-inkscape-font-specification:'Prelo Slab';fill:none;stroke:#000000;stroke-width:0.144;stroke-dasharray:none"
       d="m 58.827036,5.9280491 v 1.081633 h 0.424927 L 58.556627,9.791024 h -0.0077 L 57.784032,7.0096821 h 0.424928 v -1.081633 h -2.317785 v 1.081633 h 0.363119 l 1.33659,4.2106429 h 1.776968 l 1.29796,-4.2106429 h 0.401749 v -1.081633 z m 5.469973,3.6311964 c 0.162245,-1.2747817 0.01545,-2.3177849 -1.684257,-2.3177849 -1.54519,0 -2.086006,0.772595 -2.086006,2.0087469 0,1.2361525 0.540816,2.0087465 2.086006,2.0087465 0.502187,0 1.004374,-0.03863 1.54519,-0.193148 l -0.154519,-1.043003 c -0.540816,0.154519 -0.911662,0.154519 -1.197522,0.154519 -0.509913,0 -0.849855,-0.231779 -0.888484,-0.6180765 z M 62.535493,8.2458341 c 0.424927,0 0.502186,0.1931487 0.463557,0.5021867 h -1.081633 c 0.03863,-0.3476677 0.270408,-0.5021867 0.618076,-0.5021867 z m 1.931491,-1.390671 h 0.386298 v 3.2448989 h -0.386298 v 1.081633 h 2.086007 V 10.100062 H 66.166693 V 5.7735301 h -1.699709 z m 4.133387,1.4679305 c 0.455831,0 0.579446,0.309038 0.579446,0.9271139 0,0.618076 -0.123615,0.9271145 -0.579446,0.9271145 -0.455831,0 -0.579446,-0.3090385 -0.579446,-0.9271145 0,-0.6180759 0.123615,-0.9271139 0.579446,-0.9271139 z m 0,2.9358604 c 1.429301,0 1.970117,-0.772594 1.970117,-2.0087465 0,-1.2361519 -0.540816,-2.0087469 -1.970117,-2.0087469 -1.429301,0 -1.970117,0.772595 -1.970117,2.0087469 0,1.2361525 0.540816,2.0087465 1.970117,2.0087465 z M 74.356197,8.6321316 V 7.4346093 C 73.89264,7.3187201 73.467713,7.2414606 72.965526,7.2414606 c -1.58382,0 -2.086007,0.772595 -2.086007,2.0087469 0,1.2361525 0.502187,2.0087465 2.086007,2.0087465 0.502187,0 0.927114,-0.07726 1.390671,-0.193148 l -0.231779,-1.043003 c -0.656705,0.154519 -0.849854,0.154519 -1.158892,0.154519 -0.386298,0 -0.695336,-0.231779 -0.695336,-0.9271145 0,-0.6953354 0.309038,-0.9271139 0.695336,-0.9271139 0.108163,0 0.200875,0 0.309038,0.00773 v 0.3013121 z m 0.154515,-0.2317785 h 0.386298 v 1.6997089 h -0.386298 v 1.081633 h 2.086007 V 10.100062 H 76.210421 V 7.3187201 h -1.699709 z m 0.386298,-2.626823 v 1.1588925 h 1.313411 V 5.7735301 Z m 3.785719,1.081633 h 0.386297 v 0.8112247 h -0.01545 C 78.83725,7.3959796 78.481856,7.2414606 78.141914,7.2414606 c -1.081633,0 -1.46793,0.927114 -1.46793,2.0087469 0,1.0816335 0.309038,2.0087465 1.390671,2.0087465 0.378571,0 0.772595,-0.193148 0.988921,-0.463557 h 0.01545 v 0.386298 h 1.699709 V 10.100062 H 80.382437 V 5.7735301 h -1.699708 z m -0.618076,2.3950444 c 0,-0.5408164 0.115889,-0.9271139 0.540816,-0.9271139 0.231779,0 0.378572,0.092711 0.463557,0.154519 v 1.5451904 c -0.08498,0.06181 -0.231778,0.154519 -0.463557,0.154519 -0.424927,0 -0.540816,-0.386298 -0.540816,-0.9271145 z M 82.198031,8.6321316 V 8.3385455 c 0.108163,-0.00773 0.208601,-0.015452 0.309038,-0.015452 0.378571,0 0.618076,0.023178 0.618076,0.309038 v 0.154519 h -0.618076 c -0.618076,0 -1.62245,0.2163266 -1.62245,1.2361525 0,0.772594 0.479009,1.236151 1.158893,1.236151 0.455831,0 0.795773,-0.154519 1.066181,-0.463557 h 0.01545 v 0.386298 h 1.699709 V 10.100062 H 84.438556 V 8.5548721 c 0,-1.081633 -0.579446,-1.3134115 -1.622449,-1.3134115 -0.502187,0 -1.120263,0.07726 -1.699709,0.1931487 v 1.1975223 z m 0.927114,1.4679304 c -0.115889,0.08499 -0.347668,0.154519 -0.540817,0.154519 -0.154519,0 -0.386297,-0.07726 -0.386297,-0.3476677 0,-0.3476678 0.28586,-0.3476678 0.517639,-0.3476678 h 0.409475 z m 3.78571,-3.2448989 h 0.386298 v 0.8112247 h -0.01545 C 87.065374,7.3959796 86.70998,7.2414606 86.370039,7.2414606 c -1.081633,0 -1.467931,0.927114 -1.467931,2.0087469 0,1.0816335 0.309038,2.0087465 1.390671,2.0087465 0.378572,0 0.772595,-0.193148 0.988922,-0.463557 h 0.01545 v 0.386298 h 1.699708 V 10.100062 H 88.610564 V 5.7735301 h -1.699709 z m -0.618076,2.3950444 c 0,-0.5408164 0.115889,-0.9271139 0.540817,-0.9271139 0.231778,0 0.378571,0.092711 0.463557,0.154519 v 1.5451904 c -0.08499,0.06181 -0.231779,0.154519 -0.463557,0.154519 -0.424928,0 -0.540817,-0.386298 -0.540817,-0.9271145 z m 6.551597,0.309038 c 0.162245,-1.2747817 0.01545,-2.3177849 -1.684257,-2.3177849 -1.54519,0 -2.086006,0.772595 -2.086006,2.0087469 0,1.2361525 0.540816,2.0087465 2.086006,2.0087465 0.502187,0 1.004374,-0.03863 1.54519,-0.193148 L 92.55079,10.022803 c -0.540816,0.154519 -0.911662,0.154519 -1.197522,0.154519 -0.509913,0 -0.849854,-0.231779 -0.888484,-0.6180765 z M 91.08286,8.2458341 c 0.424927,0 0.502186,0.1931487 0.463557,0.5021867 h -1.081633 c 0.03863,-0.3476677 0.270408,-0.5021867 0.618076,-0.5021867 z m 3.553944,0.309038 c 0,1.2670557 0.448105,2.6268229 1.390671,3.7084559 h 0.849854 C 96.18972,10.949916 95.950215,9.791024 95.950215,8.5548721 c 0,-1.2593298 0.239505,-2.472304 0.927114,-3.7084559 h -0.849854 c -0.942566,1.0816329 -1.390671,2.4027704 -1.390671,3.7084559 z m 4.79009,2.6268229 h 1.931486 v -1.081633 h -0.30904 V 8.8021025 c 0,-0.1081633 0,-0.2163266 0,-0.3244899 0.15452,-0.07726 0.34767,-0.154519 0.54082,-0.154519 0.27041,0 0.46356,0.154519 0.46356,0.5408165 v 1.2361519 h -0.30904 v 1.081633 h 2.00875 v -1.081633 h -0.3863 V 8.5548721 c 0,-0.772595 -0.3863,-1.3134115 -1.15889,-1.3134115 -0.46356,0 -0.88076,0.1158893 -1.30569,0.6026241 -0.16997,-0.3708456 -0.50991,-0.6026241 -1.012099,-0.6026241 -0.115889,0 -0.224053,0.015452 -0.332216,0.03863 -0.316764,0.069534 -0.594898,0.2395044 -0.811225,0.5021867 h -0.01545 v -0.463557 h -1.699709 v 1.081633 h 0.386298 v 1.6997087 h -0.386298 v 1.081633 h 2.008747 v -1.081633 h -0.30904 V 8.4776126 c 0.154519,-0.07726 0.347668,-0.154519 0.540817,-0.154519 0.254956,0 0.440379,0.1390671 0.463557,0.4867348 v 1.2902336 h -0.309038 z m 6.876086,0 h 1.93149 v -1.081633 h -0.30904 V 8.8021025 c 0,-0.1081633 0,-0.2163266 0,-0.3244899 0.15452,-0.07726 0.34767,-0.154519 0.54082,-0.154519 0.27041,0 0.46356,0.154519 0.46356,0.5408165 v 1.2361519 h -0.30904 v 1.081633 h 2.00875 v -1.081633 h -0.3863 V 8.5548721 c 0,-0.772595 -0.3863,-1.3134115 -1.15889,-1.3134115 -0.46356,0 -0.88076,0.1158893 -1.30569,0.6026241 -0.16997,-0.3708456 -0.50991,-0.6026241 -1.0121,-0.6026241 -0.11589,0 -0.22405,0.015452 -0.33221,0.03863 -0.31677,0.069534 -0.5949,0.2395044 -0.81123,0.5021867 h -0.0154 v -0.463557 h -1.69971 v 1.081633 h 0.3863 v 1.6997087 h -0.3863 v 1.081633 h 2.00875 V 10.100062 H 105.6077 V 8.4776126 c 0.15452,-0.07726 0.34767,-0.154519 0.54082,-0.154519 0.25495,0 0.44037,0.1390671 0.46355,0.4867348 v 1.2902336 h -0.30904 z m 8.49855,-5.2536459 h -1.1589 l -2.8586,5.2536459 h 1.15889 z m 3.51531,2.7040825 V 7.4346093 c -0.46356,-0.1158892 -1.043,-0.1931487 -1.69971,-0.1931487 -0.96574,0 -1.62245,0.309038 -1.62245,1.236152 0,0.9271139 0.7726,1.2361519 1.69971,1.3906709 0.23178,0.03863 0.46356,0.03863 0.46356,0.1699705 0,0.139068 -0.19315,0.177697 -0.46356,0.177697 -0.16224,0 -0.37085,-0.0077 -0.61808,-0.03863 V 9.8682835 h -1.08163 v 1.1975225 c 0.46356,0.115889 1.19752,0.193148 1.85423,0.193148 0.96574,0 1.62245,-0.386297 1.62245,-1.313411 0,-1.0043734 -1.08163,-1.1588924 -1.73834,-1.3134114 -0.30131,-0.069534 -0.42493,-0.077259 -0.42493,-0.1931488 0,-0.1313411 0.15452,-0.154519 0.3863,-0.154519 0.14679,0 0.32449,0.00773 0.54082,0.03863 v 0.309038 z m 2.58819,-0.077259 c 0,-1.3056855 -0.44811,-2.626823 -1.39067,-3.7084559 h -0.84986 c 0.68761,1.2361519 0.92712,2.4491261 0.92712,3.7084559 0,1.2361519 -0.23951,2.3950444 -0.92712,3.7084564 h 0.84986 c 0.94256,-1.081633 1.39067,-2.4414007 1.39067,-3.7084564 z"
       id="text1"
       aria-label="Velocidade (mm/s)" />
    <path
       style="font-size:7.72595px;font-family:'Prelo Slab';-inkscape-font-specification:'Prelo Slab';fill:none;stroke:#000000;stroke-width:0.144;stroke-dasharray:none"
       d="m 55.891175,-154.07196 v 1.08163 h 0.386297 v 3.09038 h -0.386297 v 1.08164 h 2.163266 v -1.08164 h -0.386298 v -0.69533 h 0.927114 c 1.158893,0 1.854228,-0.61808 1.854228,-1.73834 0,-1.12026 -0.695335,-1.73834 -1.854228,-1.73834 z m 1.776968,1.08163 h 0.772595 c 0.309038,0 0.579446,0.19315 0.579446,0.65671 0,0.46356 -0.270408,0.6567 -0.579446,0.6567 h -0.772595 z m 4.751459,1.31341 c 0.455831,0 0.579446,0.30904 0.579446,0.92712 0,0.61807 -0.123615,0.92711 -0.579446,0.92711 -0.455831,0 -0.579446,-0.30904 -0.579446,-0.92711 0,-0.61808 0.123615,-0.92712 0.579446,-0.92712 z m 0,2.93587 c 1.429301,0 1.970117,-0.7726 1.970117,-2.00875 0,-1.23615 -0.540816,-2.00875 -1.970117,-2.00875 -1.429301,0 -1.970117,0.7726 -1.970117,2.00875 0,1.23615 0.540816,2.00875 1.970117,2.00875 z m 2.510924,-1.16662 c 0,0.76487 0.347668,1.16662 1.313411,1.16662 0.231779,0 0.656706,-0.0309 0.888485,-0.0773 l -0.11589,-1.00438 c -0.115889,0.0232 -0.231778,0.0386 -0.309038,0.0386 -0.309038,0 -0.463557,-0.12361 -0.463557,-0.35539 v -1.61472 h 0.849855 v -0.92712 h -0.849855 v -1.08163 h -1.158892 l -0.154519,1.08163 -0.463557,0.0773 v 0.84986 h 0.463557 z m 6.049413,-0.53309 c 0.162245,-1.27478 0.01545,-2.31779 -1.684257,-2.31779 -1.54519,0 -2.086006,0.7726 -2.086006,2.00875 0,1.23615 0.540816,2.00875 2.086006,2.00875 0.502187,0 1.004374,-0.0386 1.54519,-0.19315 l -0.154519,-1.04301 c -0.540816,0.15452 -0.911662,0.15452 -1.197522,0.15452 -0.509913,0 -0.849855,-0.23178 -0.888484,-0.61807 z m -1.761516,-1.31341 c 0.424927,0 0.502186,0.19314 0.463557,0.50218 h -1.081633 c 0.03863,-0.34767 0.270408,-0.50218 0.618076,-0.50218 z m 0.06953,-1.76152 0.540817,0.37084 h 0.695335 l -0.849854,-1.08163 h -0.772595 l -0.849855,1.08163 h 0.695336 z m 4.334264,4.69738 h 2.008747 v -1.08164 h -0.386298 v -1.54519 c 0,-0.77259 -0.386297,-1.31341 -1.158892,-1.31341 -0.463557,0 -0.849855,0.19315 -1.143441,0.54082 h -0.01545 v -0.46356 h -1.699709 v 1.08163 h 0.386298 v 1.69971 h -0.386298 v 1.08164 h 2.008747 v -1.08164 h -0.309038 v -1.62245 c 0.154519,-0.0773 0.347668,-0.15452 0.540817,-0.15452 0.309038,0 0.463557,0.15452 0.463557,0.54082 v 1.23615 H 73.62222 Z m 5.562682,-2.54957 v -1.19752 c -0.463557,-0.11589 -0.888485,-0.19315 -1.390671,-0.19315 -1.58382,0 -2.086007,0.7726 -2.086007,2.00875 0,1.23615 0.502187,2.00875 2.086007,2.00875 0.502186,0 0.927114,-0.0773 1.390671,-0.19315 l -0.231779,-1.04301 c -0.656706,0.15452 -0.849854,0.15452 -1.158892,0.15452 -0.386298,0 -0.695336,-0.23178 -0.695336,-0.92711 0,-0.69534 0.309038,-0.92712 0.695336,-0.92712 0.108163,0 0.200874,0 0.309038,0.008 v 0.30131 z m 0.154515,-0.23178 h 0.386297 v 1.69971 h -0.386297 v 1.08164 h 2.086006 v -1.08164 h -0.386297 v -2.78134 h -1.699709 z m 0.386297,-2.62682 v 1.15889 h 1.313412 v -1.15889 z m 3.129015,2.8586 v -0.29358 c 0.108163,-0.008 0.208601,-0.0155 0.309038,-0.0155 0.378572,0 0.618076,0.0232 0.618076,0.30904 v 0.15452 h -0.618076 c -0.618076,0 -1.622449,0.21633 -1.622449,1.23615 0,0.7726 0.479009,1.23616 1.158892,1.23616 0.455831,0 0.795773,-0.15452 1.066181,-0.46356 h 0.01545 v 0.3863 h 1.699709 v -1.08164 H 85.09525 v -1.54519 c 0,-1.08163 -0.579447,-1.31341 -1.62245,-1.31341 -0.502187,0 -1.120263,0.0773 -1.699709,0.19315 v 1.19752 z m 0.927114,1.46793 c -0.115889,0.085 -0.347668,0.15452 -0.540816,0.15452 -0.154519,0 -0.386298,-0.0773 -0.386298,-0.34767 0,-0.34766 0.28586,-0.34766 0.517639,-0.34766 h 0.409475 z m 3.399419,-1.54519 c 0,1.26706 0.448105,2.62683 1.390671,3.70846 h 0.849855 c -0.68761,-1.31341 -0.927114,-2.4723 -0.927114,-3.70846 0,-1.25933 0.239504,-2.4723 0.927114,-3.70845 H 88.57193 c -0.942566,1.08163 -1.390671,2.40277 -1.390671,3.70845 z m 7.107873,-2.62682 h -0.849854 l -2.858602,5.25365 h 0.849855 z m -3.399418,2.30233 c 0.757143,0 1.158893,-0.45583 1.158893,-1.18979 0,-0.73397 -0.40175,-1.1898 -1.158893,-1.1898 -0.757143,0 -1.158892,0.45583 -1.158892,1.1898 0,0.73396 0.401749,1.18979 1.158892,1.18979 z m 0,-0.64898 c -0.224052,0 -0.347667,-0.16997 -0.347667,-0.54081 0,-0.37085 0.123615,-0.54082 0.347667,-0.54082 0.224053,0 0.347668,0.16997 0.347668,0.54082 0,0.37084 -0.123615,0.54081 -0.347668,0.54081 z m 3.09038,3.67756 c 0.757143,0 1.158893,-0.45584 1.158893,-1.1898 0,-0.73397 -0.40175,-1.1898 -1.158893,-1.1898 -0.757143,0 -1.158892,0.45583 -1.158892,1.1898 0,0.73396 0.401749,1.1898 1.158892,1.1898 z m 0,-0.64898 c -0.224052,0 -0.347668,-0.16997 -0.347668,-0.54082 0,-0.37085 0.123616,-0.54082 0.347668,-0.54082 0.224053,0 0.347668,0.16997 0.347668,0.54082 0,0.37085 -0.123615,0.54082 -0.347668,0.54082 z m 3.708457,-2.05511 c 0,-1.30568 -0.448105,-2.62682 -1.390671,-3.70845 h -0.849854 c 0.68761,1.23615 0.927114,2.44912 0.927114,3.70845 0,1.23616 -0.239504,2.39505 -0.927114,3.70846 h 0.849854 c 0.942566,-1.08163 1.390671,-2.4414 1.390671,-3.70846 z"
       id="text2"
       transform="rotate(90)"
       aria-label="Potência (%)" />
    <path
       d="M 33.248672,19.902848 V 15.823033 H 32.6498 l -1.422321,0.336865 v 0.898308 h 0.74859 v 2.844642 h -0.74859 v 1.048026 h 2.769783 v -1.048026 z m 2.807205,-3.069219 c 0.486583,0 0.636301,0.598872 0.636301,1.53461 0,0.935737 -0.149718,1.609468 -0.636301,1.609468 -0.486584,0 -0.636302,-0.673731 -0.636302,-1.609468 0,-0.935738 0.149718,-1.53461 0.636302,-1.53461 z m 0,4.192104 c 1.609468,0 1.983763,-1.197744 1.983763,-2.657494 0,-1.459751 -0.374295,-2.582636 -1.983763,-2.582636 -1.609469,0 -1.983764,1.122885 -1.983764,2.582636 0,1.45975 0.374295,2.657494 1.983764,2.657494 z m 4.26696,-4.192104 c 0.486584,0 0.636302,0.598872 0.636302,1.53461 0,0.935737 -0.149718,1.609468 -0.636302,1.609468 -0.486583,0 -0.636301,-0.673731 -0.636301,-1.609468 0,-0.935738 0.149718,-1.53461 0.636301,-1.53461 z m 0,4.192104 c 1.609469,0 1.983764,-1.197744 1.983764,-2.657494 0,-1.459751 -0.374295,-2.582636 -1.983764,-2.582636 -1.609468,0 -1.983763,1.122885 -1.983763,2.582636 0,1.45975 0.374295,2.657494 1.983763,2.657494 z"
       id="text29"
       style="font-size:7.4859px;font-family:'Prelo Slab';-inkscape-font-specification:'Prelo Slab';fill:none;stroke:#000000;stroke-width:0.14;stroke-dasharray:none"
       aria-label="100" />
    <path
       d="m 62.108061,19.902848 v -4.079815 h -0.598872 l -1.422321,0.336865 v 0.898308 h 0.74859 v 2.844642 h -0.74859 v 1.048026 h 2.769783 v -1.048026 z m 4.566394,-4.042386 h -3.443514 l -0.07486,2.919501 0.898308,0.07486 c 0.224577,-0.149718 0.374295,-0.224577 0.71116,-0.224577 0.561443,0 0.711161,0.374295 0.711161,0.673731 0,0.336866 -0.187148,0.673731 -0.74859,0.673731 -0.209605,0 -0.404239,-0.01497 -0.598872,-0.0524 v -0.321894 h -1.048026 v 1.048026 c 0.673731,0.299436 1.160314,0.374295 1.721757,0.374295 1.272603,0 2.021193,-0.598872 2.021193,-1.796616 0,-1.122885 -0.636302,-1.684327 -1.594497,-1.684327 -0.426696,0 -0.688703,0.08983 -0.920765,0.224577 l -0.01497,-0.0075 0.03743,-0.778534 h 1.295061 v 0.299436 h 1.048026 z m 2.432924,0.973167 c 0.486584,0 0.636302,0.598872 0.636302,1.53461 0,0.935737 -0.149718,1.609468 -0.636302,1.609468 -0.486583,0 -0.636301,-0.673731 -0.636301,-1.609468 0,-0.935738 0.149718,-1.53461 0.636301,-1.53461 z m 0,4.192104 c 1.609469,0 1.983764,-1.197744 1.983764,-2.657494 0,-1.459751 -0.374295,-2.582636 -1.983764,-2.582636 -1.609468,0 -1.983763,1.122885 -1.983763,2.582636 0,1.45975 0.374295,2.657494 1.983763,2.657494 z"
       id="text30"
       style="font-size:7.4859px;font-family:'Prelo Slab';-inkscape-font-specification:'Prelo Slab';fill:none;stroke:#000000;stroke-width:0.14;stroke-dasharray:none"
       aria-label="150" />
    <path
       d="m 91.079749,19.528553 v 0.299436 h -0.973167 v -0.01497 c 1.048026,-0.733619 1.796616,-1.40735 1.796616,-2.455376 0,-0.898308 -0.598872,-1.572039 -1.796616,-1.572039 -0.673731,0 -1.122885,0.112289 -1.796616,0.374295 v 1.122885 h 1.048026 v -0.299436 c 0.16469,-0.02994 0.306922,-0.03743 0.449154,-0.03743 0.299436,0 0.74859,0.07486 0.74859,0.673731 0,0.524013 -0.441668,1.033054 -2.24577,2.133481 v 1.197744 h 3.817809 v -1.422321 z m 3.181511,-2.694924 c 0.486584,0 0.636302,0.598872 0.636302,1.53461 0,0.935737 -0.149718,1.609468 -0.636302,1.609468 -0.486583,0 -0.636301,-0.673731 -0.636301,-1.609468 0,-0.935738 0.149718,-1.53461 0.636301,-1.53461 z m 0,4.192104 c 1.609469,0 1.983764,-1.197744 1.983764,-2.657494 0,-1.459751 -0.374295,-2.582636 -1.983764,-2.582636 -1.609468,0 -1.983763,1.122885 -1.983763,2.582636 0,1.45975 0.374295,2.657494 1.983763,2.657494 z m 4.266961,-4.192104 c 0.486583,0 0.636301,0.598872 0.636301,1.53461 0,0.935737 -0.149718,1.609468 -0.636301,1.609468 -0.486584,0 -0.636302,-0.673731 -0.636302,-1.609468 0,-0.935738 0.149718,-1.53461 0.636302,-1.53461 z m 0,4.192104 c 1.609469,0 1.983759,-1.197744 1.983759,-2.657494 0,-1.459751 -0.37429,-2.582636 -1.983759,-2.582636 -1.609469,0 -1.983764,1.122885 -1.983764,2.582636 0,1.45975 0.374295,2.657494 1.983764,2.657494 z"
       id="text31"
       style="font-size:7.4859px;font-family:'Prelo Slab';-inkscape-font-specification:'Prelo Slab';fill:none;stroke:#000000;stroke-width:0.14;stroke-dasharray:none"
       aria-label="200" />
    <path
       d="m 119.97658,19.528553 v 0.299436 h -0.97317 v -0.01497 c 1.04803,-0.733619 1.79662,-1.40735 1.79662,-2.455376 0,-0.898308 -0.59888,-1.572039 -1.79662,-1.572039 -0.67373,0 -1.12288,0.112289 -1.79662,0.374295 v 1.122885 h 1.04803 v -0.299436 c 0.16469,-0.02994 0.30692,-0.03743 0.44915,-0.03743 0.29944,0 0.74859,0.07486 0.74859,0.673731 0,0.524013 -0.44166,1.033054 -2.24577,2.133481 v 1.197744 h 3.81781 v -1.422321 z m 4.86584,-3.668091 h -3.44352 l -0.0749,2.919501 0.89831,0.07486 c 0.22458,-0.149718 0.3743,-0.224577 0.71116,-0.224577 0.56145,0 0.71116,0.374295 0.71116,0.673731 0,0.336866 -0.18714,0.673731 -0.74859,0.673731 -0.2096,0 -0.40424,-0.01497 -0.59887,-0.0524 v -0.321894 h -1.04802 v 1.048026 c 0.67373,0.299436 1.16031,0.374295 1.72175,0.374295 1.27261,0 2.0212,-0.598872 2.0212,-1.796616 0,-1.122885 -0.63631,-1.684327 -1.5945,-1.684327 -0.4267,0 -0.6887,0.08983 -0.92077,0.224577 l -0.015,-0.0075 0.0374,-0.778534 h 1.29506 v 0.299436 h 1.04803 z m 2.43292,0.973167 c 0.48658,0 0.6363,0.598872 0.6363,1.53461 0,0.935737 -0.14972,1.609468 -0.6363,1.609468 -0.48658,0 -0.6363,-0.673731 -0.6363,-1.609468 0,-0.935738 0.14972,-1.53461 0.6363,-1.53461 z m 0,4.192104 c 1.60947,0 1.98376,-1.197744 1.98376,-2.657494 0,-1.459751 -0.37429,-2.582636 -1.98376,-2.582636 -1.60947,0 -1.98376,1.122885 -1.98376,2.582636 0,1.45975 0.37429,2.657494 1.98376,2.657494 z"
       id="text32"
       style="font-size:7.4859px;font-family:'Prelo Slab';-inkscape-font-specification:'Prelo Slab';fill:none;stroke:#000000;stroke-width:0.14;stroke-dasharray:none"
       aria-label="250" />
    <path
       d="m 35.639997,-140.42403 v 0.28921 h -0.939934 v -0.0145 c 1.012236,-0.70856 1.735262,-1.35929 1.735262,-2.37152 0,-0.86763 -0.57842,-1.51836 -1.735262,-1.51836 -0.650723,0 -1.084539,0.10846 -1.735262,0.36152 v 1.08453 h 1.012236 v -0.28921 c 0.159066,-0.0289 0.296441,-0.0362 0.433816,-0.0362 0.28921,0 0.723026,0.0723 0.723026,0.65073 0,0.50611 -0.426586,0.99777 -2.169078,2.06062 v 1.15684 h 3.687432 v -1.37375 z m 3.072864,-2.60289 c 0.469966,0 0.614572,0.57842 0.614572,1.4822 0,0.90379 -0.144606,1.55451 -0.614572,1.55451 -0.469967,0 -0.614573,-0.65072 -0.614573,-1.55451 0,-0.90378 0.144606,-1.4822 0.614573,-1.4822 z m 0,4.04894 c 1.554505,0 1.916018,-1.15684 1.916018,-2.56674 0,-1.4099 -0.361513,-2.49444 -1.916018,-2.49444 -1.554506,0 -1.916019,1.08454 -1.916019,2.49444 0,1.4099 0.361513,2.56674 1.916019,2.56674 z"
       id="text35"
       style="font-size:7.23026px;font-family:'Prelo Slab';-inkscape-font-specification:'Prelo Slab';fill:none;stroke:#000000;stroke-width:0.119;stroke-dasharray:none"
       transform="rotate(90)"
       aria-label="20" />
    <path
       d="m 62.002593,-139.33949 c 0.650723,0.28921 1.084539,0.36151 1.735262,0.36151 1.156842,0 1.879868,-0.50611 1.879868,-1.44605 0,-0.50612 -0.253059,-1.01223 -0.925473,-1.20745 v -0.0145 c 0.527808,-0.22414 0.780868,-0.58565 0.780868,-1.08454 0,-0.88932 -0.773638,-1.30868 -1.590658,-1.30868 -0.57842,0 -1.178532,0.0723 -1.843716,0.36152 v 1.08453 h 1.012237 v -0.36151 c 0.216907,-0.0506 0.383203,-0.0723 0.614572,-0.0723 0.361513,0 0.57842,0.18076 0.57842,0.43381 0,0.25306 -0.05784,0.57843 -0.708565,0.57843 h -0.629033 v 1.01223 h 0.686875 c 0.469967,0 0.759177,0.10846 0.759177,0.50612 0,0.25306 -0.216908,0.50612 -0.686874,0.50612 -0.216908,0 -0.426586,-0.0145 -0.650724,-0.0578 v -0.37598 h -1.012236 z m 5.74806,-3.68743 c 0.469967,0 0.614572,0.57842 0.614572,1.4822 0,0.90379 -0.144605,1.55451 -0.614572,1.55451 -0.469967,0 -0.614572,-0.65072 -0.614572,-1.55451 0,-0.90378 0.144605,-1.4822 0.614572,-1.4822 z m 0,4.04894 c 1.554506,0 1.916019,-1.15684 1.916019,-2.56674 0,-1.4099 -0.361513,-2.49444 -1.916019,-2.49444 -1.554506,0 -1.916019,1.08454 -1.916019,2.49444 0,1.4099 0.361513,2.56674 1.916019,2.56674 z"
       id="text36"
       style="font-size:7.23026px;font-family:'Prelo Slab';-inkscape-font-specification:'Prelo Slab';fill:none;stroke:#000000;stroke-width:0.119;stroke-dasharray:none"
       transform="rotate(90)"
       aria-label="30" />
    <path
       d="m 92.291224,-141.36396 c 0.375973,-0.46997 0.55673,-0.74472 0.903782,-1.3376 h 0.01446 v 1.3376 z m 0.918243,1.30145 h -0.361513 v 1.01223 h 1.95217 v -1.01223 h -0.361513 v -0.28921 h 0.578421 v -1.01224 h -0.578421 v -2.63905 h -1.518355 c -0.506118,1.15685 -1.084539,1.77142 -1.879867,2.63905 v 1.01224 h 2.169078 z m 3.940489,-2.96441 c 0.469967,0 0.614572,0.57842 0.614572,1.4822 0,0.90379 -0.144605,1.55451 -0.614572,1.55451 -0.469967,0 -0.614572,-0.65072 -0.614572,-1.55451 0,-0.90378 0.144605,-1.4822 0.614572,-1.4822 z m 0,4.04894 c 1.554506,0 1.916019,-1.15684 1.916019,-2.56674 0,-1.4099 -0.361513,-2.49444 -1.916019,-2.49444 -1.554506,0 -1.916019,1.08454 -1.916019,2.49444 0,1.4099 0.361513,2.56674 1.916019,2.56674 z"
       id="text37"
       style="font-size:7.23026px;font-family:'Prelo Slab';-inkscape-font-specification:'Prelo Slab';fill:none;stroke:#000000;stroke-width:0.119;stroke-dasharray:none"
       transform="rotate(90)"
       aria-label="40" />
    <path
       d="m 123.62101,-143.96685 h -3.32592 l -0.0723,2.8198 0.86763,0.0723 c 0.21691,-0.14461 0.36151,-0.21691 0.68688,-0.21691 0.54227,0 0.68687,0.36151 0.68687,0.65073 0,0.32536 -0.18076,0.65072 -0.72303,0.65072 -0.20244,0 -0.39043,-0.0145 -0.57842,-0.0506 v -0.3109 h -1.01223 v 1.01223 c 0.65072,0.28921 1.12069,0.36151 1.66296,0.36151 1.22914,0 1.95217,-0.57842 1.95217,-1.73526 0,-1.08454 -0.61457,-1.62681 -1.54005,-1.62681 -0.41212,0 -0.66518,0.0868 -0.88932,0.21691 l -0.0145,-0.007 0.0362,-0.75195 h 1.25084 v 0.28921 h 1.01223 z m 2.34984,0.93993 c 0.46997,0 0.61458,0.57842 0.61458,1.4822 0,0.90379 -0.14461,1.55451 -0.61458,1.55451 -0.46996,0 -0.61457,-0.65072 -0.61457,-1.55451 0,-0.90378 0.14461,-1.4822 0.61457,-1.4822 z m 0,4.04894 c 1.55451,0 1.91602,-1.15684 1.91602,-2.56674 0,-1.4099 -0.36151,-2.49444 -1.91602,-2.49444 -1.5545,0 -1.91602,1.08454 -1.91602,2.49444 0,1.4099 0.36152,2.56674 1.91602,2.56674 z"
       id="text38"
       style="font-size:7.23026px;font-family:'Prelo Slab';-inkscape-font-specification:'Prelo Slab';fill:none;stroke:#000000;stroke-width:0.119;stroke-dasharray:none"
       transform="rotate(90)"
       aria-label="50" />
  </g>
  <g
     inkscape:label="Camada 1"
     inkscape:groupmode="layer"
     id="layer1">
    <path
       id="rect3"
       style="fill:none;stroke:#ff0002;stroke-width:0.242288;stroke-opacity:1;font-variation-settings:normal;opacity:1;vector-effect:none;fill-opacity:1;stroke-linecap:butt;stroke-linejoin:miter;stroke-miterlimit:4;stroke-dasharray:none;stroke-dashoffset:0;-inkscape-stroke:none;stop-color:#000000;stop-opacity:1"
       d="M 23.977556,24.007345 H 49.556547 V 49.586336 H 23.977556 Z" />
    <path
       id="rect4"
       style="fill:none;stroke:#ff005e;stroke-width:0.242288;font-variation-settings:normal;opacity:1;vector-effect:none;fill-opacity:1;stroke-linecap:butt;stroke-linejoin:miter;stroke-miterlimit:4;stroke-dasharray:none;stroke-dashoffset:0;stroke-opacity:1;-inkscape-stroke:none;stop-color:#000000;stop-opacity:1"
       d="M 52.799522,24.007345 H 78.378513 V 49.586336 H 52.799522 Z" />
    <path
       id="rect5"
       style="fill:none;stroke:#ff00d1;stroke-width:0.242288;font-variation-settings:normal;opacity:1;vector-effect:none;fill-opacity:1;stroke-linecap:butt;stroke-linejoin:miter;stroke-miterlimit:4;stroke-dasharray:none;stroke-dashoffset:0;stroke-opacity:1;-inkscape-stroke:none;stop-color:#000000;stop-opacity:1"
       d="m 81.62149,24.007345 h 25.57899 V 49.586336 H 81.62149 Z" />
    <path
       id="rect6"
       style="fill:none;stroke:#3500ff;stroke-width:0.242288;font-variation-settings:normal;opacity:1;vector-effect:none;fill-opacity:1;stroke-linecap:butt;stroke-linejoin:miter;stroke-miterlimit:4;stroke-dasharray:none;stroke-dashoffset:0;stroke-opacity:1;-inkscape-stroke:none;stop-color:#000000;stop-opacity:1"
       d="m 110.44345,24.007345 h 25.57899 v 25.578991 h -25.57899 z" />
    <path
       id="rect18"
       style="fill:none;stroke:#00b4ff;stroke-width:0.242288;font-variation-settings:normal;opacity:1;vector-effect:none;fill-opacity:1;stroke-linecap:butt;stroke-linejoin:miter;stroke-miterlimit:4;stroke-dasharray:none;stroke-dashoffset:0;stroke-opacity:1;-inkscape-stroke:none;stop-color:#000000;stop-opacity:1"
       d="M 23.977556,53.045135 H 49.556547 V 78.624126 H 23.977556 Z" />
    <path
       id="rect19"
       style="fill:none;stroke:#00f3ff;stroke-width:0.242288;font-variation-settings:normal;opacity:1;vector-effect:none;fill-opacity:1;stroke-linecap:butt;stroke-linejoin:miter;stroke-miterlimit:4;stroke-dasharray:none;stroke-dashoffset:0;stroke-opacity:1;-inkscape-stroke:none;stop-color:#000000;stop-opacity:1"
       d="M 52.799522,53.045135 H 78.378513 V 78.624126 H 52.799522 Z" />
    <path
       id="rect20"
       style="fill:none;stroke:#00ffa2;stroke-width:0.242288;font-variation-settings:normal;opacity:1;vector-effect:none;fill-opacity:1;stroke-linecap:butt;stroke-linejoin:miter;stroke-miterlimit:4;stroke-dasharray:none;stroke-dashoffset:0;stroke-opacity:1;-inkscape-stroke:none;stop-color:#000000;stop-opacity:1"
       d="m 81.62149,53.045135 h 25.57899 V 78.624126 H 81.62149 Z" />
    <path
       id="rect21"
       style="fill:none;stroke:#00ff2f;stroke-width:0.242288;font-variation-settings:normal;opacity:1;vector-effect:none;fill-opacity:1;stroke-linecap:butt;stroke-linejoin:miter;stroke-miterlimit:4;stroke-dasharray:none;stroke-dashoffset:0;stroke-opacity:1;-inkscape-stroke:none;stop-color:#000000;stop-opacity:1"
       d="m 110.44345,53.045135 h 25.57899 v 25.578991 h -25.57899 z" />
    <path
       id="rect22"
       style="fill:none;stroke:#20ff00;stroke-width:0.242288;font-variation-settings:normal;opacity:1;vector-effect:none;fill-opacity:1;stroke-linecap:butt;stroke-linejoin:miter;stroke-miterlimit:4;stroke-dasharray:none;stroke-dashoffset:0;stroke-opacity:1;-inkscape-stroke:none;stop-color:#000000;stop-opacity:1"
       d="M 23.977556,82.082932 H 49.556547 V 107.66192 H 23.977556 Z" />
    <path
       id="rect23"
       style="fill:none;stroke:#7b0016;stroke-width:0.242288;font-variation-settings:normal;opacity:1;vector-effect:none;fill-opacity:1;stroke-linecap:butt;stroke-linejoin:miter;stroke-miterlimit:4;stroke-dasharray:none;stroke-dashoffset:0;stroke-opacity:1;-inkscape-stroke:none;stop-color:#000000;stop-opacity:1"
       d="M 52.799522,82.082932 H 78.378513 V 107.66192 H 52.799522 Z" />
    <path
       id="rect24"
       style="fill:none;stroke:#7b0069;stroke-width:0.242288;font-variation-settings:normal;opacity:1;vector-effect:none;fill-opacity:1;stroke-linecap:butt;stroke-linejoin:miter;stroke-miterlimit:4;stroke-dasharray:none;stroke-dashoffset:0;stroke-opacity:1;-inkscape-stroke:none;stop-color:#000000;stop-opacity:1"
       d="m 81.62149,82.082932 h 25.57899 V 107.66192 H 81.62149 Z" />
    <path
       id="rect25"
       style="fill:none;stroke:#0d007b;stroke-width:0.242288;font-variation-settings:normal;opacity:1;vector-effect:none;fill-opacity:1;stroke-linecap:butt;stroke-linejoin:miter;stroke-miterlimit:4;stroke-dasharray:none;stroke-dashoffset:0;stroke-opacity:1;-inkscape-stroke:none;stop-color:#000000;stop-opacity:1"
       d="m 110.44345,82.082932 h 25.57899 v 25.578988 h -25.57899 z" />
    <path
       id="rect26"
       style="fill:none;stroke:#00657b;stroke-width:0.242288;font-variation-settings:normal;opacity:1;vector-effect:none;fill-opacity:1;stroke-linecap:butt;stroke-linejoin:miter;stroke-miterlimit:4;stroke-dasharray:none;stroke-dashoffset:0;stroke-opacity:1;-inkscape-stroke:none;stop-color:#000000;stop-opacity:1"
       d="m 23.977556,111.12072 h 25.578991 v 25.57899 H 23.977556 Z" />
    <path
       id="rect27"
       style="fill:none;stroke:#007b51;stroke-width:0.242288;font-variation-settings:normal;opacity:1;vector-effect:none;fill-opacity:1;stroke-linecap:butt;stroke-linejoin:miter;stroke-miterlimit:4;stroke-dasharray:none;stroke-dashoffset:0;stroke-opacity:1;-inkscape-stroke:none;stop-color:#000000;stop-opacity:1"
       d="m 52.799522,111.12072 h 25.578991 v 25.57899 H 52.799522 Z" />
    <path
       id="rect28"
       style="fill:none;stroke:#007b12;stroke-width:0.242288;font-variation-settings:normal;opacity:1;vector-effect:none;fill-opacity:1;stroke-linecap:butt;stroke-linejoin:miter;stroke-miterlimit:4;stroke-dasharray:none;stroke-dashoffset:0;stroke-opacity:1;-inkscape-stroke:none;stop-color:#000000;stop-opacity:1"
       d="m 81.62149,111.12072 h 25.57899 v 25.57899 H 81.62149 Z" />
    <path
       id="rect29"
       style="fill:none;stroke:#357b00;stroke-width:0.242288;font-variation-settings:normal;opacity:1;vector-effect:none;fill-opacity:1;stroke-linecap:butt;stroke-linejoin:miter;stroke-miterlimit:4;stroke-dasharray:none;stroke-dashoffset:0;stroke-opacity:1;-inkscape-stroke:none;stop-color:#000000;stop-opacity:1"
       d="m 110.44345,111.12072 h 25.57899 v 25.57899 h -25.57899 z" />
  </g>
</svg>
